<svg xmlns="http://www.w3.org/2000/svg" viewBox="0 0 400 400"><defs><style>.cls-1{fill:#6ee1ff;}.cls-2{fill:#827ddc;}.cls-3{fill:#7f5e3d;}.cls-4{fill:#a5a0aa;}.cls-5{fill:#916b41;}.cls-6{fill:#fa968c;}.cls-7{fill:#f57a2f;}.cls-8{fill:#0091c8;}.cls-9{fill:#ff965a;}.cls-10{fill:#f07d4b;}.cls-11{fill:#ff8c46;}.cls-12{fill:#ffbe82;}.cls-13{fill:#828291;}.cls-14{fill:#757582;}.cls-15{fill:#111;}.cls-16,.cls-17,.cls-20{fill:none;stroke-miterlimit:10;}.cls-16{stroke:#5046af;}.cls-16,.cls-17{stroke-linecap:round;stroke-width:2.07px;}.cls-17{stroke:#9f9fff;}.cls-18{fill:#5046af;}.cls-19{fill:#fff;}.cls-20{stroke:#827ddc;stroke-width:0.99px;}.cls-21{fill:#a5c8cd;}.cls-22{fill:#d8a988;}.cls-23{fill:#b4d7dc;}.cls-24{fill:#823264;}.cls-25{fill:#ffaa50;}.cls-26{fill:#303030;}.cls-27{fill:#05cdff;}.cls-28{fill:#fab9af;}.cls-29{fill:#fac855;}.cls-30{fill:#39ae96;}.cls-31{fill:#1c9585;}.cls-32{fill:#c69e83;}.cls-33{fill:#82593d;}.cls-34{fill:#46738c;}.cls-35{fill:#41b4e6;}.cls-36{fill:#695a6e;}.cls-37{fill:#614c69;}.cls-38{fill:#aac85a;}.cls-39{fill:#82be50;}.cls-40{fill:#020202;}.cls-41{fill:#725039;}.cls-42{fill:#fa735f;}.cls-43{fill:#c8e6eb;}.cls-44{fill:#41a0d7;}</style></defs><title>iamswifta</title><g id="BACKGROUND"><circle class="cls-1" cx="199.64" cy="199.7" r="143.1"/><path class="cls-2" d="M373.29,213a80.7,80.7,0,0,1-5-64.06c4.71-13.81,5.45-35.14,1.56-49.29C357.38,54.14,299.56,27,243.82,47.29c-51.11,18.56-63.62,95.14-102.87,86.81C48.64,114.53,15.4,180.32,20.27,233.88c3.15,34.6,32.16,77.39,94.14,72.89A90.16,90.16,0,0,1,166,318.87c26.37,15.25,68.29,18.83,111.84,6.86,65.5-18,109.87-64.36,99.1-103.53A45,45,0,0,0,373.29,213Z"/></g><g id="OBJECTS"><path class="cls-3" d="M293.68,61.71c.08-1.4,2.5-4.25,2.13-4.6s-1.21.62-1.72,1.14a.22.22,0,0,1-.37-.13c-.11-1.37-.45-5.22-.84-5.25s-.58,2.4-.64,3.21a.05.05,0,0,1-.1,0c-.3-.86-1.31-3.65-1.74-3.29s.23,3,.49,4a.05.05,0,0,1-.1,0c-.52-.92-1.89-3.25-2.26-3s.69,2.83,1.08,3.73a.05.05,0,0,1-.09.06c-.59-.67-2.15-2.38-2.14-1.88A29.11,29.11,0,0,0,291,62.47C291.93,63.34,293.68,61.71,293.68,61.71Z"/><path class="cls-3" d="M318.22,79c-1.85,4.11-4.52,8.77-7.74,12-6.27,6.21-14.33,4.59-17.14-9.93-.49-2.19-.83-4.37-1.12-6.54-.58-4.34-.81-8.68-1-13a1.18,1.18,0,0,1,2.34-.29v0c.85,4.19,1.71,8.38,2.8,12.45.56,2,1.15,4,1.83,6s3,7.54,4.81,8.1c.06,0,.12.07.16,0s.05,0,.07,0,.06-.07.09-.06a4.31,4.31,0,0,0,.44-.27A7.23,7.23,0,0,0,305.23,86a24.67,24.67,0,0,0,2.94-4.68c1.52-3,2.4-5.07,2.4-5.07,1.87-5.13,9.64-2.68,7.76,2.47Z"/><path class="cls-4" d="M305.78,84.54l0,0c.95-1.39,1.83-2.83,2.64-4.32a47.64,47.64,0,0,0,2.19-4.43l0-.07q.07-.16.15-.32a4.14,4.14,0,1,1,7.33,3.86,51.69,51.69,0,0,1-3.07,5.08c-.75,1.08-1.54,2.12-2.36,3.15C312.09,86.8,307.23,85.06,305.78,84.54Z"/><path class="cls-5" d="M309.83,113.28c3.6,4.13,24.39,5.86,24.39,5.86,1.53-1.78-.71-9.87-1.25-18.09-.58-8.88-.92-18.69-1.08-24a4,4,0,0,0-4-3.92H314.66a3.9,3.9,0,0,0-3.89,3.58c-.35,4.19-.95,11.48-1.54,18.63S306.72,109.71,309.83,113.28Z"/><path class="cls-6" d="M321.82,182.34l0,8.18.71,4a1.14,1.14,0,0,1-1.09,1.35c-3.35.1-11.92.33-12.15,0-1.08-1.74,3.79-2.41,7.36-3.79s1.1-14.91,1.1-14.91Z"/><path class="cls-7" d="M316.62,192l.05,0a8.16,8.16,0,0,0,2.88.5,8.38,8.38,0,0,0,2.52-.37l.42,2.38a1.14,1.14,0,0,1-1.09,1.35c-3.35.1-11.92.33-12.15,0C308.19,194.06,313.06,193.39,316.62,192Z"/><path class="cls-8" d="M309.83,116.26c-.13,5.68,2.11,41.73,6.52,41.83s9.34-35.79,9.47-41.47-3.35-10.37-7.76-10.47S310,110.58,309.83,116.26Z"/><path class="cls-9" d="M322.45,150.61c.44,3.13.51,23.17-.19,33.35h-4c-2.16-9.88-4.46-29-4.89-32.07,0,0,0-.08,0-.12-2.4-10.62-3.59-31.31-3.5-35.5.13-5.68,3.81-10.21,8.23-10.11s7.89,4.79,7.76,10.47C325.74,120.19,322.25,149.13,322.45,150.61Z"/><path class="cls-10" d="M321.79,166.5a21.13,21.13,0,0,0-.68-6.32,51.84,51.84,0,0,1-1-18.47q.08-.78.12-1.57c.36-8.1-4-15.45-10.33-20.09-.07-1.71-.09-3-.08-3.8.13-5.68,3.81-10.21,8.23-10.11s7.89,4.79,7.76,10.47c-.08,3.57-3.58,32.5-3.37,34,.44,3.13.51,23.17-.19,33.35h-4c-.25-1.16-.51-2.46-.76-3.83A27.45,27.45,0,0,0,321.79,166.5Z"/><path class="cls-6" d="M331.47,182.34l0,8.18.71,4a1.14,1.14,0,0,1-1.09,1.35c-3.35.1-11.92.33-12.15,0-1.08-1.74,3.79-2.41,7.36-3.79s1.1-14.91,1.1-14.91Z"/><path class="cls-11" d="M326.27,192l.05,0a8.16,8.16,0,0,0,2.88.5,8.38,8.38,0,0,0,2.52-.37l.42,2.38a1.14,1.14,0,0,1-1.09,1.35c-3.35.1-11.92.33-12.15,0C317.83,194.06,322.71,193.39,326.27,192Z"/><path class="cls-8" d="M319.48,116.26c-.13,5.68,2.11,41.73,6.52,41.83s8.38-35.92,8.51-41.6-2.39-10.24-6.8-10.34S319.61,110.58,319.48,116.26Z"/><path class="cls-12" d="M332.1,150.61c.44,3.13.51,23.17-.19,33.35h-4c-2.16-9.88-4.46-29-4.89-32.07,0,0,0-.08,0-.12-2.4-10.62-4.55-31.45-4.45-35.64.13-5.68,4.77-10.08,9.18-10s6.93,4.66,6.8,10.34C334.43,120.06,331.89,149.13,332.1,150.61Z"/><path class="cls-13" d="M314.54,73.15h2.14a5.26,5.26,0,0,0,9.55,0h2a3.69,3.69,0,0,1,3.69,3.58c.15,5.21.49,15.25,1.09,24.32.54,8.21,2.78,15.85,1.25,18.09,0,0-20.79-1.72-24.39-5.86-3.11-3.57-1.21-10.67-.6-17.93s1.21-14.58,1.55-18.75A3.77,3.77,0,0,1,314.54,73.15Z"/><path class="cls-14" d="M329.54,85a22.06,22.06,0,0,0-2.9-11.83h1.55a3.69,3.69,0,0,1,3.69,3.58c.15,5.21.49,15.25,1.09,24.32.54,8.21,2.78,15.85,1.25,18.09,0,0-20.79-1.72-24.39-5.86a7,7,0,0,1-1.52-3.5C320.38,107.88,329,97.31,329.54,85Z"/><path class="cls-15" d="M326.41,60.21h.25a0,0,0,0,1,0,0v8.65a0,0,0,0,1,0,0h-3.75a0,0,0,0,1,0,0V63.7A3.49,3.49,0,0,1,326.41,60.21Z" transform="translate(627.85 197.97) rotate(-167.47)"/><polygon class="cls-5" points="318.76 73.15 325.65 73.15 323.66 66.28 318.96 66.86 318.76 73.15"/><path class="cls-3" d="M319,66.86l4.7-.58.93,3.2c-1.05,1.19-2.61,3-4.32,3a2.72,2.72,0,0,1-1.48-.44Z"/><path class="cls-5" d="M318.25,70.51h0a5.74,5.74,0,0,0,6.85-4.36l1.39-6.25-9.62-2.14a50,50,0,0,0-1.12,8.32C315.74,68.68,316.67,70.16,318.25,70.51Z"/><rect class="cls-15" x="324.55" y="62.2" width="1.85" height="0.84" transform="translate(629.6 194.41) rotate(-167.46)"/><path class="cls-5" d="M323.74,64.61c-.27,1.22.09,2.34.81,2.5s1.87-1.26,2.14-2.48a1.46,1.46,0,0,0-1.16-1.93C324.81,62.53,324,63.39,323.74,64.61Z"/><path class="cls-15" d="M315.64,60.19a5.53,5.53,0,0,1,.39-2.43h0a3.79,3.79,0,0,1,4.85-2.05,5.63,5.63,0,0,0,.63.18l3.25.72a3.62,3.62,0,0,1,2.75,4.32l-.17.76-1.92,1.12-.78,1.37-.13,0a1.2,1.2,0,0,1-.92-1.35,1.88,1.88,0,0,0-1.35-2.24l-2.88-.64c-1.75-.39-2.87.35-3.17,1.66L316,62.7Z"/><line class="cls-16" x1="324.84" y1="97.25" x2="372.29" y2="361.31"/><line class="cls-16" x1="332.84" y1="361.31" x2="285.38" y2="97.25"/><line class="cls-16" x1="288.52" y1="109.01" x2="327.09" y2="109.01"/><line class="cls-16" x1="291.09" y1="126.68" x2="330.19" y2="126.68"/><line class="cls-16" x1="294.65" y1="144.35" x2="333.41" y2="144.35"/><line class="cls-16" x1="298.1" y1="162.02" x2="336.62" y2="162.02"/><line class="cls-16" x1="300.19" y1="179.69" x2="339.16" y2="179.69"/><line class="cls-16" x1="302.89" y1="197.04" x2="342.4" y2="197.04"/><line class="cls-16" x1="306.85" y1="215.03" x2="345.76" y2="215.03"/><line class="cls-16" x1="310.03" y1="232.69" x2="349.04" y2="232.69"/><line class="cls-16" x1="313.17" y1="249.39" x2="352.18" y2="249.39"/><line class="cls-16" x1="315.83" y1="266.09" x2="354.85" y2="266.09"/><line class="cls-16" x1="318.9" y1="282.79" x2="357.92" y2="282.79"/><line class="cls-16" x1="321.88" y1="299.48" x2="360.89" y2="299.48"/><line class="cls-16" x1="324.78" y1="316.18" x2="363.8" y2="316.18"/><line class="cls-16" x1="328.16" y1="332.88" x2="367.17" y2="332.88"/><line class="cls-17" x1="285.38" y1="97.25" x2="237.52" y2="361.91"/><line class="cls-17" x1="276.98" y1="361.91" x2="324.84" y2="97.25"/><line class="cls-17" x1="321.69" y1="109.01" x2="283.24" y2="109.01"/><line class="cls-17" x1="319.13" y1="126.68" x2="280.02" y2="126.68"/><line class="cls-17" x1="315.57" y1="144.35" x2="276.81" y2="144.35"/><line class="cls-17" x1="312.12" y1="162.02" x2="273.59" y2="162.02"/><line class="cls-17" x1="309.35" y1="179.69" x2="270.38" y2="179.69"/><line class="cls-17" x1="306.73" y1="197.04" x2="267.22" y2="197.04"/><line class="cls-17" x1="302.85" y1="215.03" x2="263.94" y2="215.03"/><line class="cls-17" x1="300.19" y1="232.69" x2="261.17" y2="232.69"/><line class="cls-17" x1="297.19" y1="252.51" x2="258.17" y2="252.51"/><line class="cls-17" x1="292.65" y1="272.33" x2="253.63" y2="272.33"/><line class="cls-17" x1="289.26" y1="292.16" x2="250.24" y2="292.16"/><line class="cls-17" x1="286.06" y1="311.98" x2="247.05" y2="311.98"/><line class="cls-17" x1="281.91" y1="331.99" x2="242.89" y2="331.99"/><path class="cls-15" d="M325.35,57.91c.22,1.78-6.18,4-7.87,4.25a3.26,3.26,0,0,1-.8-6.45C318.37,55.5,325.13,56.13,325.35,57.91Z"/><path class="cls-18" d="M236.86,60.62A3.77,3.77,0,0,0,233.81,65l3.48,19.7,1.31-.23a7.64,7.64,0,1,1,1.53,8.63l-1.31.23,3.85,21.79a3.77,3.77,0,0,0,4.37,3.05l19.7-3.48-.24-1.35a7.64,7.64,0,1,1,8.63-1.53l.24,1.35,21.79-3.85a3.77,3.77,0,0,0,3.05-4.37l-8.86-50.12A3.77,3.77,0,0,0,287,51.75Z"/><path class="cls-5" d="M332.67,79.88a52,52,0,0,1-10.13,10c-13.33,9.72-27.6,10.71-39.24-.3a1.19,1.19,0,0,1,1.41-1.89l.05,0c7.59,4.38,14.38,6.18,22.94,2.58,11.22-4.83,19.17-16.46,18.34-15.35a4.13,4.13,0,0,1,6.63,4.94Z"/><path class="cls-4" d="M319.92,81.62a58.36,58.36,0,0,0,6.31-7.4s1.67-2,5.12-.54c2.75,1.15,2.19,4.4,2.19,4.4-.07.45-1,5.81-7.31,10.56C326.23,88.64,319.45,82,319.92,81.62Z"/><path class="cls-5" d="M285.55,88.21c-.91-1.06-1.15-4.79-1.66-4.79s-.43,1.29-.44,2a.22.22,0,0,1-.36.16c-1-.91-4-3.44-4.25-3.2s1.25,2.13,1.77,2.75a.05.05,0,0,1-.06.08c-.82-.41-3.48-1.72-3.54-1.16s2.26,2,3.16,2.56a.05.05,0,0,1,0,.09c-1-.3-3.62-1-3.68-.55s2.46,1.56,3.37,1.93a.05.05,0,0,1,0,.1c-.89-.07-3.2-.22-2.85.14a29.11,29.11,0,0,0,7.24,2.26C285.43,90.59,285.55,88.21,285.55,88.21Z"/><rect class="cls-18" x="68.65" y="151.28" width="263.72" height="160.46"/><rect class="cls-19" x="82.03" y="163.29" width="236.97" height="136.43"/><rect class="cls-20" x="97.46" y="197.62" width="60.72" height="87"/><rect class="cls-20" x="171.87" y="197.62" width="60.72" height="87"/><rect class="cls-20" x="246.29" y="197.62" width="60.72" height="87"/><rect class="cls-21" x="82.03" y="163.29" width="236.97" height="2.22"/><path class="cls-22" d="M45.36,335.32s-5.41,6.23-6.41,7.22a6.78,6.78,0,0,1-3.1,1.43,4.44,4.44,0,0,0-1.21.78,1.26,1.26,0,0,0-.45,1c.13,7,6.23,11.93,6.56,11.52.59-.74.14-2.79-1-4.15a5.31,5.31,0,0,1-.94-5h0a8.33,8.33,0,0,1,2.22-3.6l4.71-4.41Z"/><path class="cls-23" d="M33.18,363.89h88.45a1.3,1.3,0,0,0,1.3-1.3h0a1.3,1.3,0,0,0-1.3-1.3H33.18a1.3,1.3,0,0,0-1.3,1.3h0A1.3,1.3,0,0,0,33.18,363.89Z"/><path class="cls-22" d="M100.69,344.18l4.31,7.19a10.73,10.73,0,0,1,1.37,7.33h0a2.34,2.34,0,0,0,2.25,2.75c4.64.12,13.61.28,13.86-.14,1.32-2.15-4.36-3.11-8.81-4.62-3-1-6.7-9.15-9-15.55l-3.51,2.23A.93.93,0,0,0,100.69,344.18Z"/><path class="cls-24" d="M113.57,359.17a29.56,29.56,0,0,0,5.64-.79,1.17,1.17,0,0,1,.62,0c2.08.74,3.34,1.75,2.64,2.89-.28.46-10.83.22-15,.11a1.41,1.41,0,0,1-1.35-1.66l.27-1.55A28.92,28.92,0,0,0,113.57,359.17Z"/><path class="cls-25" d="M85.28,262.93c-4.76-1-10.45,2.95-11.67,9.07-.7,3.52-1.74,16.64-1.6,27.34a11.68,11.68,0,0,1-5.43,10.2A10,10,0,0,0,65,310.68c-2.35,2.14-13.27,15.84-20.12,25.13-.21,1.45,0,3.46.81,4.42,8.76-6.87,23.63-19.8,26.12-22.08a52.43,52.43,0,0,0,4.2-4.21c5.38-3.61,14.12-31.16,15.26-36.84C92.54,271,90,263.88,85.28,262.93Z"/><ellipse class="cls-26" cx="82.31" cy="223.2" rx="7.4" ry="9.55"/><path class="cls-26" d="M80.54,224.18a10.28,10.28,0,0,0-19.92-3.33,3.64,3.64,0,0,1-3.47,2.35,9,9,0,0,0-2,.19,9.14,9.14,0,0,0-3.33,16.53,4.86,4.86,0,0,1,2,3.42,12,12,0,1,0,20.8-9.62A10.28,10.28,0,0,0,80.54,224.18Z"/><path class="cls-27" d="M145.8,225.52a4.38,4.38,0,0,0-4.55,1.77h-1.11V217.05a3.4,3.4,0,0,0-3.4-3.4H125.29v-1.14a4.38,4.38,0,1,0-5,0v1.14H110a3.4,3.4,0,0,0-3.4,3.4v10.23h.76a4.38,4.38,0,1,1,0,5h-.76v11.45a3.4,3.4,0,0,0,3.4,3.4h10.23v-.79a4.38,4.38,0,1,1,5,0v.79h11.45a3.4,3.4,0,0,0,3.4-3.4V232.31h1.11a4.38,4.38,0,1,0,4.55-6.79Z"/><path class="cls-26" d="M82.31,210.51s4.17,2.62,3.66,6.15c0,0,2.23-1.58,2.73-7C89,205.9,82.31,210.51,82.31,210.51Z"/><path class="cls-22" d="M92.28,232a26.23,26.23,0,0,0,.25,5,19,19,0,0,0,1.18,4.63,9.86,9.86,0,0,0,.89,1.7c.3.44.53.58.49.63s-.1.18.29,0a3.1,3.1,0,0,0,.65-.35c.25-.2.51-.41.78-.67a19.14,19.14,0,0,0,3-4.16c.9-1.6,1.71-3.3,2.48-5.05,1.51-3.51,2.82-7.18,4-10.9h0a1.3,1.3,0,0,1,2.53.58,102.59,102.59,0,0,1-2.19,11.82c-.23,1-.54,2-.81,3s-.63,2-1,3a25,25,0,0,1-3.08,5.92,17.39,17.39,0,0,1-1.25,1.47A9.6,9.6,0,0,1,98.73,250l-.51.31c-.18.1-.4.18-.6.27a5.87,5.87,0,0,1-1.31.42,6.93,6.93,0,0,1-2.94,0A8.81,8.81,0,0,1,89,248.46a15.76,15.76,0,0,1-2.37-3.19A29.91,29.91,0,0,1,83.19,232h0a4.55,4.55,0,0,1,9.09-.42C92.29,231.75,92.29,231.9,92.28,232Z"/><path class="cls-22" d="M87,250.34c1.67-5,5-15.66,4.73-19.14a4.29,4.29,0,0,0-4.28-3.93H72.93a4.44,4.44,0,0,0-4.44,4.31c-.12,4.2,1.81,13.76,2.9,18.76Z"/><path class="cls-28" d="M84.12,273c1.67,6,15.23,48.83,10.55,50.13s-30.14-40.5-30.47-46.74c-.31-5.92,3.12-12.33,7.8-13.63S82.45,267,84.12,273Z"/><path class="cls-29" d="M105.08,342.84a.75.75,0,0,0,.12-.74c-3.63-10-8.49-22.75-9.53-25.15q-.18-.41-.38-.8C93.53,303.46,85.38,277.6,84.12,273c-1.67-6-7.44-11.54-12.12-10.24s-8.11,7.71-7.8,13.63c.2,3.91,10.25,21.74,18.89,34.22a22.13,22.13,0,0,1,3.52,8.79,28.1,28.1,0,0,0,1.68,5.93c1,2.36,7,11.38,12.37,19a.75.75,0,0,0,.68.32A5.52,5.52,0,0,0,105.08,342.84Z"/><path class="cls-30" d="M69.73,256.71a13.79,13.79,0,0,0,.66-6.57c-.73-5.14-2-14.82-1.89-18.93a4.05,4.05,0,0,1,4.06-3.94h2.15a5.78,5.78,0,0,0,10.5,0h2c-2.19,4.7-1.41,10.9,2.37,14.51-.7,2.48-1.29,5-1.73,7a13.68,13.68,0,0,0,.74,8.18c1.85,4.45,3.32,11.58,2.88,14.41-15.25,4.32-25.8-3.33-25.8-3.33Z"/><path class="cls-31" d="M87.87,248.78c.15-.68.32-1.43.5-2.2a40.53,40.53,0,0,1-6.46-2.19c-4.44-1.94-10.1-5.1-13.28-9.46.09,1.25.21,2.63.36,4.06,1.57,3.65,3.25,7.18,6.33,9.92a34,34,0,0,0,12.88,6.89A13.66,13.66,0,0,1,87.87,248.78Z"/><polygon class="cls-22" points="82.31 228.27 75.73 227.58 77.81 220.38 82.07 220.91 82.31 228.27"/><path class="cls-32" d="M82.07,220.9l-4.26-.53-.65,2.25c1,1.07,2.18,3.39,3.72,3.39a2.46,2.46,0,0,0,1.34-.39Z"/><path class="cls-22" d="M82.22,224.38c-1.44,0-3-.72-5.16-2.6a6.53,6.53,0,0,1-2.15-4.23v-7H85.74a20,20,0,0,1,0,7.44C85.17,220.73,83.35,224.39,82.22,224.38Z"/><path class="cls-22" d="M76.74,216.22c0,1.37-.66,2.49-1.47,2.49s-1.7-1.8-1.7-3.17a1.61,1.61,0,0,1,1.7-1.8C76.08,213.73,76.74,214.84,76.74,216.22Z"/><path class="cls-26" d="M73.57,211.36a4,4,0,0,1,4-4H81.2a6,6,0,0,0,2.95-.78,2.9,2.9,0,0,1,3.8.71c1,1.29,1.36,3-1,4.62-1.2.8-3-.09-4.12.3H79.35a2,2,0,0,0-2,2A1.31,1.31,0,0,1,76,215.53h-.14l-.52-1.65-1.8,2.43Z"/><path class="cls-22" d="M109.16,219.13s.76,3.74-.31,4.35-1.89.82-2.84-.69a13,13,0,0,1-1.56-5.63,9.93,9.93,0,0,1,1.32-4.49c1.1-.78.87,2.11.83,3.51s0,3,.73,2.82.56-2.86,1.27-3.31S109.16,219.13,109.16,219.13Z"/><path class="cls-22" d="M125.32,244.56s-3.76-.61-4.33.47-.75,1.92.8,2.81a13,13,0,0,0,5.69,1.34,9.93,9.93,0,0,0,4.43-1.49c.73-1.13-2.14-.79-3.53-.7s-3,.06-2.84-.62,2.84-.67,3.26-1.4S125.32,244.56,125.32,244.56Z"/><path class="cls-26" d="M84.93,210.39c-.36,1.61.17,2.49-5.09,5s-6.94,1.44-8.58,4.14c0,0,.72-4.47,3.63-6s8-2.54,9.57-6.09A6.82,6.82,0,0,1,84.93,210.39Z"/><path class="cls-22" d="M75.82,231.35a.51.51,0,0,0,0-.11l0,.08,0,.18c.07.16.13.32.19.49.15.34.31.7.51,1.06s.42.72.69,1.07.56.68.82,1a17.19,17.19,0,0,0,2,1.93l1.14.91,1.3.79a42.76,42.76,0,0,0,12.07,4.57c1.11.23,2.23.4,3.36.61a32,32,0,0,0,3.4.51l3.46.34,1.74.2,1.75.08,3.52.16c1.18.06,2.35.11,3.54.08,2.37,0,4.74,0,7.13,0h.07a1.3,1.3,0,0,1,.25,2.58c-2.37.5-4.75.93-7.15,1.39a35.94,35.94,0,0,1-3.62.51l-3.65.41-1.83.21-1.85.08-3.71.11a36.38,36.38,0,0,1-3.74-.08c-1.25-.07-2.51-.11-3.77-.2a43.87,43.87,0,0,1-15.1-4.13l-1.83-1c-.59-.38-1.17-.8-1.75-1.2a26,26,0,0,1-3.33-2.8c-.5-.56-1-1.14-1.46-1.72s-.88-1.27-1.3-1.91a21.22,21.22,0,0,1-1.1-2.14l-.44-1.19-.19-.69-.09-.35-.1-.55a4.54,4.54,0,1,1,9-1.32Z"/><path class="cls-26" d="M83.92,210.69s.2,5.41,4.93,8c0,0-2.08-4.09-1.94-6.77S83.6,208.84,83.92,210.69Z"/><path class="cls-24" d="M31.92,347a1,1,0,0,1,.4-1.19l1.91-1.17a.46.46,0,0,1,.7.35c.44,3.87,2.19,7.38,5.49,9.06.86,1.15,1,3.11.52,3.69A4.77,4.77,0,0,1,38,355.88C32.24,349.3,31.92,347,31.92,347Z"/><path class="cls-33" d="M381.24,326.77l-.65-.13a6.77,6.77,0,0,0-1.84-.05,5.64,5.64,0,0,1-3-.55L372,324.15a1.93,1.93,0,0,0-2.62,2.5h0a.61.61,0,0,0,.31.32l4.51,2a9,9,0,0,1,3.36,2.57l1.28,1.58C381.53,331.42,381.15,328.34,381.24,326.77Z"/><path class="cls-34" d="M379.59,339.9a20.55,20.55,0,0,0-1.26-7,8,8,0,0,0,.5-6.5,6.64,6.64,0,0,1,1.79.05c.72.15,2.39.41,3.08.54a1,1,0,0,1,.81,1s-2.16,15.62-2.64,15.33C381,342.87,379.43,341.75,379.59,339.9Z"/><rect class="cls-23" x="234.01" y="362.4" width="57.8" height="2.6" rx="1.3" ry="1.3"/><path class="cls-23" d="M325.41,365h60a1.44,1.44,0,0,0,1.44-1.44h0a1.44,1.44,0,0,0-1.44-1.44h-60a1.44,1.44,0,0,0-1.44,1.44h0A1.44,1.44,0,0,0,325.41,365Z"/><path class="cls-35" d="M298.07,311.31c-1.21,4.79-9.73,42.49-8,42.53,1.46,0,17-35.17,18.18-40s-.08-9.25-2.87-10S299.28,306.52,298.07,311.31Z"/><path class="cls-35" d="M316.73,273c-4.1,5-22.41,37.74-18.53,40.92S327.47,290,331.57,285s3.49-12.1-.39-15.28S320.83,268,316.73,273Z"/><path class="cls-33" d="M292.16,359.07c0-.23,0-.46,0-.66a6.77,6.77,0,0,0-.22-1.83,5.64,5.64,0,0,1,.11-3l1.3-4a1.93,1.93,0,0,0-2.85-2.23h0a.61.61,0,0,0-.27.36L289,352.41a9,9,0,0,1-2.05,3.7l-1.37,1.5C287.61,360,290.59,359.22,292.16,359.07Z"/><path class="cls-34" d="M278.93,359.36a20.56,20.56,0,0,0,6.69-2.27,8,8,0,0,0,6.5-.46,6.63,6.63,0,0,1,.21,1.78c0,.74-.06,2.43-.09,3.13a1,1,0,0,1-.89.95s-15.77.16-15.55-.36C276.2,361.22,277.08,359.48,278.93,359.36Z"/><path class="cls-36" d="M308.2,313.87c-.75,3-10,25.92-15,36.62-1.5-.57-2.34-.53-3.87-1,2-10,5.44-32.48,6.59-37.32.5-6.74,17-34.51,20.8-39.14,4.1-5,10.56-6.46,14.44-3.28s4.49,10.29.39,15.28C328.92,288.26,308.71,311.87,308.2,313.87Z"/><path class="cls-37" d="M331.18,269.75c-3.88-3.18-10.35-1.72-14.44,3.28-.33.4-.77,1-1.27,1.73,3.7,7.36,5,15.51,4.76,23.78,5.08-6.1,10.11-12,11.35-13.51C335.66,280,335.06,272.93,331.18,269.75Z"/><path class="cls-13" d="M328.07,314.07h0v0a4.92,4.92,0,0,1-.38-1c-2.73-8.1-2-37.5-1.07-43.47a15.28,15.28,0,0,1,1.34-4.38l8.71,4.74a33.17,33.17,0,0,0,7.72,6.44c.44.27-.15-.89.3-.65-1.26,7.74-2.89,23.08-3.51,30.76a4,4,0,0,0,2.46,4.05c8.12,3.41,22.6,10,30.67,14.4l-.27,4.57c-11.78-2.47-35.32-9.47-38.89-10.51C331.78,318.05,329.16,316.12,328.07,314.07Z"/><path class="cls-6" d="M320.88,239.81c0,.5-.05.73-.09,1.06s-.08.61-.13.9c-.09.59-.2,1.16-.33,1.72a27.05,27.05,0,0,1-4.12,9.47,23.57,23.57,0,0,1-10.67,8.48,26.73,26.73,0,0,1-6.35,1.67,34,34,0,0,1-6.3.32,51.73,51.73,0,0,1-12-2,1.35,1.35,0,0,1,.47-2.64h0a55.5,55.5,0,0,0,11.29-.12,26.51,26.51,0,0,0,10-3.17,16.71,16.71,0,0,0,6.55-6.84,18.78,18.78,0,0,0,1.66-4.46,21.38,21.38,0,0,0,.45-2.35c.05-.39.09-.78.12-1.16,0-.19,0-.38,0-.56a3,3,0,0,0,0-.39,4.7,4.7,0,1,1,9.4.1Z"/><path class="cls-38" d="M306.54,246.6c.8-1.73,3.93-8.48,4.31-10.12l0-.08q0-.2.11-.39a4.7,4.7,0,1,1,8.93,3,58.76,58.76,0,0,1-2.5,6.27c-.64,1.35-1.34,2.67-2.06,4C314.55,248.59,306.54,246.61,306.54,246.6Z"/><path class="cls-33" d="M316.93,278.71c3.89,3.21,20.14,2.56,26.17,2.2a2.57,2.57,0,0,0,2.41-3c-.64-3.82-3.3-10.41-4.9-17.24-2.3-9.85-4.5-20.78-5.65-26.69a4.59,4.59,0,0,0-5.26-3.65l-14.79,2.45a4.43,4.43,0,0,0-3.7,4.74c.39,4.77,1.07,13.05,1.73,21.17S312.77,275.28,316.93,278.71Z"/><path class="cls-39" d="M314.76,232.83l2.4-.4a6,6,0,0,0,10.71-1.77l2.19-.36a4.19,4.19,0,0,1,4.81,3.33c1.13,5.81,3.37,17,5.73,27.07,1.62,6.95,4.29,13.33,4.89,17.21a2.62,2.62,0,0,1-2.44,3c-6.06.36-22.24,1-26.13-2.2-4.15-3.43-3.33-11.75-4-20s-1.35-16.57-1.74-21.32A4.28,4.28,0,0,1,314.76,232.83Z"/><path class="cls-40" d="M325.15,214.53h.29a0,0,0,0,1,0,0v9.84a0,0,0,0,1,0,0h-4.26a0,0,0,0,1,0,0V218.5A4,4,0,0,1,325.15,214.53Z" transform="translate(694.61 341.17) rotate(163.98)"/><polygon class="cls-33" points="319.3 232.84 326.43 232.32 326.68 231.29 322.5 223.79 317.55 225.9 319.3 232.84"/><path class="cls-41" d="M317.55,225.9l5-2.11,1.68,3c-.78,1.63-1.72,3.43-3.59,4a3.36,3.36,0,0,1-1.83,0Z"/><path class="cls-33" d="M320,229h0a6.53,6.53,0,0,0,4.47-8.08l-2-7L311.73,217a56.85,56.85,0,0,0,3.41,8.91C316.52,228.5,318.26,229.47,320,229Z"/><rect class="cls-40" x="321.9" y="216.69" width="2.1" height="0.95" transform="translate(693.28 336.85) rotate(163.99)"/><path class="cls-33" d="M322.29,220.09c.39,1.36,1.36,2.28,2.17,2.05s1.18-2.27.79-3.64a1.66,1.66,0,0,0-2.21-1.3C322.24,217.44,321.9,218.73,322.29,220.09Z"/><path class="cls-40" d="M311.81,220.08a6.29,6.29,0,0,1-.92-2.64s-.94-3.11.12-4.05,3.06-.71,4.34-.79a22.81,22.81,0,0,0,3.63-1,4.11,4.11,0,0,1,5.09,2.82l.24.85L323,217.37l0,1.79-.14,0a1.36,1.36,0,0,1-1.65-.85,2.14,2.14,0,0,0-2.57-1.5l-3.22.92c-2,.56-2.68,1.91-2.26,3.38l.46,1.21Z"/><path class="cls-42" d="M285,236.56l-.65-1.68a6.92,6.92,0,0,0,.83-6,7.12,7.12,0,0,0-9-4.37,6.93,6.93,0,0,0,.79,13.22l.65,1.68-18.27,7.14a3.09,3.09,0,0,0-1.76,4l7.07,18.1-1,.38a6.92,6.92,0,0,0-6-.83,7.12,7.12,0,0,0-4.37,9,6.93,6.93,0,0,0,13.22-.79l1-.38,7.07,18.1a3.09,3.09,0,0,0,4,1.76l43.61-17a3.09,3.09,0,0,0,1.76-4l-17-43.61a3.09,3.09,0,0,0-4-1.76Z"/><path class="cls-33" d="M336.82,234.62c.62,11.7-5.93,25.59-19.73,29-11,2.71-22.76-.32-33.17-4.76a1.35,1.35,0,0,1,.81-2.56h0c14.48,3.07,33,5.08,39.83-8.11a27.9,27.9,0,0,0,2.86-13.23C327.36,228.85,336.49,228.55,336.82,234.62Z"/><path class="cls-38" d="M326,243.92a56.35,56.35,0,0,0,1.25-9.05V235l.79-3.16s1.51-2.53,5.64-1.55c3.3.78,3.28,4.53,3.28,4.53,0,.52,1.2,4.27-2,12.4C335,247.24,325.87,244.62,326,243.92Z"/><path class="cls-33" d="M285.52,256.47c-.91-1.06-1.15-4.79-1.66-4.79s-.43,1.29-.44,2a.22.22,0,0,1-.36.16c-1-.91-4-3.44-4.25-3.2s1.25,2.13,1.77,2.75a.05.05,0,0,1-.06.08c-.82-.41-3.48-1.72-3.54-1.16s2.26,2,3.16,2.56a.05.05,0,0,1,0,.09c-1-.3-3.62-1-3.68-.55s2.46,1.56,3.37,1.93a.05.05,0,0,1,0,.1c-.89-.07-3.2-.22-2.85.14a29.11,29.11,0,0,0,7.24,2.26C285.39,258.86,285.52,256.47,285.52,256.47Z"/><rect class="cls-43" x="178.02" y="205.08" width="47.79" height="11.2"/><rect class="cls-43" x="178.02" y="221.89" width="47.79" height="11.2"/><rect class="cls-43" x="178.02" y="238.69" width="47.79" height="11.2"/><rect class="cls-43" x="178.02" y="255.49" width="47.79" height="11.2"/><rect class="cls-43" x="97.37" y="175.96" width="209.84" height="12.32"/><rect class="cls-30" x="123.73" y="155.31" width="76" height="26.58" rx="5.88" ry="5.88"/><rect class="cls-30" x="181.05" y="178.78" width="6.11" height="6.11" transform="translate(182.5 -76.93) rotate(45)"/><rect class="cls-19" x="132.76" y="162.04" width="56.29" height="2.08"/><rect class="cls-19" x="132.76" y="167.57" width="56.29" height="2.08"/><rect class="cls-19" x="132.76" y="173.09" width="56.29" height="2.08"/><rect class="cls-44" x="180.64" y="262.89" width="6.11" height="6.11" transform="translate(449.64 82.25) rotate(90)"/><circle class="cls-27" cx="167.48" cy="282.8" r="23.97"/><circle class="cls-19" cx="158.31" cy="282.87" r="1.95"/><circle class="cls-19" cx="166.86" cy="282.87" r="1.95"/><circle class="cls-19" cx="175.4" cy="282.87" r="1.95"/></g></svg>