<svg id="Layer_1" data-name="Layer 1" xmlns="http://www.w3.org/2000/svg" viewBox="0 0 400 400"><defs><style>.cls-1{fill:#6896c5;}</style></defs><title>innovation</title><path class="cls-1" d="M264.55,306.08s0-.05,0-.08V156.4a74.81,74.81,0,0,0-8.4-34.57,2.05,2.05,0,1,0-3.64,1.9,69.71,69.71,0,0,1,7.93,32.67V306c-1.12,30.33.35,42.37,11.69,58.54a2.05,2.05,0,0,0,3.36-2.36C264.75,346.83,263.44,335.86,264.55,306.08Zm-2.05,0h0Z"/><path class="cls-1" d="M190,81.76a74.67,74.67,0,0,0-74.65,74.67,2.06,2.06,0,0,0,0,.43c2.67,12.56-7.24,32.54-16.18,48.53a6,6,0,0,0,5.23,9h14.35l-2.15,50.37c0,.05,0,.1,0,.15.29,9.38,3.59,16.23,9.81,20.37,4.71,3.14,10.69,4.35,16.88,4.35A63,63,0,0,0,165,285.4a2.05,2.05,0,0,0-1.47-3.84c-8.29,3.17-24.93,6.78-34.74.25-5-3.35-7.72-9.07-8-17L123,212.37a2.05,2.05,0,0,0-2.05-2.14h-16.5a1.85,1.85,0,0,1-1.61-.94,1.89,1.89,0,0,1,0-1.91c9.81-17.56,19.45-37.36,16.66-51.17A70.63,70.63,0,0,1,190,85.86a2.05,2.05,0,0,0,0-4.11Z"/><path class="cls-1" d="M161.64,231.58a2.05,2.05,0,0,0-2.79.79c-6.06,10.83-17,13.81-38.92,10.64a2.05,2.05,0,1,0-.59,4.06,106.3,106.3,0,0,0,15,1.24A46.08,46.08,0,0,0,146.19,247a25.11,25.11,0,0,0,16.24-12.59A2.05,2.05,0,0,0,161.64,231.58Z"/><path class="cls-1" d="M150.55,285.15a2.05,2.05,0,0,0-1.59,2.43c7,33.36.94,57.36-18.38,73.35a2.05,2.05,0,1,0,2.62,3.16,60.14,60.14,0,0,0,20.48-32.84c3.06-12.62,2.83-27.6-.69-44.51A2.05,2.05,0,0,0,150.55,285.15Z"/><path class="cls-1" d="M221.45,66.2a37.23,37.23,0,0,0-20.1,68,10.5,10.5,0,0,1,4.61,8.69v1.79a2.05,2.05,0,0,0,2.05,2.05h28.47a2.05,2.05,0,0,0,2.05-2.05v-1.78a10.46,10.46,0,0,1,4.62-8.67,37.21,37.21,0,0,0-21.71-68Zm19.41,64.62a14.56,14.56,0,0,0-6.43,11.8H210.07a14.6,14.6,0,0,0-6.41-11.83,33.15,33.15,0,1,1,37.2,0Z"/><path class="cls-1" d="M236.49,143a2.05,2.05,0,0,0-2.05,2.05v7.39H210.07v-7.39a2.05,2.05,0,1,0-4.11,0v9.44a2.05,2.05,0,0,0,2.05,2.05h28.47a2.05,2.05,0,0,0,2.05-2.05v-9.44A2.05,2.05,0,0,0,236.49,143Z"/><path class="cls-1" d="M236.49,152.34a2.05,2.05,0,0,0-2.05,2.05V160c0,2.34-5.58,4.31-12.18,4.31s-12.18-2-12.18-4.31v-5.61a2.05,2.05,0,1,0-4.11,0V160c0,1.64.75,4.7,5.74,6.68a29.52,29.52,0,0,0,10.54,1.74c8.11,0,16.29-2.6,16.29-8.42v-5.61A2.05,2.05,0,0,0,236.49,152.34Z"/><path class="cls-1" d="M228.11,119.15,222.31,125l-5.81-5.81a2.05,2.05,0,1,0-2.9,2.9l7.26,7.26a2.05,2.05,0,0,0,2.9,0l7.26-7.26a2.05,2.05,0,1,0-2.9-2.9Z"/><path class="cls-1" d="M222.26,125.79a2.05,2.05,0,0,0-2.05,2.05v15.06a2.05,2.05,0,1,0,4.11,0V127.84A2.05,2.05,0,0,0,222.26,125.79Z"/><path class="cls-1" d="M222.26,34.91A2.05,2.05,0,0,0,220.2,37V49.55a2.05,2.05,0,1,0,4.11,0V37A2.05,2.05,0,0,0,222.26,34.91Z"/><path class="cls-1" d="M173.94,106.76H161.62a2.05,2.05,0,1,0,0,4.11h12.32a2.05,2.05,0,1,0,0-4.11Z"/><path class="cls-1" d="M283.43,106.76H271.12a2.05,2.05,0,1,0,0,4.11h12.32a2.05,2.05,0,1,0,0-4.11Z"/><path class="cls-1" d="M270,56.57l-8.77,8.77a2.05,2.05,0,1,0,2.9,2.9l8.77-8.77a2.05,2.05,0,0,0-2.9-2.9Z"/><path class="cls-1" d="M174.62,56.57a2.05,2.05,0,1,0-2.9,2.9l8.77,8.77a2.05,2.05,0,1,0,2.9-2.9Z"/><path class="cls-1" d="M263,195a2.05,2.05,0,0,0,0,4.11,17.13,17.13,0,0,1,0,34.26,2.05,2.05,0,0,0,0,4.11A21.23,21.23,0,0,0,263,195Z"/><path class="cls-1" d="M308.61,202.88a2.05,2.05,0,0,0-1.51,2.48A45.75,45.75,0,0,1,262.7,262a2.05,2.05,0,0,0,0,4.11,49.86,49.86,0,0,0,48.39-61.68A2.05,2.05,0,0,0,308.61,202.88Z"/><path class="cls-1" d="M291.48,175.58a49.49,49.49,0,0,0-28.78-9.15,2.05,2.05,0,0,0,0,4.11,45.4,45.4,0,0,1,26.4,8.39,2.05,2.05,0,0,0,2.37-3.35Z"/><path class="cls-1" d="M291.37,281.58a70.21,70.21,0,0,1-26.82,5.27,2.05,2.05,0,0,0,0,4.11,74.29,74.29,0,0,0,28.38-5.58,2.05,2.05,0,0,0-1.56-3.8Z"/><path class="cls-1" d="M336.4,205.21a2.05,2.05,0,0,0-1.79,2.29,71.58,71.58,0,0,1,.54,8.75,70.72,70.72,0,0,1-16,44.81,2.05,2.05,0,0,0,3.17,2.61,74.84,74.84,0,0,0,17-47.42,75.73,75.73,0,0,0-.57-9.26A2.05,2.05,0,0,0,336.4,205.21Z"/><path class="cls-1" d="M299.69,150.3a74.85,74.85,0,0,0-35.14-8.77,2.05,2.05,0,0,0,0,4.11,70.73,70.73,0,0,1,33.21,8.28,2.05,2.05,0,0,0,1.93-3.62Z"/><path class="cls-1" d="M373.82,150.28H303.68a14,14,0,0,0-14.23,14v26.35a13.92,13.92,0,0,0,4.17,10,14.24,14.24,0,0,0,10.05,4.08h30.88L343,226.69a2.05,2.05,0,0,0,3.4.67l21.48-22.61h5.9A14,14,0,0,0,388,190.67V164.32A14,14,0,0,0,373.82,150.28Zm10.07,40.39a9.92,9.92,0,0,1-10.07,10H367a2.05,2.05,0,0,0-1.49.64l-19.85,20.9L337.89,202a2.05,2.05,0,0,0-1.92-1.31H303.68a9.94,9.94,0,0,1-10.12-10V164.32a9.92,9.92,0,0,1,10.12-9.93h70.14a9.9,9.9,0,0,1,10.07,9.93Z"/><path class="cls-1" d="M310.32,168.2a9.3,9.3,0,1,0,9.3,9.3A9.31,9.31,0,0,0,310.32,168.2Zm0,14.5a5.2,5.2,0,1,1,5.2-5.2A5.2,5.2,0,0,1,310.32,182.69Z"/><path class="cls-1" d="M338.8,168.2a9.3,9.3,0,1,0,9.3,9.3A9.31,9.31,0,0,0,338.8,168.2Zm0,14.5a5.2,5.2,0,1,1,5.2-5.2A5.2,5.2,0,0,1,338.8,182.69Z"/><path class="cls-1" d="M367.29,168.2a9.3,9.3,0,1,0,9.3,9.3A9.31,9.31,0,0,0,367.29,168.2Zm0,14.5a5.2,5.2,0,1,1,5.2-5.2A5.2,5.2,0,0,1,367.29,182.69Z"/><path class="cls-1" d="M357.48,262H294.25a2.05,2.05,0,0,0-2.05,2.05v79.93a2.05,2.05,0,0,0,2.05,2.05h63.23a2.05,2.05,0,0,0,2.05-2.05V264A2.05,2.05,0,0,0,357.48,262Zm-2.05,79.93H296.3V266.07h59.13Z"/><path class="cls-1" d="M357.07,275.93H295.21a2.05,2.05,0,0,0,0,4.11h61.86a2.05,2.05,0,0,0,0-4.11Z"/><path class="cls-1" d="M337.22,262.1a2.05,2.05,0,0,0-2.05,2.05v13.41a2.05,2.05,0,0,0,4.11,0V264.16A2.05,2.05,0,0,0,337.22,262.1Z"/><path class="cls-1" d="M343.11,292.35H308.62a2.05,2.05,0,0,0,0,4.11h34.49a2.05,2.05,0,0,0,0-4.11Z"/><path class="cls-1" d="M343.11,308.5H308.62a2.05,2.05,0,0,0,0,4.11h34.49a2.05,2.05,0,0,0,0-4.11Z"/><path class="cls-1" d="M343.11,325.47H308.62a2.05,2.05,0,1,0,0,4.11h34.49a2.05,2.05,0,1,0,0-4.11Z"/><path class="cls-1" d="M61.4,240.2a41.19,41.19,0,1,0,41.19,41.19A41.24,41.24,0,0,0,61.4,240.2Zm0,78.28A37.09,37.09,0,1,1,98.49,281.4,37.13,37.13,0,0,1,61.4,318.48Z"/><path class="cls-1" d="M79.05,279.71,54,262.39a2.05,2.05,0,0,0-3.22,1.69v34.64A2.05,2.05,0,0,0,54,300.41l25.07-17.32a2.05,2.05,0,0,0,0-3.38ZM54.87,294.8V268L74.27,281.4Z"/><path class="cls-1" d="M222.31,268.64a16.06,16.06,0,1,0,16.06,16.06A16.08,16.08,0,0,0,222.31,268.64Zm0,28a12,12,0,1,1,12-12A12,12,0,0,1,222.31,296.66Z"/><path class="cls-1" d="M222.26,165.2a2.05,2.05,0,0,0-2.05,2.05V170a2.05,2.05,0,0,0,4.11,0v-2.74A2.05,2.05,0,0,0,222.26,165.2Z"/><path class="cls-1" d="M222.26,231.17a2.05,2.05,0,0,0-2.05,2.05V239a2.05,2.05,0,0,0,4.11,0v-5.75A2.05,2.05,0,0,0,222.26,231.17Z"/><path class="cls-1" d="M222.26,248.42a2.05,2.05,0,0,0-2.05,2.05v5.75a2.05,2.05,0,0,0,4.11,0v-5.75A2.05,2.05,0,0,0,222.26,248.42Z"/><path class="cls-1" d="M222.26,179.44a2.05,2.05,0,0,0-2.05,2.05v5.75a2.05,2.05,0,0,0,4.11,0v-5.75A2.05,2.05,0,0,0,222.26,179.44Z"/><path class="cls-1" d="M222.26,196.68a2.05,2.05,0,0,0-2.05,2.05v5.75a2.05,2.05,0,0,0,4.11,0v-5.75A2.05,2.05,0,0,0,222.26,196.68Z"/><path class="cls-1" d="M222.26,213.93A2.05,2.05,0,0,0,220.2,216v5.75a2.05,2.05,0,0,0,4.11,0V216A2.05,2.05,0,0,0,222.26,213.93Z"/><path class="cls-1" d="M222.26,265.94A2.05,2.05,0,0,0,220.2,268v2.74a2.05,2.05,0,1,0,4.11,0V268A2.05,2.05,0,0,0,222.26,265.94Z"/><path class="cls-1" d="M222.26,296.87a2.05,2.05,0,0,0-2.05,2.05v2.74a2.05,2.05,0,0,0,4.11,0v-2.74A2.05,2.05,0,0,0,222.26,296.87Z"/><path class="cls-1" d="M222.26,341.21a2.05,2.05,0,0,0-2.05,2.05v5.2a2.05,2.05,0,1,0,4.11,0v-5.2A2.05,2.05,0,0,0,222.26,341.21Z"/><path class="cls-1" d="M222.26,325.61a2.05,2.05,0,0,0-2.05,2.05v5.2a2.05,2.05,0,0,0,4.11,0v-5.2A2.05,2.05,0,0,0,222.26,325.61Z"/><path class="cls-1" d="M222.26,310a2.05,2.05,0,0,0-2.05,2.05v5.2a2.05,2.05,0,1,0,4.11,0v-5.2A2.05,2.05,0,0,0,222.26,310Z"/><path class="cls-1" d="M222.26,357.09a2.05,2.05,0,0,0-2.05,2.05v2.74a2.05,2.05,0,1,0,4.11,0v-2.74A2.05,2.05,0,0,0,222.26,357.09Z"/><path class="cls-1" d="M211,295.92l-1.94,1.94a2.05,2.05,0,1,0,2.9,2.9l1.94-1.94a2.05,2.05,0,1,0-2.9-2.9Z"/><path class="cls-1" d="M180.47,326.49l-3.58,3.58a2.05,2.05,0,1,0,2.9,2.9l3.58-3.58a2.05,2.05,0,1,0-2.9-2.9Z"/><path class="cls-1" d="M169.73,337.23l-3.58,3.58a2.05,2.05,0,1,0,2.9,2.9l3.58-3.58a2.05,2.05,0,0,0-2.9-2.9Z"/><path class="cls-1" d="M201.94,305l-3.58,3.58a2.05,2.05,0,1,0,2.9,2.9l3.58-3.58a2.05,2.05,0,1,0-2.9-2.9Z"/><path class="cls-1" d="M191.2,315.75l-3.58,3.58a2.05,2.05,0,1,0,2.9,2.9l3.58-3.58a2.05,2.05,0,0,0-2.9-2.9Z"/><path class="cls-1" d="M159,348l-1.94,1.94a2.05,2.05,0,1,0,2.9,2.9l1.94-1.94A2.05,2.05,0,0,0,159,348Z"/><path class="cls-1" d="M233.59,295.92a2.05,2.05,0,1,0-2.9,2.9l1.94,1.94a2.05,2.05,0,0,0,2.9-2.9Z"/><path class="cls-1" d="M241.75,304.09a2.05,2.05,0,0,0-2.9,2.9l3.12,3.12a2.05,2.05,0,0,0,2.9-2.9Z"/><path class="cls-1" d="M251.1,313.44a2.05,2.05,0,1,0-2.9,2.9l3.12,3.12a2.05,2.05,0,1,0,2.9-2.9Z"/><path class="cls-1" d="M260.45,322.78a2.05,2.05,0,0,0-2.9,2.9l1.94,1.94a2.05,2.05,0,1,0,2.9-2.9Z"/><path class="cls-1" d="M111.12,124.28h-7.54a26.72,26.72,0,0,0-2.59-6.15l5.29-5.3a2.05,2.05,0,0,0,0-2.9l-8.42-8.42a2.05,2.05,0,0,0-2.9,0l-5.38,5.35a28.69,28.69,0,0,0-6-2.45V96.5a2.05,2.05,0,0,0-2.05-2.05h-12a2.05,2.05,0,0,0-2.05,2.05v7.91a28.74,28.74,0,0,0-6,2.55l-5.4-5.39a2,2,0,0,0-1.45-.55h0a2,2,0,0,0-1.45.55l-8.41,8.37a2.05,2.05,0,0,0,0,2.9l5.42,5.41a29,29,0,0,0-2.54,6H40.22a2.05,2.05,0,0,0-2.05,2.05V138.1a2.05,2.05,0,0,0,2.05,2.05h7.33a26.87,26.87,0,0,0,2.53,6.18l-5.31,5.34a2.07,2.07,0,0,0,0,2.91L53.19,163a2.1,2.1,0,0,0,1.45.65h0A2.1,2.1,0,0,0,56.1,163l5.19-5.27a29.82,29.82,0,0,0,6.18,2.63v7.54A2.05,2.05,0,0,0,69.51,170h12a2.05,2.05,0,0,0,2.05-2.05v-7.52a30,30,0,0,0,6.2-2.57L95,163.06a2.09,2.09,0,0,0,1.45.64h0a2.09,2.09,0,0,0,1.45-.64l8.41-8.46a2.05,2.05,0,0,0,0-2.89l-5.22-5.32a26.62,26.62,0,0,0,2.55-6.23h7.48a2.05,2.05,0,0,0,2.05-2.05V126.33A2.05,2.05,0,0,0,111.12,124.28Zm-2.05,11.77h-7a2.05,2.05,0,0,0-2,1.64,23.09,23.09,0,0,1-3.23,7.91,2.05,2.05,0,0,0,.27,2.54l4.91,5-5.52,5.53-4.85-4.86a2.05,2.05,0,0,0-2.56-.28,25.75,25.75,0,0,1-7.93,3.32,2.05,2.05,0,0,0-1.59,2v7.05H71.57v-7.07a2.05,2.05,0,0,0-1.58-2,25.47,25.47,0,0,1-7.9-3.37,2.05,2.05,0,0,0-2.57.28l-4.87,4.91-5.52-5.53,5-5a2.05,2.05,0,0,0,.29-2.54,23.29,23.29,0,0,1-3.21-7.88,2.05,2.05,0,0,0-2-1.64h-6.9v-7.66h6.95a2.05,2.05,0,0,0,2-1.59A25,25,0,0,1,54.49,119a2.05,2.05,0,0,0-.28-2.56l-5.1-5.09,5.5-5.51,5.07,5.1a2.05,2.05,0,0,0,2.56.28A24.59,24.59,0,0,1,70,108a2.05,2.05,0,0,0,1.6-2V98.55H79.5V106a2.05,2.05,0,0,0,1.6,2,24.63,24.63,0,0,1,7.71,3.17,2.05,2.05,0,0,0,2.54-.28l5.05-5,5.52,5.53-5,5a2.05,2.05,0,0,0-.28,2.56,22.86,22.86,0,0,1,3.29,7.84,2.05,2.05,0,0,0,2,1.62h7.09Z"/><path class="cls-1" d="M75.63,121.25a11.1,11.1,0,1,0,11.1,11.1A11.12,11.12,0,0,0,75.63,121.25Zm0,18.1a7,7,0,1,1,7-7A7,7,0,0,1,75.63,139.35Z"/><path class="cls-1" d="M64.86,70.85c-1.85.32-3.71.73-5.52,1.22a2.05,2.05,0,1,0,1.07,4c1.69-.46,3.43-.84,5.16-1.14a2.05,2.05,0,0,0-.7-4Z"/><path class="cls-1" d="M38,176.88c-1.34-1.13-2.64-2.34-3.88-3.59a2.05,2.05,0,0,0-2.92,2.88c1.32,1.34,2.71,2.63,4.15,3.85A2.05,2.05,0,1,0,38,176.88Z"/><path class="cls-1" d="M48.73,76c-1.69.81-3.37,1.71-5,2.67a2.05,2.05,0,1,0,2.1,3.53c1.51-.9,3.08-1.74,4.66-2.49A2.05,2.05,0,1,0,48.73,76Z"/><path class="cls-1" d="M51.31,185.38c-1.59-.73-3.18-1.55-4.7-2.42a2.05,2.05,0,1,0-2,3.56c1.63.94,3.32,1.81,5,2.59a2.05,2.05,0,0,0,1.71-3.73Z"/><path class="cls-1" d="M34.6,85.31c-1.42,1.24-2.79,2.55-4.09,3.91a2.05,2.05,0,0,0,3,2.84c1.21-1.27,2.5-2.5,3.82-3.65a2.05,2.05,0,0,0-2.7-3.09Z"/><path class="cls-1" d="M26.31,97.47a2.05,2.05,0,0,0-2.84.59c-1,1.57-2,3.21-2.9,4.86a2.05,2.05,0,1,0,3.62,1.94c.83-1.55,1.74-3.07,2.7-4.54A2.05,2.05,0,0,0,26.31,97.47Z"/><path class="cls-1" d="M24.61,160.63a2.05,2.05,0,0,0-3.59,2c.91,1.64,1.91,3.26,3,4.82a2.05,2.05,0,1,0,3.39-2.31C26.4,163.68,25.47,162.16,24.61,160.63Z"/><path class="cls-1" d="M17.31,132.35c0-.73,0-1.47,0-2.2a2.05,2.05,0,0,0-4.1-.15c0,.78,0,1.57,0,2.35,0,1.1,0,2.21.09,3.31a2.05,2.05,0,0,0,2,1.95h.11a2.05,2.05,0,0,0,1.94-2.16C17.34,134.42,17.31,133.38,17.31,132.35Z"/><path class="cls-1" d="M18.89,145.9a2.05,2.05,0,1,0-4,.95c.43,1.83,1,3.66,1.56,5.44A2.05,2.05,0,1,0,20.35,151C19.79,149.31,19.3,147.6,18.89,145.9Z"/><path class="cls-1" d="M18.74,112a2.05,2.05,0,0,0-2.58,1.33c-.57,1.79-1.07,3.63-1.47,5.46a2.05,2.05,0,1,0,4,.89c.38-1.71.84-3.43,1.38-5.1A2.05,2.05,0,0,0,18.74,112Z"/><path class="cls-1" d="M66.45,190c-1.73-.27-3.48-.63-5.18-1.06a2.05,2.05,0,1,0-1,4c1.82.46,3.69.84,5.54,1.14l.32,0a2.05,2.05,0,0,0,.32-4.08Z"/><path class="cls-1" d="M121.44,89.94a2.05,2.05,0,0,0-3,2.79c1.19,1.29,2.34,2.65,3.41,4a2.05,2.05,0,0,0,3.25-2.51C123.95,92.77,122.72,91.32,121.44,89.94Z"/><path class="cls-1" d="M113,82.37c-1.5-1.13-3.08-2.2-4.68-3.19a2.05,2.05,0,1,0-2.16,3.49c1.49.92,3,1.92,4.37,3A2.05,2.05,0,0,0,113,82.37Z"/><path class="cls-1" d="M131.16,103.79a2.05,2.05,0,1,0-3.65,1.88c.8,1.56,1.55,3.18,2.2,4.8a2.05,2.05,0,0,0,3.81-1.54C132.82,107.2,132,105.47,131.16,103.79Z"/><path class="cls-1" d="M111.28,178.51c-1.39,1.07-2.84,2.1-4.32,3a2.05,2.05,0,1,0,2.21,3.46c1.58-1,3.14-2.11,4.63-3.26a2.05,2.05,0,0,0-2.51-3.25Z"/><path class="cls-1" d="M81.77,70.16c-1.86-.18-3.77-.36-5.65-.36h0a2.11,2.11,0,0,0,0,4.23c1.76,0,3.54.11,5.28.28h.2a2.09,2.09,0,0,0,.2-4.16Z"/><path class="cls-1" d="M82.26,190.3c-1.74.2-3.51.32-5.27.36a2.05,2.05,0,0,0,0,4.11h0c1.88,0,3.78-.17,5.64-.38a2.05,2.05,0,0,0-.46-4.08Z"/><path class="cls-1" d="M98.24,74.15c-1.75-.68-3.56-1.29-5.37-1.81a2.05,2.05,0,1,0-1.13,3.95c1.69.48,3.37,1.05,5,1.69a2.05,2.05,0,1,0,1.49-3.83Z"/><path class="cls-1" d="M97.58,186.4c-1.63.66-3.3,1.25-5,1.76a2.05,2.05,0,1,0,1.19,3.93c1.8-.55,3.59-1.18,5.33-1.89a2.05,2.05,0,1,0-1.55-3.8Z"/></svg>