<svg id="Capa_1" data-name="Capa 1" xmlns="http://www.w3.org/2000/svg" viewBox="0 0 513.1 437.1"><defs><style>.cls-1{fill:#cccccc;}.cls-2{fill:#ff6265;}</style></defs><title>strategy</title><path class="cls-1" d="M453.57,134.5A46.4,46.4,0,1,0,407.06,88,46.6,46.6,0,0,0,453.57,134.5Zm0-24a22.4,22.4,0,1,1,22.54-22.36A22.56,22.56,0,0,1,453.62,110.5Z"/><path class="cls-1" d="M59.51,314.52A46.4,46.4,0,1,0,106,361,46.54,46.54,0,0,0,59.51,314.52Zm0,24a22.4,22.4,0,1,1-22.64,22.35A22.47,22.47,0,0,1,59.46,338.52Z"/><path class="cls-1" d="M318.39,271.74l-25,25a12.21,12.21,0,0,0-3.52,8.49,12,12,0,0,0,20.48,8.54l25-25,25,25a12,12,0,0,0,17-17l-25-25,25-25a12,12,0,0,0-17-17l-25,25-25-25a12,12,0,0,0-17,0,12.21,12.21,0,0,0-3.52,8.49,12,12,0,0,0,3.48,8.51Z"/><path class="cls-1" d="M168.34,45.54l-25,25-25-25a12,12,0,0,0-17,0,12.21,12.21,0,0,0-3.52,8.49,12,12,0,0,0,3.48,8.51l25,25-25,25a12.21,12.21,0,0,0-3.52,8.49,12,12,0,0,0,20.48,8.54l25-25,25,25a12,12,0,1,0,17-17l-25-25,25-25a12,12,0,0,0-17-17Z"/><path class="cls-1" d="M106.16,187.61l-25,25-25-25a12,12,0,0,0-17,0A12.21,12.21,0,0,0,35.65,196a12,12,0,0,0,3.48,8.51l25,25-25,25A12.21,12.21,0,0,0,35.51,263,12,12,0,0,0,56,271.51l25-25,25,25a12,12,0,0,0,17-17l-25-25,25-25a12,12,0,0,0,0-17A12.2,12.2,0,0,0,106.16,187.61Z"/><path class="cls-1" d="M225.18,277.55a12,12,0,1,0-12-12A12,12,0,0,0,225.18,277.55Z"/><path class="cls-1" d="M194.22,357.79a12,12,0,1,0-16.59-3.43A11.86,11.86,0,0,0,194.22,357.79Z"/><path class="cls-1" d="M222.94,301a11.94,11.94,0,0,0-15.81,6.07,12.28,12.28,0,0,0-1,4.9,12,12,0,1,0,16.82-11Z"/><circle class="cls-1" cx="225.3" cy="218.05" r="12" transform="translate(6.8 442.92) rotate(-89.89)"/><path class="cls-1" d="M134.2,369.57a12.07,12.07,0,1,0-3.48-8.51A12.12,12.12,0,0,0,134.2,369.57Z"/><path class="cls-2" d="M313.27,33a12.21,12.21,0,0,0-3.52,8.49A12,12,0,0,0,313.24,50l25.85,26L308,75.91c-52-.1-94.38,42.41-94.49,94.71a12,12,0,1,0,24,0c.08-39.1,31.64-70.84,70.44-70.76l31,.06-26,25.85a12,12,0,1,0,17,17l46.49-46.31a12,12,0,0,0,0-17L330.17,33.06A11.89,11.89,0,0,0,313.27,33Z"/></svg>