<svg id="Layer_1" data-name="Layer 1" xmlns="http://www.w3.org/2000/svg" viewBox="0 0 100 100"><defs><style>.cls-1{fill:#fff;}</style></defs><title>about</title><path class="cls-1" d="M49.78,4A44.16,44.16,0,0,0,17.33,78.12L14.87,94a1.74,1.74,0,0,0,1.72,2,1.7,1.7,0,0,0,.79-.19l14.24-7.38a43.69,43.69,0,0,0,18.16,3.9A44.16,44.16,0,0,0,49.78,4Zm0,84.85a40.33,40.33,0,0,1-17.45-3.92,1.73,1.73,0,0,0-1.55,0l-12,6.19L20.9,77.81a1.75,1.75,0,0,0-.47-1.47A40.68,40.68,0,1,1,49.78,88.85Z"/><path class="cls-1" d="M49.78,16.71a9.2,9.2,0,1,0,9.2,9.2A9.2,9.2,0,0,0,49.78,16.71Zm0,14.92a5.73,5.73,0,1,1,5.72-5.72A5.73,5.73,0,0,1,49.78,31.63Z"/><path class="cls-1" d="M60,68.28H58V39.78A1.74,1.74,0,0,0,56.26,38H39.58a1.74,1.74,0,0,0-1.74,1.73v5.78a1.74,1.74,0,0,0,1.74,1.74h2v21h-2A1.74,1.74,0,0,0,37.84,70V75.8a1.73,1.73,0,0,0,1.74,1.73H60a1.72,1.72,0,0,0,1.73-1.73V70A1.73,1.73,0,0,0,60,68.28Zm-1.74,5.78H41.32v-2.3h2A1.73,1.73,0,0,0,45,70V45.56a1.74,1.74,0,0,0-1.73-1.74h-2v-2.3h13.2V70a1.74,1.74,0,0,0,1.74,1.74h2Z"/></svg>