<svg xmlns="http://www.w3.org/2000/svg" xmlns:xlink="http://www.w3.org/1999/xlink" viewBox="0 0 100 100"><defs><style>.cls-1{fill:url(#linear-gradient);}.cls-2{fill:url(#linear-gradient-2);}.cls-3{fill:url(#linear-gradient-3);}.cls-4{fill:url(#linear-gradient-4);}</style><linearGradient id="linear-gradient" x1="115.75" y1="-18.96" x2="-9.75" y2="100.54" gradientUnits="userSpaceOnUse"><stop offset="0" stop-color="#6896c5"/><stop offset="1" stop-color="#d13852"/></linearGradient><linearGradient id="linear-gradient-2" x1="143.09" y1="9.75" x2="17.59" y2="129.25" xlink:href="#linear-gradient"/><linearGradient id="linear-gradient-3" x1="129.42" y1="-4.6" x2="3.92" y2="114.9" xlink:href="#linear-gradient"/><linearGradient id="linear-gradient-4" x1="107.77" y1="-27.35" x2="-17.73" y2="92.15" xlink:href="#linear-gradient"/></defs><title>Swifta website icons</title><g id="Layer_6" data-name="Layer 6"><g id="surface1"><path class="cls-1" d="M26,55.07H7.25a4.69,4.69,0,0,0-4.69,4.69V91.06a4.69,4.69,0,0,0,4.69,4.69H26a4.69,4.69,0,0,0,4.69-4.69V59.76A4.69,4.69,0,0,0,26,55.07Zm1.56,36A1.56,1.56,0,0,1,26,92.62H7.25a1.56,1.56,0,0,1-1.56-1.56V59.76A1.56,1.56,0,0,1,7.25,58.2H26a1.56,1.56,0,0,1,1.56,1.56Z"/><path class="cls-2" d="M91.75,39.42H73a4.69,4.69,0,0,0-4.69,4.69V91.06A4.69,4.69,0,0,0,73,95.75H91.75a4.69,4.69,0,0,0,4.69-4.69V44.12A4.69,4.69,0,0,0,91.75,39.42Zm1.56,51.63a1.56,1.56,0,0,1-1.56,1.56H73a1.56,1.56,0,0,1-1.56-1.56V44.12A1.56,1.56,0,0,1,73,42.55H91.75a1.56,1.56,0,0,1,1.56,1.56Z"/><path class="cls-3" d="M58.89,47.25H40.11a4.69,4.69,0,0,0-4.69,4.69V91.06a4.69,4.69,0,0,0,4.69,4.69H58.89a4.69,4.69,0,0,0,4.69-4.69V51.94A4.69,4.69,0,0,0,58.89,47.25Zm1.56,43.81a1.56,1.56,0,0,1-1.56,1.56H40.11a1.56,1.56,0,0,1-1.56-1.56V51.94a1.56,1.56,0,0,1,1.56-1.56H58.89a1.56,1.56,0,0,1,1.56,1.56Z"/><path class="cls-4" d="M60.91,37.4a1.57,1.57,0,0,0,2.21,0L90.18,10.34v2.48a1.56,1.56,0,0,0,3.13,0V6.56A1.56,1.56,0,0,0,93.2,6l-.07-.16a1.56,1.56,0,0,0-.22-.32,1.37,1.37,0,0,0-.52-.4l0,0A1.55,1.55,0,0,0,91.8,5H85.49a1.56,1.56,0,1,0,0,3.13H88l-26,26L48.26,20.32a1.57,1.57,0,0,0-2.21,0L29.94,36.43l-7.5-7.5a1.57,1.57,0,0,0-2.21,0L6.15,43a1.56,1.56,0,1,0,2.21,2.21l13-13,7.5,7.5a1.57,1.57,0,0,0,2.21,0L47.15,23.64Z"/></g></g></svg>