<svg xmlns="http://www.w3.org/2000/svg" xmlns:xlink="http://www.w3.org/1999/xlink" viewBox="0 0 100 100"><defs><style>.cls-1{fill:url(#linear-gradient);}.cls-2{fill:url(#linear-gradient-2);}.cls-3{fill:url(#linear-gradient-3);}.cls-4{fill:url(#linear-gradient-4);}.cls-5{fill:url(#linear-gradient-5);}</style><linearGradient id="linear-gradient" x1="112.49" y1="0.75" x2="-1.01" y2="109.25" gradientTransform="translate(50.9 -34.42) rotate(45)" gradientUnits="userSpaceOnUse"><stop offset="0" stop-color="#6896c5"/><stop offset="1" stop-color="#d13852"/></linearGradient><linearGradient id="linear-gradient-2" x1="107" y1="-5" x2="-6.5" y2="103.5" gradientTransform="matrix(1, 0, 0, 1, 0, 0)" xlink:href="#linear-gradient"/><linearGradient id="linear-gradient-3" x1="107.24" y1="-4.74" x2="-6.26" y2="103.76" gradientTransform="matrix(1, 0, 0, 1, 0, 0)" xlink:href="#linear-gradient"/><linearGradient id="linear-gradient-4" x1="103.62" y1="-8.54" x2="-9.88" y2="99.96" gradientTransform="matrix(1, 0, 0, 1, 0, 0)" xlink:href="#linear-gradient"/><linearGradient id="linear-gradient-5" x1="105" y1="-7.1" x2="-8.5" y2="101.4" gradientTransform="matrix(1, 0, 0, 1, 0, 0)" xlink:href="#linear-gradient"/></defs><title>Swifta website icons</title><g id="Layer_7" data-name="Layer 7"><circle class="cls-1" cx="67" cy="44.24" r="1.84" transform="translate(-11.66 60.33) rotate(-45)"/><path class="cls-2" d="M96.46,93.36,6.13,3A1.84,1.84,0,0,0,3,4.33V94.66A1.84,1.84,0,0,0,4.84,96.5H95.16a1.84,1.84,0,0,0,1.3-3.13ZM6.67,92.83V8.77L21.44,23.53l-3.9,3.89a1.84,1.84,0,1,0,2.6,2.6L24,26.13l7.79,7.79-3.89,3.89a1.84,1.84,0,1,0,2.6,2.6l3.9-3.89,7.79,7.79L38.32,48.2a1.84,1.84,0,0,0,2.6,2.6l3.89-3.89,7.79,7.79L48.7,58.59a1.84,1.84,0,0,0,2.6,2.6l3.89-3.89L63,65.08,59.09,69a1.84,1.84,0,1,0,2.6,2.6l3.89-3.89,7.79,7.79-3.89,3.9a1.84,1.84,0,0,0,2.6,2.6L76,78.06,90.73,92.83Z"/><path class="cls-3" d="M21.92,40.67A1.84,1.84,0,0,0,18.79,42v36.9a1.84,1.84,0,0,0,1.84,1.84h36.9a1.84,1.84,0,0,0,1.3-3.13ZM22.46,77V46.4L53.1,77Z"/><path class="cls-4" d="M60.5,40.35a1.84,1.84,0,1,0,2.6-2.6L55.31,30a1.84,1.84,0,0,0-2.6,2.6Z"/><path class="cls-5" d="M30.43,20.49a1.84,1.84,0,0,0,.44.72L82.4,72.74a5.5,5.5,0,0,0,7.79,0l5.19-5.19a5.52,5.52,0,0,0,0-7.79L43.85,8.23a1.83,1.83,0,0,0-.72-.44L27.56,2.59a1.84,1.84,0,0,0-2.32,2.32ZM92.79,62.36a1.84,1.84,0,0,1,0,2.6L87.6,70.15a1.84,1.84,0,0,1-2.6,0l-4-4,7.79-7.79Zm-6.57-6.57-7.79,7.79L75.83,61l7.79-7.79ZM43.77,13.34,81,50.59l-7.79,7.79L36,21.13ZM41,10.94l-7.4,7.4-3.7-11.1Z"/></g></svg>