<svg xmlns="http://www.w3.org/2000/svg" xmlns:xlink="http://www.w3.org/1999/xlink" viewBox="0 0 100 100"><defs><style>.cls-1{fill:url(#linear-gradient);}</style><linearGradient id="linear-gradient" x1="104.66" y1="-5.34" x2="-1.34" y2="100.66" gradientUnits="userSpaceOnUse"><stop offset="0" stop-color="#6896c5"/><stop offset="1" stop-color="#d13852"/></linearGradient></defs><title>Swifta website icons</title><g id="Layer_7" data-name="Layer 7"><path class="cls-1" d="M94.1,75.09,74.45,55.44a1.54,1.54,0,0,0-2.18,0L67.9,59.81l-5.46-5.46,5.62-5.62A23.15,23.15,0,0,0,95,18.39a1.54,1.54,0,0,0-2.55-.58l-11,11L73.3,26l-2.73-8.18,11-11a1.54,1.54,0,0,0-.58-2.55A23.15,23.15,0,0,0,50.59,31.26L45,36.89,25.3,17.2l-.62-6.65a1.54,1.54,0,0,0-.9-1.26l-12-5.45A1.54,1.54,0,0,0,10,4.14L5.69,8.49a1.54,1.54,0,0,0-.31,1.73l5.45,12a1.54,1.54,0,0,0,1.26.9l6.65.62L38.44,43.43,7.68,74.18a10.82,10.82,0,0,0,0,15.28l2.18,2.18a10.82,10.82,0,0,0,15.28,0L55.9,60.89l5.46,5.46L57,70.72a1.54,1.54,0,0,0,0,2.18L76.64,92.55a10.82,10.82,0,0,0,15.28,0l2.18-2.18a10.81,10.81,0,0,0,0-15.28h0ZM20.53,21.17a1.54,1.54,0,0,0-.95-.45l-6.32-.58L8.64,9.93l2.84-2.84L21.7,11.72,22.28,18a1.54,1.54,0,0,0,.44.95L42.79,39.07l-2.17,2.17ZM23,89.46a7.73,7.73,0,0,1-10.92,0L9.86,87.28a7.73,7.73,0,0,1,0-10.92L53.39,32.83a1.54,1.54,0,0,0,.4-1.49A20.1,20.1,0,0,1,77.49,6.56l-9.77,9.78a1.54,1.54,0,0,0-.37,1.58l3.27,9.82a1.54,1.54,0,0,0,1,1L81.41,32A1.54,1.54,0,0,0,83,31.61l9.79-9.77A20.06,20.06,0,0,1,68,45.53a1.53,1.53,0,0,0-1.49.4ZM58.09,58.71,59.84,57l.42-.42L65.72,62l-2.18,2.18ZM91.92,88.19l-2.18,2.18a7.73,7.73,0,0,1-10.91,0L60.26,71.81l13.1-13.1L91.92,77.27a7.72,7.72,0,0,1,0,10.91Z"/></g></svg>