<svg id="About" xmlns="http://www.w3.org/2000/svg" xmlns:xlink="http://www.w3.org/1999/xlink" viewBox="0 0 100 100"><defs><style>.cls-1{fill:url(#linear-gradient);}.cls-2{fill:url(#linear-gradient-2);}.cls-3{fill:url(#linear-gradient-3);}</style><linearGradient id="linear-gradient" x1="50.16" y1="-42.04" x2="49.66" y2="130.96" gradientUnits="userSpaceOnUse"><stop offset="0" stop-color="#6896c5"/><stop offset="1" stop-color="#d13852"/></linearGradient><linearGradient id="linear-gradient-2" x1="50.1" y1="-42.04" x2="49.6" y2="130.96" xlink:href="#linear-gradient"/><linearGradient id="linear-gradient-3" x1="50.19" y1="-42.04" x2="49.69" y2="130.96" xlink:href="#linear-gradient"/></defs><title>Swifta website icons</title><path class="cls-1" d="M49.9,4A44.1,44.1,0,0,0,17.5,78L15,93.87a1.74,1.74,0,0,0,2.51,1.81l14.22-7.36A43.7,43.7,0,0,0,49.9,92.2,44.1,44.1,0,0,0,49.9,4Zm0,84.73a40.26,40.26,0,0,1-17.43-3.92,1.74,1.74,0,0,0-1.54,0L19,91l2.07-13.31a1.74,1.74,0,0,0-.46-1.47A40.63,40.63,0,1,1,49.9,88.73Z"/><path class="cls-2" d="M49.9,35.06a9.19,9.19,0,1,0-9.19-9.19A9.2,9.2,0,0,0,49.9,35.06Zm0-14.91a5.72,5.72,0,1,1-5.72,5.72A5.72,5.72,0,0,1,49.9,20.16Z"/><path class="cls-3" d="M60.09,68.19h-2V39.73A1.74,1.74,0,0,0,56.37,38H39.72A1.74,1.74,0,0,0,38,39.73V45.5a1.74,1.74,0,0,0,1.74,1.74h2v21h-2A1.74,1.74,0,0,0,38,69.93v5.77a1.74,1.74,0,0,0,1.74,1.74H60.09a1.74,1.74,0,0,0,1.74-1.74V69.93A1.74,1.74,0,0,0,60.09,68.19ZM58.35,74H41.45v-2.3h2a1.74,1.74,0,0,0,1.74-1.74V45.5a1.74,1.74,0,0,0-1.74-1.74h-2v-2.3H54.64V69.93a1.74,1.74,0,0,0,1.74,1.74h2Z"/></svg>