<svg xmlns="http://www.w3.org/2000/svg" xmlns:xlink="http://www.w3.org/1999/xlink" viewBox="0 0 100 100"><defs><style>.cls-1{fill:url(#linear-gradient);}.cls-2{fill:url(#linear-gradient-2);}</style><linearGradient id="linear-gradient" x1="1.53" y1="63.02" x2="98.53" y2="63.02" gradientUnits="userSpaceOnUse"><stop offset="0" stop-color="#6896c5"/><stop offset="1" stop-color="#d13852"/></linearGradient><linearGradient id="linear-gradient-2" x1="85.62" y1="40.45" x2="91.08" y2="40.45" xlink:href="#linear-gradient"/></defs><title>Swifta website icons</title><g id="Layer_5" data-name="Layer 5"><path class="cls-1" d="M96.09,31.47H4a2.45,2.45,0,0,0-2.44,2.44V84.27A10.32,10.32,0,0,0,11.84,94.57H88.23A10.32,10.32,0,0,0,98.53,84.27V33.91A2.45,2.45,0,0,0,96.09,31.47ZM51.58,73.64,84.8,46.51a2.44,2.44,0,1,0-3.09-3.79L50,68.59,10.65,36.36h83V84.27a5.42,5.42,0,0,1-5.42,5.42H11.84a5.43,5.43,0,0,1-5.42-5.42V39.21L48.48,73.64A2.51,2.51,0,0,0,51.58,73.64Z"/><path class="cls-2" d="M88.06,43.13a2.45,2.45,0,0,0,1.54-.55l.57-.47a2.44,2.44,0,0,0-3.09-3.79l-.57.47a2.44,2.44,0,0,0,1.55,4.34Z"/></g></svg>