<svg xmlns="http://www.w3.org/2000/svg" xmlns:xlink="http://www.w3.org/1999/xlink" viewBox="0 0 100 100"><defs><style>.cls-1{fill:url(#linear-gradient);}.cls-2{fill:url(#linear-gradient-2);}.cls-3{fill:url(#linear-gradient-3);}.cls-4{fill:url(#linear-gradient-4);}.cls-5{fill:url(#linear-gradient-5);}.cls-6{fill:url(#linear-gradient-6);}.cls-7{fill:url(#linear-gradient-7);}.cls-8{fill:url(#linear-gradient-8);}.cls-9{fill:url(#linear-gradient-9);}</style><linearGradient id="linear-gradient" x1="89.3" y1="117.13" x2="11.3" y2="5.13" gradientUnits="userSpaceOnUse"><stop offset="0" stop-color="#6896c5"/><stop offset="1" stop-color="#d13852"/></linearGradient><linearGradient id="linear-gradient-2" x1="107.5" y1="104.46" x2="29.5" y2="-7.54" xlink:href="#linear-gradient"/><linearGradient id="linear-gradient-3" x1="77.99" y1="125.01" x2="-0.01" y2="13.01" xlink:href="#linear-gradient"/><linearGradient id="linear-gradient-4" x1="120.09" y1="95.69" x2="42.09" y2="-16.31" xlink:href="#linear-gradient"/><linearGradient id="linear-gradient-5" x1="88.45" y1="117.72" x2="10.45" y2="5.72" xlink:href="#linear-gradient"/><linearGradient id="linear-gradient-6" x1="84.4" y1="120.54" x2="6.4" y2="8.54" xlink:href="#linear-gradient"/><linearGradient id="linear-gradient-7" x1="131.96" y1="87.42" x2="53.96" y2="-24.58" xlink:href="#linear-gradient"/><linearGradient id="linear-gradient-8" x1="96.6" y1="112.04" x2="18.6" y2="0.04" xlink:href="#linear-gradient"/><linearGradient id="linear-gradient-9" x1="113.41" y1="100.34" x2="35.41" y2="-11.66" xlink:href="#linear-gradient"/></defs><title>Swifta website icons</title><g id="Products"><path class="cls-1" d="M95.35,43.75a1.91,1.91,0,0,0-2.7,0L81.74,54.66H19.26L8.35,43.75a1.91,1.91,0,0,0-2.7,2.7L16.56,57.36V94.81H84.44V57.36L95.35,46.45A1.91,1.91,0,0,0,95.35,43.75ZM65.32,91H20.38V58.48H65.32Zm15.3,0H69.14V58.48H80.62Z"/><path class="cls-2" d="M50.25,40.31A18.06,18.06,0,1,0,32.19,22.25,18.08,18.08,0,0,0,50.25,40.31Zm0-32.5A14.44,14.44,0,1,1,35.81,22.25,14.46,14.46,0,0,1,50.25,7.81Z"/><circle class="cls-3" cx="16" cy="36" r="2"/><circle class="cls-4" cx="82" cy="41" r="2"/><path class="cls-5" d="M15.44,21.56a1.5,1.5,0,0,0,2.12,0L19,20.12l1.44,1.44a1.5,1.5,0,0,0,2.12-2.12L21.12,18l1.44-1.44a1.5,1.5,0,0,0-2.12-2.12L19,15.88l-1.44-1.44a1.5,1.5,0,0,0-2.12,2.12L16.88,18l-1.44,1.44A1.5,1.5,0,0,0,15.44,21.56Z"/><path class="cls-6" d="M25.44,44.56a1.5,1.5,0,0,0,2.12,0L29,43.12l1.44,1.44a1.5,1.5,0,1,0,2.12-2.12L31.12,41l1.44-1.44a1.5,1.5,0,1,0-2.12-2.12L29,38.88l-1.44-1.44a1.5,1.5,0,0,0-2.12,2.12L26.88,41l-1.44,1.44A1.5,1.5,0,0,0,25.44,44.56Z"/><path class="cls-7" d="M81.44,23.56a1.5,1.5,0,0,0,2.12,0L85,22.12l1.44,1.44a1.5,1.5,0,0,0,2.12-2.12L87.12,20l1.44-1.44a1.5,1.5,0,0,0-2.12-2.12L85,17.88l-1.44-1.44a1.5,1.5,0,0,0-2.12,2.12L82.88,20l-1.44,1.44A1.5,1.5,0,0,0,81.44,23.56Z"/><path class="cls-8" d="M54.67,45.33a1.12,1.12,0,0,0-1.59,0L52,46.41l-1.08-1.08a1.12,1.12,0,0,0-1.59,1.59L50.41,48l-1.08,1.08a1.12,1.12,0,1,0,1.59,1.59L52,49.59l1.08,1.08a1.12,1.12,0,0,0,1.59-1.59L53.59,48l1.08-1.08A1.12,1.12,0,0,0,54.67,45.33Z"/><path class="cls-9" d="M67.33,35.33a1.12,1.12,0,0,0,0,1.59L68.41,38l-1.08,1.08a1.12,1.12,0,1,0,1.59,1.59L70,39.59l1.08,1.08a1.12,1.12,0,0,0,1.59-1.59L71.59,38l1.08-1.08a1.12,1.12,0,0,0-1.59-1.59L70,36.41l-1.08-1.08A1.12,1.12,0,0,0,67.33,35.33Z"/></g></svg>