<svg xmlns="http://www.w3.org/2000/svg" xmlns:xlink="http://www.w3.org/1999/xlink" viewBox="0 0 100 100"><defs><style>.cls-1{fill:url(#linear-gradient);}</style><linearGradient id="linear-gradient" x1="2.51" y1="49.69" x2="97" y2="49.69" gradientUnits="userSpaceOnUse"><stop offset="0" stop-color="#6896c5"/><stop offset="1" stop-color="#d13852"/></linearGradient></defs><title>Swifta website icons</title><g id="support"><path class="cls-1" d="M96.8,74.14A16.49,16.49,0,0,0,74.53,63.77L58.35,47.59,79.83,26.27l5.09-.14a1.8,1.8,0,0,0,1.49-.88L93.69,13a1.8,1.8,0,0,0-.27-2.19L87.13,4.52a1.8,1.8,0,0,0-2.19-.27L72.69,11.53A1.8,1.8,0,0,0,71.81,13l-.14,5.07L50.24,39.48l-14.7-14.7A16.45,16.45,0,0,0,10.22,8.3a1.8,1.8,0,0,0,.13,3.06L18.5,15.9c1.8,1,2.16,4.08.7,6.67S15,26.49,13.15,25.48l-7.57-4.1a1.8,1.8,0,0,0-2.66,1.69A16.45,16.45,0,0,0,25.8,37.17L39.17,50.54l-5.79,5.79L32.07,55a3.76,3.76,0,0,0-5.19,0l-1.8,1.8a3.59,3.59,0,0,0-.2,4.94L3.62,83a3.6,3.6,0,0,0-.11,5.08l.11.11L9.7,94.27a3.6,3.6,0,0,0,5.08.11l.11-.11L36.17,73a3.59,3.59,0,0,0,4.94-.2l1.8-1.8A3.6,3.6,0,0,0,43,65.93l-.11-.11L41.6,64.51l5.75-5.88L64.79,76.06a16.45,16.45,0,0,0,28,14.24,1.8,1.8,0,0,0-.81-2.91L81.83,84.67a3.33,3.33,0,0,1-2.12-2.07,6.6,6.6,0,0,1-.18-4.24c.75-2.82,3.15-4.84,5.16-4.3l10,2.7a1.69,1.69,0,0,0,.49,0,1.8,1.8,0,0,0,1.62-2.62Zm-22.13-54a1.8,1.8,0,0,0,.52-1.22l.14-4.8L85.53,8l4.31,4.31L83.91,22.5,79,22.68a1.8,1.8,0,0,0-1.22.52L55.87,45.11,52.78,42ZM12.34,91.72,6.17,85.59,27.54,64.27l3.09,3.09,2.95,3.06Zm26.3-21.57-2.37-2.39-.92-.92-7.55-7.6,1.8-1.8L40.38,68.37ZM39,62l-3.09-3.09,5.79-5.79,3.09,3.09ZM85.56,70.6a6.29,6.29,0,0,0-1.64-.22,8.81,8.81,0,0,0-7.93,7A10.19,10.19,0,0,0,76.34,84a6.85,6.85,0,0,0,4.51,4.13l6.69,1.8a12.85,12.85,0,0,1-19.09-14A1.8,1.8,0,0,0,68,74.27L27.45,33.72a1.8,1.8,0,0,0-2.12-.25,12.86,12.86,0,0,1-18.1-7l4.1,2.28a6.35,6.35,0,0,0,3.13.81,9.38,9.38,0,0,0,7.82-5.1c2.44-4.37,1.49-9.56-2.1-11.58l-5.23-3a12.85,12.85,0,0,1,16.84,15,1.8,1.8,0,0,0,.49,1.67L72.87,67.2a1.8,1.8,0,0,0,2.1.32,12.87,12.87,0,0,1,17.09,4.84Z"/></g></svg>