<svg xmlns="http://www.w3.org/2000/svg" xmlns:xlink="http://www.w3.org/1999/xlink" viewBox="0 0 100 100"><defs><style>.cls-1{fill:url(#linear-gradient);}</style><linearGradient id="linear-gradient" x1="-107.14" y1="-342.01" x2="-107.14" y2="-330.45" gradientTransform="translate(964.26 2929.81) scale(8.53)" gradientUnits="userSpaceOnUse"><stop offset="0" stop-color="#6896c5"/><stop offset="1" stop-color="#d13852"/></linearGradient></defs><title>Swifta website icons</title><g id="Layer_4" data-name="Layer 4"><path class="cls-1" d="M97.08,42.12,50.74,18.94a1.65,1.65,0,0,0-1.48,0L2.92,42.12a1.66,1.66,0,0,0,0,3l17.29,8.64V80c0,8.35,13.09,14.9,29.79,14.9S79.79,88.36,79.79,80V53.72l8.28-4.14V72a4.94,4.94,0,0,0-1.86,8.16l-3,7.47a1.66,1.66,0,0,0,.92,2.15,1.62,1.62,0,0,0,.61.12h9.93a1.66,1.66,0,0,0,1.54-2.27l-3-7.47A4.94,4.94,0,0,0,91.38,72V47.93l5.71-2.84a1.66,1.66,0,0,0,0-3ZM76.48,80c0,5.6-10.64,11.59-26.48,11.59S23.52,85.6,23.52,80V78.64c4.9,4.78,14.8,8,26.48,8s21.58-3.21,26.48-8V80Zm0-8.28c0,5.6-10.64,11.59-26.48,11.59s-26.48-6-26.48-11.59V55.38L49.26,68.26a1.65,1.65,0,0,0,1.48,0L76.48,55.38V71.73ZM89.72,75a1.66,1.66,0,1,1-1.66,1.66A1.66,1.66,0,0,1,89.72,75Zm2.52,11.59h-5l2-5a4.91,4.91,0,0,0,.51.05,5.05,5.05,0,0,0,.51-.05ZM89.41,45.21,57.86,42.06c-1-2-4.05-3.43-7.86-3.43-4.72,0-8.28,2.14-8.28,5s3.56,5,8.28,5c3.66,0,6.6-1.29,7.74-3.19L83.87,48,50,64.92,7.36,43.6,50,22.28,92.64,43.6ZM55,43.6c0,.41-1.76,1.66-5,1.66S45,44,45,43.6s1.76-1.66,5-1.66S55,43.18,55,43.6Z"/></g></svg>