<svg id="Layer_3" data-name="Layer 3" xmlns="http://www.w3.org/2000/svg" xmlns:xlink="http://www.w3.org/1999/xlink" viewBox="0 0 400 400"><defs><style>.cls-1{fill:url(#linear-gradient);}.cls-2{fill:url(#linear-gradient-2);}.cls-3{fill:url(#linear-gradient-3);}.cls-4{fill:url(#linear-gradient-4);}.cls-5{fill:url(#linear-gradient-5);}.cls-6{fill:url(#linear-gradient-6);}.cls-7{fill:url(#linear-gradient-7);}.cls-8{fill:url(#linear-gradient-8);}.cls-9{fill:url(#linear-gradient-9);}.cls-10{fill:url(#linear-gradient-10);}.cls-11{fill:url(#linear-gradient-11);}.cls-12{fill:url(#linear-gradient-12);}.cls-13{fill:url(#linear-gradient-13);}.cls-14{fill:url(#linear-gradient-14);}.cls-15{fill:url(#linear-gradient-15);}.cls-16{fill:url(#linear-gradient-16);}.cls-17{fill:url(#linear-gradient-17);}.cls-18{fill:url(#linear-gradient-18);}.cls-19{fill:url(#linear-gradient-19);}.cls-20{fill:url(#linear-gradient-20);}.cls-21{fill:url(#linear-gradient-21);}.cls-22{fill:url(#linear-gradient-22);}.cls-23{fill:url(#linear-gradient-23);}.cls-24{fill:url(#linear-gradient-24);}.cls-25{fill:url(#linear-gradient-25);}.cls-26{fill:url(#linear-gradient-26);}</style><linearGradient id="linear-gradient" x1="-1.13" y1="194.42" x2="314.48" y2="188" gradientUnits="userSpaceOnUse"><stop offset="0" stop-color="#6896c5"/><stop offset="1" stop-color="#d13852"/></linearGradient><linearGradient id="linear-gradient-2" x1="-1.13" y1="194.52" x2="314.48" y2="188.1" xlink:href="#linear-gradient"/><linearGradient id="linear-gradient-3" x1="-1.06" y1="197.81" x2="314.54" y2="191.39" xlink:href="#linear-gradient"/><linearGradient id="linear-gradient-4" x1="-0.88" y1="206.81" x2="314.73" y2="200.39" xlink:href="#linear-gradient"/><linearGradient id="linear-gradient-5" x1="-1.31" y1="185.82" x2="314.3" y2="179.4" xlink:href="#linear-gradient"/><linearGradient id="linear-gradient-6" x1="-0.97" y1="202.34" x2="314.64" y2="195.92" xlink:href="#linear-gradient"/><linearGradient id="linear-gradient-7" x1="-0.63" y1="219.1" x2="314.98" y2="212.68" xlink:href="#linear-gradient"/><linearGradient id="linear-gradient-8" x1="-0.29" y1="235.62" x2="315.31" y2="229.2" xlink:href="#linear-gradient"/><linearGradient id="linear-gradient-9" x1="-1.87" y1="158.05" x2="313.74" y2="151.63" xlink:href="#linear-gradient"/><linearGradient id="linear-gradient-10" x1="-1.86" y1="158.44" x2="313.74" y2="152.02" xlink:href="#linear-gradient"/><linearGradient id="linear-gradient-11" x1="-1.86" y1="158.83" x2="313.75" y2="152.41" xlink:href="#linear-gradient"/><linearGradient id="linear-gradient-12" x1="-1.25" y1="188.52" x2="314.36" y2="182.1" xlink:href="#linear-gradient"/><linearGradient id="linear-gradient-13" x1="-3.6" y1="73.19" x2="312.01" y2="66.77" xlink:href="#linear-gradient"/><linearGradient id="linear-gradient-14" x1="-3.03" y1="101.27" x2="312.58" y2="94.85" xlink:href="#linear-gradient"/><linearGradient id="linear-gradient-15" x1="-2.71" y1="117.1" x2="312.9" y2="110.68" xlink:href="#linear-gradient"/><linearGradient id="linear-gradient-16" x1="1.3" y1="314.21" x2="316.91" y2="307.79" xlink:href="#linear-gradient"/><linearGradient id="linear-gradient-17" x1="-3.2" y1="92.7" x2="312.41" y2="86.28" xlink:href="#linear-gradient"/><linearGradient id="linear-gradient-18" x1="-3.2" y1="92.7" x2="312.41" y2="86.28" xlink:href="#linear-gradient"/><linearGradient id="linear-gradient-19" x1="-2.08" y1="147.75" x2="313.53" y2="141.33" xlink:href="#linear-gradient"/><linearGradient id="linear-gradient-20" x1="-2.08" y1="147.75" x2="313.53" y2="141.33" xlink:href="#linear-gradient"/><linearGradient id="linear-gradient-21" x1="-3.69" y1="68.51" x2="311.91" y2="62.09" xlink:href="#linear-gradient"/><linearGradient id="linear-gradient-22" x1="-3.69" y1="68.51" x2="311.91" y2="62.09" xlink:href="#linear-gradient"/><linearGradient id="linear-gradient-23" x1="0.72" y1="285.31" x2="316.32" y2="278.89" xlink:href="#linear-gradient"/><linearGradient id="linear-gradient-24" x1="0.72" y1="285.31" x2="316.32" y2="278.89" xlink:href="#linear-gradient"/><linearGradient id="linear-gradient-25" x1="1.22" y1="309.85" x2="316.82" y2="303.43" xlink:href="#linear-gradient"/><linearGradient id="linear-gradient-26" x1="1.22" y1="309.85" x2="316.82" y2="303.43" xlink:href="#linear-gradient"/></defs><title>application support-06</title><path class="cls-1" d="M168,211.17l-8.49,8.51a1.8,1.8,0,0,0,0,2.54l12.41,12.42a1.8,1.8,0,0,0,2.54,0l8.37-8.38a38.69,38.69,0,0,0,10.6,4.5V242.7a1.8,1.8,0,0,0,1.8,1.8h17.72a1.8,1.8,0,0,0,1.8-1.8V230.76a41.39,41.39,0,0,0,10.5-4.42l8.25,8.29a1.78,1.78,0,0,0,1.27.52h0a1.79,1.79,0,0,0,1.27-.52l12.38-12.39a1.8,1.8,0,0,0,0-2.53l-8.35-8.48a36.82,36.82,0,0,0,4.34-10.57h11.88a1.8,1.8,0,0,0,1.8-1.8V181.38a1.8,1.8,0,0,0-1.8-1.8h-12a41.12,41.12,0,0,0-4.39-10.43l8.46-8.45a1.8,1.8,0,0,0,0-2.54L236,145.76a1.8,1.8,0,0,0-2.54,0l-8.53,8.53a39.55,39.55,0,0,0-10.17-4.2v-12.3a1.8,1.8,0,0,0-1.8-1.8H195.22a1.8,1.8,0,0,0-1.8,1.8v12.29a37.34,37.34,0,0,0-10.34,4.34l-8.64-8.65a1.8,1.8,0,0,0-1.27-.53h0a1.8,1.8,0,0,0-1.27.53l-12.4,12.41a1.8,1.8,0,0,0,0,2.54l8.64,8.59a43,43,0,0,0-4.34,10.28H151.87a1.8,1.8,0,0,0-1.8,1.8v17.48a1.8,1.8,0,0,0,1.8,1.8h11.81A36.48,36.48,0,0,0,168,211.17Zm-14.33-28h11.54A1.8,1.8,0,0,0,167,181.8a39.17,39.17,0,0,1,5-11.8,1.8,1.8,0,0,0-.25-2.24l-8.37-8.32,9.86-9.86,8.37,8.38a1.8,1.8,0,0,0,2.23.25,34.47,34.47,0,0,1,11.81-4.94,1.8,1.8,0,0,0,1.43-1.76V139.59h14.13v11.92a1.8,1.8,0,0,0,1.41,1.76,36.25,36.25,0,0,1,11.67,4.81,1.8,1.8,0,0,0,2.22-.25l8.26-8.26,9.86,9.86-8.2,8.18a1.8,1.8,0,0,0-.24,2.24,37.58,37.58,0,0,1,5,11.93,1.8,1.8,0,0,0,1.75,1.4H254.5v13.89H243a1.8,1.8,0,0,0-1.76,1.45,33.51,33.51,0,0,1-4.91,12,1.8,1.8,0,0,0,.24,2.22l8.08,8.21-9.85,9.87-8-8a1.8,1.8,0,0,0-2.24-.25,37.83,37.83,0,0,1-12,5,1.8,1.8,0,0,0-1.4,1.75V240.9H197V229.33a1.8,1.8,0,0,0-1.42-1.76,35.61,35.61,0,0,1-12.06-5.11,1.8,1.8,0,0,0-2.24.24l-8.11,8.12-9.87-9.88,8.21-8.24a1.8,1.8,0,0,0,.25-2.22,33.8,33.8,0,0,1-4.89-12,1.8,1.8,0,0,0-1.76-1.45H153.66Z"/><path class="cls-2" d="M204.11,205.47A15.13,15.13,0,1,0,189,190.35,15.14,15.14,0,0,0,204.11,205.47Zm0-26.66a11.53,11.53,0,1,1-11.53,11.53A11.55,11.55,0,0,1,204.11,178.81Z"/><path class="cls-3" d="M302,181.56a10.08,10.08,0,1,0,10.08,10.08A10.09,10.09,0,0,0,302,181.56Zm0,16.57a6.49,6.49,0,1,1,6.49-6.49A6.49,6.49,0,0,1,302,198.13Z"/><path class="cls-4" d="M146.74,181.15a1.8,1.8,0,0,0,0-3.59H96.82a1.8,1.8,0,0,0-1.8,1.8v49.92a1.8,1.8,0,0,0,1.8,1.8h49.93a1.8,1.8,0,0,0,0-3.59H98.61V181.15Z"/><path class="cls-5" d="M77.5,182.94H26.73a1.8,1.8,0,1,0,0,3.59H77.5a1.8,1.8,0,1,0,0-3.59Z"/><path class="cls-6" d="M77.5,199.47H26.73a1.8,1.8,0,1,0,0,3.59H77.5a1.8,1.8,0,1,0,0-3.59Z"/><path class="cls-7" d="M77.5,216.23H26.73a1.8,1.8,0,1,0,0,3.59H77.5a1.8,1.8,0,1,0,0-3.59Z"/><path class="cls-8" d="M77.5,232.76H26.73a1.8,1.8,0,1,0,0,3.59H77.5a1.8,1.8,0,1,0,0-3.59Z"/><path class="cls-9" d="M24.31,151.78A5.73,5.73,0,1,0,30,157.51,5.74,5.74,0,0,0,24.31,151.78Zm0,7.88a2.14,2.14,0,1,1,2.14-2.14A2.14,2.14,0,0,1,24.31,159.66Z"/><path class="cls-10" d="M43.66,151.78a5.73,5.73,0,1,0,5.73,5.73A5.74,5.74,0,0,0,43.66,151.78Zm0,7.88a2.14,2.14,0,1,1,2.14-2.14A2.14,2.14,0,0,1,43.66,159.66Z"/><path class="cls-11" d="M63,151.78a5.73,5.73,0,1,0,5.73,5.73A5.74,5.74,0,0,0,63,151.78Zm0,7.88a2.14,2.14,0,1,1,2.14-2.14A2.14,2.14,0,0,1,63,159.66Z"/><path class="cls-12" d="M393.55,251.28l-12.13-27a1.78,1.78,0,0,0-.47-.62,6.1,6.1,0,0,0-5-2.65h-3.1v-1.37c0-.06,0-.11,0-.17a12.44,12.44,0,1,0-3.56,0,1.77,1.77,0,0,0,0,.2V221h-2.88a6.1,6.1,0,0,0-4.79,2.33,1.79,1.79,0,0,0-.36.17l-19.31,12.4L345,229a7,7,0,1,0-12.8-5.83l-8,17.55a7,7,0,0,0,1.86,8.28l-5.82,12.78c-.55-.13-1.1-.25-1.66-.35a1.8,1.8,0,0,0,0-.34V218.39l1.2,1.2a1.74,1.74,0,0,0,1.27.47h0a1.75,1.75,0,0,0,1.27-.47l7.69-7.65a1.8,1.8,0,0,0,0-2.53l-4.81-4.88a21,21,0,0,0,2.39-5.78h7a1.8,1.8,0,0,0,1.8-1.8V186.17a1.8,1.8,0,0,0-1.8-1.8h-7.06a26.15,26.15,0,0,0-2.4-5.75l4.89-4.92a1.81,1.81,0,0,0,0-2.55l-7.71-7.75c-.34-.34-.79-.35-1.27-.59h0a1.86,1.86,0,0,0-1.27.59l-1.17,1.18V138.4A16.64,16.64,0,0,0,302,121.77H244.68V100.55a1.8,1.8,0,1,0-3.59,0v21.22H226V77.08a1.8,1.8,0,0,0-3.59,0v44.7H207.31V100.55a1.8,1.8,0,1,0-3.59,0v21.22H101.62A16.64,16.64,0,0,0,85,138.4V145H21.48A14.29,14.29,0,0,0,7.21,159.3v79.79a14.29,14.29,0,0,0,14.28,14.28H85.24a1.78,1.78,0,0,0-.24.88V266H70.2a1.8,1.8,0,0,0-1.8,1.8v.1a17.65,17.65,0,0,0,17.72,17.74H286.39q-.14,1.36-.14,2.75a1.8,1.8,0,0,0,1.8,1.8h51.26a1.8,1.8,0,0,0,1.8-1.8,27.47,27.47,0,0,0-17.42-25.53l5.62-12.34a7,7,0,0,0,1.29.13,7.05,7.05,0,0,0,6.41-4.12l2.14-4.69,21.09-13.54v29.29a7,7,0,0,0,3.24,5.89V285a1.8,1.8,0,1,0,3.59,0V264.61h8.14V285a1.8,1.8,0,1,0,3.59,0V263.51a7,7,0,0,0,3.22-5.88V234.36l8.25,18.39a1.8,1.8,0,0,0,3.28-1.47Zm-31.26-44.17a8.84,8.84,0,1,1,8.84,8.84A8.85,8.85,0,0,1,362.29,207.11Zm-41.22-39.83,5.17,5.18-4.62,4.63a1.8,1.8,0,0,0-.24,2.24,22.56,22.56,0,0,1,3,7.24,1.8,1.8,0,0,0,1.75,1.4h6.66v7.19H326.2a1.8,1.8,0,0,0-1.77,1.47,18.61,18.61,0,0,1-3,7.2,1.8,1.8,0,0,0,.24,2.22l4.55,4.62-5.16,5.17-4.48-4.5a1.8,1.8,0,0,0-2.24-.25,24.69,24.69,0,0,1-7.27,3.05,1.8,1.8,0,0,0-1.37,1.75v6.34h-7.42v-6.35a1.8,1.8,0,0,0-1.43-1.76,20.38,20.38,0,0,1-7.26-3.08,1.8,1.8,0,0,0-2.24.24l-4.56,4.57-5.17-5.17,4.62-4.63a1.8,1.8,0,0,0,.25-2.22,18.58,18.58,0,0,1-2.94-7.18,1.8,1.8,0,0,0-1.77-1.47h-6.56V188h6.61a1.8,1.8,0,0,0,1.75-1.37,24.48,24.48,0,0,1,3-7.18,1.8,1.8,0,0,0-.24-2.23l-4.73-4.74,5.17-5.17,4.72,4.73a1.8,1.8,0,0,0,2.23.25,19.93,19.93,0,0,1,7.1-3,1.8,1.8,0,0,0,1.44-1.76v-6.84h7.42v6.84a1.8,1.8,0,0,0,1.39,1.75,23.58,23.58,0,0,1,7.06,2.91,1.8,1.8,0,0,0,2.22-.25ZM88.35,253.37H152a1.8,1.8,0,1,0,0-3.59H21.48A10.7,10.7,0,0,1,10.8,239.09V170h135a1.8,1.8,0,0,0,0-3.59H80.14v-6.23a1.8,1.8,0,1,0-3.59,0v6.23H10.8V159.3a10.7,10.7,0,0,1,10.68-10.69H152a1.8,1.8,0,1,0,0-3.59H88.59V138.4a13,13,0,0,1,13-13H302a13,13,0,0,1,13,13V168.1s0,.07,0,.11l-.18.19a27.41,27.41,0,0,0-5.52-2.28v-7.25a1.8,1.8,0,0,0-1.8-1.8h-11a1.8,1.8,0,0,0-1.8,1.8v7.21a22.4,22.4,0,0,0-5.64,2.37l-5-5a1.8,1.8,0,0,0-1.27-.53h0a1.8,1.8,0,0,0-1.27.53l-7.71,7.71a1.8,1.8,0,0,0,0,2.54l5,5a28.59,28.59,0,0,0-2.36,5.65h-7a1.8,1.8,0,0,0-1.8,1.8V197a1.8,1.8,0,0,0,1.8,1.8h6.91a20.84,20.84,0,0,0,2.37,5.73l-4.9,4.91a1.8,1.8,0,0,0,0,2.54l7.71,7.72a1.8,1.8,0,0,0,2.54,0l4.83-4.83a23.11,23.11,0,0,0,5.81,2.47V224a1.8,1.8,0,0,0,1.8,1.8h11a1.8,1.8,0,0,0,1.8-1.8v-6.76a28.86,28.86,0,0,0,5.7-2.41s0,0,0,.06V261c-.45,0-.9,0-1.35,0a27.27,27.27,0,0,0-15.81,5H88.59V254.24A1.78,1.78,0,0,0,88.35,253.37ZM86.13,282.1a14,14,0,0,1-14-12.45H86a1.78,1.78,0,0,0,.75.17H292.36a1.78,1.78,0,0,0,.75-.17h.64A27.39,27.39,0,0,0,287,282.1Zm215.11,4.55a12.58,12.58,0,0,1,24.9,0Zm36.22,0h-7.68a16.19,16.19,0,0,0-32.17,0h-7.68a23.84,23.84,0,0,1,47.54,0Zm-3.71-41.55a3.44,3.44,0,0,1-4.56,1.71h0a3.44,3.44,0,0,1-1.71-4.56l8-17.55a3.44,3.44,0,1,1,6.26,2.85ZM367.22,261a3.4,3.4,0,0,1-3.39-3.39V227.07a2.52,2.52,0,0,1,2.52-2.52h9.58a2.52,2.52,0,0,1,2.52,2.52v30.57A3.4,3.4,0,0,1,375,261Z"/><path class="cls-13" d="M86.79,64.84a6.51,6.51,0,1,0,6.51,6.51A6.52,6.52,0,0,0,86.79,64.84Zm0,9.44a2.92,2.92,0,1,1,2.92-2.92A2.93,2.93,0,0,1,86.79,74.27Z"/><path class="cls-14" d="M37.16,93.94a6.51,6.51,0,1,0,6.51,6.51A6.52,6.52,0,0,0,37.16,93.94Zm0,9.44a2.92,2.92,0,1,1,2.92-2.92A2.93,2.93,0,0,1,37.16,103.38Z"/><path class="cls-15" d="M327.94,103.86a6.51,6.51,0,1,0,6.51,6.51A6.52,6.52,0,0,0,327.94,103.86Zm0,9.44a2.92,2.92,0,1,1,2.92-2.92A2.93,2.93,0,0,1,327.94,113.3Z"/><path class="cls-16" d="M70.18,306.29a6.51,6.51,0,1,0,6.51,6.51A6.52,6.52,0,0,0,70.18,306.29Zm0,9.44a2.92,2.92,0,1,1,2.92-2.92A2.93,2.93,0,0,1,70.18,315.73Z"/><path class="cls-17" d="M147,86.05l-4.69,4.69a1.8,1.8,0,0,0,2.54,2.54l4.69-4.69A1.8,1.8,0,0,0,147,86.05Z"/><path class="cls-18" d="M144.77,86.05a1.8,1.8,0,0,0-2.54,2.54l4.69,4.69a1.8,1.8,0,1,0,2.54-2.54Z"/><path class="cls-19" d="M378.15,136.42l-4.69,4.69a1.8,1.8,0,0,0,2.54,2.54l4.69-4.69a1.8,1.8,0,0,0-2.54-2.54Z"/><path class="cls-20" d="M375.9,136.42a1.8,1.8,0,0,0-2.54,2.54l4.69,4.69a1.8,1.8,0,1,0,2.54-2.54Z"/><path class="cls-21" d="M360.1,57.52l-4.69,4.69A1.8,1.8,0,0,0,358,64.75l4.69-4.69a1.8,1.8,0,0,0-2.54-2.54Z"/><path class="cls-22" d="M357.85,57.52a1.8,1.8,0,1,0-2.54,2.54L360,64.75a1.8,1.8,0,0,0,2.54-2.54Z"/><path class="cls-23" d="M21.55,281.29,16.86,286a1.8,1.8,0,0,0,2.54,2.54l4.69-4.69a1.8,1.8,0,1,0-2.54-2.54Z"/><path class="cls-24" d="M19.29,281.29a1.8,1.8,0,1,0-2.54,2.54l4.69,4.69A1.8,1.8,0,1,0,24,286Z"/><path class="cls-25" d="M275.41,300.68l-4.69,4.69a1.8,1.8,0,0,0,2.54,2.54l4.69-4.69a1.8,1.8,0,0,0-2.54-2.54Z"/><path class="cls-26" d="M273.15,300.68a1.8,1.8,0,0,0-2.54,2.54l4.69,4.69a1.8,1.8,0,0,0,2.54-2.54Z"/></svg>