<svg id="Layer_3" data-name="Layer 3" xmlns="http://www.w3.org/2000/svg" xmlns:xlink="http://www.w3.org/1999/xlink" viewBox="0 0 400 400"><defs><style>.cls-1{fill:url(#linear-gradient);}.cls-2{fill:url(#linear-gradient-2);}.cls-3{fill:url(#linear-gradient-3);}.cls-4{fill:url(#linear-gradient-4);}.cls-5{fill:url(#linear-gradient-5);}.cls-6{fill:url(#linear-gradient-6);}.cls-7{fill:url(#linear-gradient-7);}.cls-8{fill:url(#linear-gradient-8);}.cls-9{fill:url(#linear-gradient-9);}.cls-10{fill:url(#linear-gradient-10);}.cls-11{fill:url(#linear-gradient-11);}.cls-12{fill:url(#linear-gradient-12);}.cls-13{fill:url(#linear-gradient-13);}.cls-14{fill:url(#linear-gradient-14);}.cls-15{fill:url(#linear-gradient-15);}.cls-16{fill:url(#linear-gradient-16);}.cls-17{fill:url(#linear-gradient-17);}.cls-18{fill:url(#linear-gradient-18);}.cls-19{fill:url(#linear-gradient-19);}.cls-20{fill:url(#linear-gradient-20);}.cls-21{fill:url(#linear-gradient-21);}.cls-22{fill:url(#linear-gradient-22);}.cls-23{fill:url(#linear-gradient-23);}.cls-24{fill:url(#linear-gradient-24);}.cls-25{fill:url(#linear-gradient-25);}.cls-26{fill:url(#linear-gradient-26);}.cls-27{fill:url(#linear-gradient-27);}.cls-28{fill:url(#linear-gradient-28);}.cls-29{fill:url(#linear-gradient-29);}.cls-30{fill:url(#linear-gradient-30);}.cls-31{fill:url(#linear-gradient-31);}.cls-32{fill:url(#linear-gradient-32);}.cls-33{fill:url(#linear-gradient-33);}.cls-34{fill:url(#linear-gradient-34);}.cls-35{fill:url(#linear-gradient-35);}.cls-36{fill:url(#linear-gradient-36);}.cls-37{fill:url(#linear-gradient-37);}.cls-38{fill:url(#linear-gradient-38);}.cls-39{fill:url(#linear-gradient-39);}.cls-40{fill:url(#linear-gradient-40);}.cls-41{fill:url(#linear-gradient-41);}.cls-42{fill:#1e243a;}.cls-43{fill:url(#linear-gradient-42);}.cls-44{fill:url(#linear-gradient-43);}.cls-45{fill:url(#linear-gradient-44);}.cls-46{fill:url(#linear-gradient-45);}.cls-47{fill:url(#linear-gradient-46);}.cls-48{fill:url(#linear-gradient-47);}.cls-49{fill:url(#linear-gradient-48);}.cls-50{fill:url(#linear-gradient-49);}.cls-51{fill:url(#linear-gradient-50);}.cls-52{fill:url(#linear-gradient-51);}.cls-53{fill:url(#linear-gradient-52);}.cls-54{fill:url(#linear-gradient-53);}.cls-55{fill:url(#linear-gradient-54);}.cls-56{fill:url(#linear-gradient-55);}.cls-57{fill:url(#linear-gradient-56);}.cls-58{fill:url(#linear-gradient-57);}.cls-59{fill:url(#linear-gradient-58);}</style><linearGradient id="linear-gradient" x1="203.49" y1="311.24" x2="347.2" y2="137.14" gradientUnits="userSpaceOnUse"><stop offset="0" stop-color="#6896c5"/><stop offset="1" stop-color="#d13852"/></linearGradient><linearGradient id="linear-gradient-2" x1="211.34" y1="301.73" x2="339.35" y2="146.65" xlink:href="#linear-gradient"/><linearGradient id="linear-gradient-3" x1="216.8" y1="199.68" x2="239.77" y2="171.85" xlink:href="#linear-gradient"/><linearGradient id="linear-gradient-4" x1="239.77" y1="203.1" x2="254.45" y2="185.32" xlink:href="#linear-gradient"/><linearGradient id="linear-gradient-5" x1="253.26" y1="198.7" x2="278.6" y2="168" xlink:href="#linear-gradient"/><linearGradient id="linear-gradient-6" x1="276.83" y1="202.61" x2="292.69" y2="183.39" xlink:href="#linear-gradient"/><linearGradient id="linear-gradient-7" x1="293.28" y1="200.65" x2="313.88" y2="175.7" xlink:href="#linear-gradient"/><linearGradient id="linear-gradient-8" x1="309.73" y1="198.7" x2="335.07" y2="168" xlink:href="#linear-gradient"/><linearGradient id="linear-gradient-9" x1="224.07" y1="253.93" x2="253.74" y2="217.98" xlink:href="#linear-gradient"/><linearGradient id="linear-gradient-10" x1="224.07" y1="296.89" x2="253.74" y2="260.93" xlink:href="#linear-gradient"/><linearGradient id="linear-gradient-11" x1="273.91" y1="235.17" x2="286.77" y2="219.6" xlink:href="#linear-gradient"/><linearGradient id="linear-gradient-12" x1="278.72" y1="247.83" x2="298.13" y2="224.32" xlink:href="#linear-gradient"/><linearGradient id="linear-gradient-13" x1="278.72" y1="256.28" x2="298.13" y2="232.77" xlink:href="#linear-gradient"/><linearGradient id="linear-gradient-14" x1="273.91" y1="278.13" x2="286.77" y2="262.56" xlink:href="#linear-gradient"/><linearGradient id="linear-gradient-15" x1="278.72" y1="290.78" x2="298.13" y2="267.28" xlink:href="#linear-gradient"/><linearGradient id="linear-gradient-16" x1="278.72" y1="299.23" x2="298.13" y2="275.72" xlink:href="#linear-gradient"/><linearGradient id="linear-gradient-17" x1="157.37" y1="154.44" x2="222.59" y2="75.43" xlink:href="#linear-gradient"/><linearGradient id="linear-gradient-18" x1="125.08" y1="190.15" x2="172.23" y2="133.02" xlink:href="#linear-gradient"/><linearGradient id="linear-gradient-19" x1="87.68" y1="199.26" x2="102.58" y2="181.2" xlink:href="#linear-gradient"/><linearGradient id="linear-gradient-20" x1="87.68" y1="207.94" x2="102.58" y2="189.89" xlink:href="#linear-gradient"/><linearGradient id="linear-gradient-21" x1="87.68" y1="216.63" x2="102.58" y2="198.57" xlink:href="#linear-gradient"/><linearGradient id="linear-gradient-22" x1="87.68" y1="225.32" x2="102.58" y2="207.26" xlink:href="#linear-gradient"/><linearGradient id="linear-gradient-23" x1="78.75" y1="266.04" x2="111.72" y2="226.09" xlink:href="#linear-gradient"/><linearGradient id="linear-gradient-24" x1="37.76" y1="334.14" x2="62.49" y2="304.17" xlink:href="#linear-gradient"/><linearGradient id="linear-gradient-25" x1="31.39" y1="336.74" x2="67.7" y2="292.75" xlink:href="#linear-gradient"/><linearGradient id="linear-gradient-26" x1="88.96" y1="315.94" x2="92.13" y2="312.1" xlink:href="#linear-gradient"/><linearGradient id="linear-gradient-27" x1="128.19" y1="316.65" x2="132.54" y2="311.39" xlink:href="#linear-gradient"/><linearGradient id="linear-gradient-28" x1="141.95" y1="316.65" x2="146.29" y2="311.39" xlink:href="#linear-gradient"/><linearGradient id="linear-gradient-29" x1="114.44" y1="316.65" x2="118.78" y2="311.39" xlink:href="#linear-gradient"/><linearGradient id="linear-gradient-30" x1="100.68" y1="316.65" x2="105.03" y2="311.39" xlink:href="#linear-gradient"/><linearGradient id="linear-gradient-31" x1="154.39" y1="315.97" x2="159.09" y2="310.28" xlink:href="#linear-gradient"/><linearGradient id="linear-gradient-32" x1="155.09" y1="302.84" x2="159.93" y2="296.97" xlink:href="#linear-gradient"/><linearGradient id="linear-gradient-33" x1="155.09" y1="274.84" x2="159.93" y2="268.98" xlink:href="#linear-gradient"/><linearGradient id="linear-gradient-34" x1="155.09" y1="246.85" x2="159.93" y2="240.99" xlink:href="#linear-gradient"/><linearGradient id="linear-gradient-35" x1="155.09" y1="288.84" x2="159.93" y2="282.98" xlink:href="#linear-gradient"/><linearGradient id="linear-gradient-36" x1="155.09" y1="260.85" x2="159.93" y2="254.98" xlink:href="#linear-gradient"/><linearGradient id="linear-gradient-37" x1="155.93" y1="233.79" x2="160.63" y2="228.09" xlink:href="#linear-gradient"/><linearGradient id="linear-gradient-38" x1="186.32" y1="232.85" x2="190.96" y2="227.23" xlink:href="#linear-gradient"/><linearGradient id="linear-gradient-39" x1="170.64" y1="232.85" x2="175.27" y2="227.23" xlink:href="#linear-gradient"/><linearGradient id="linear-gradient-40" x1="201.24" y1="232.02" x2="204.51" y2="228.06" xlink:href="#linear-gradient"/><linearGradient id="linear-gradient-41" x1="262.81" y1="114.96" x2="278.74" y2="95.66" xlink:href="#linear-gradient"/><linearGradient id="linear-gradient-42" x1="166.21" y1="344.24" x2="182.14" y2="324.94" xlink:href="#linear-gradient"/><linearGradient id="linear-gradient-43" x1="29.63" y1="254.17" x2="45.56" y2="234.87" xlink:href="#linear-gradient"/><linearGradient id="linear-gradient-44" x1="374.17" y1="137.96" x2="381.49" y2="129.08" xlink:href="#linear-gradient"/><linearGradient id="linear-gradient-45" x1="374.63" y1="137.39" x2="381.03" y2="129.64" xlink:href="#linear-gradient"/><linearGradient id="linear-gradient-46" x1="368.62" y1="274.78" x2="375.94" y2="265.9" xlink:href="#linear-gradient"/><linearGradient id="linear-gradient-47" x1="369.08" y1="274.22" x2="375.48" y2="266.47" xlink:href="#linear-gradient"/><linearGradient id="linear-gradient-48" x1="276.19" y1="346.21" x2="283.52" y2="337.33" xlink:href="#linear-gradient"/><linearGradient id="linear-gradient-49" x1="276.66" y1="345.65" x2="283.06" y2="337.9" xlink:href="#linear-gradient"/><linearGradient id="linear-gradient-50" x1="128.75" y1="292.16" x2="136.08" y2="283.28" xlink:href="#linear-gradient"/><linearGradient id="linear-gradient-51" x1="129.22" y1="291.59" x2="135.61" y2="283.84" xlink:href="#linear-gradient"/><linearGradient id="linear-gradient-52" x1="85.31" y1="143.27" x2="92.64" y2="134.39" xlink:href="#linear-gradient"/><linearGradient id="linear-gradient-53" x1="85.78" y1="142.7" x2="92.18" y2="134.95" xlink:href="#linear-gradient"/><linearGradient id="linear-gradient-54" x1="240.96" y1="55.19" x2="248.29" y2="46.31" xlink:href="#linear-gradient"/><linearGradient id="linear-gradient-55" x1="241.43" y1="54.62" x2="247.82" y2="46.87" xlink:href="#linear-gradient"/><linearGradient id="linear-gradient-56" x1="333.61" y1="259.44" x2="339.52" y2="252.29" xlink:href="#linear-gradient"/><linearGradient id="linear-gradient-57" x1="28.01" y1="134.78" x2="85.19" y2="65.5" xlink:href="#linear-gradient"/><linearGradient id="linear-gradient-58" x1="49.25" y1="95.24" x2="66.88" y2="73.87" xlink:href="#linear-gradient"/></defs><title>business analysis-03</title><path class="cls-1" d="M337.78,132.07H212.9a9.12,9.12,0,0,0-9.11,9.11v166a9.12,9.12,0,0,0,9.11,9.11H337.78a9.12,9.12,0,0,0,9.11-9.11v-166A9.12,9.12,0,0,0,337.78,132.07Zm6,175.13a6,6,0,0,1-6,6H212.9a6,6,0,0,1-6-6v-166a6,6,0,0,1,6-6H337.78a6,6,0,0,1,6,6Z"/><path class="cls-2" d="M332.43,142.64H218.26a5.75,5.75,0,0,0-5.74,5.74V300a5.75,5.75,0,0,0,5.74,5.74H332.43a5.75,5.75,0,0,0,5.74-5.74V280.36a1.57,1.57,0,0,0-3.14,0V300a2.61,2.61,0,0,1-2.61,2.61H218.26a2.61,2.61,0,0,1-2.61-2.61V148.39a2.61,2.61,0,0,1,2.61-2.61H332.43a2.61,2.61,0,0,1,2.61,2.61V236a1.57,1.57,0,1,0,3.14,0V148.39A5.75,5.75,0,0,0,332.43,142.64Z"/><path class="cls-3" d="M223.46,204.71h9.65a1.57,1.57,0,0,0,1.57-1.57V168.39a1.57,1.57,0,0,0-1.57-1.57h-9.65a1.57,1.57,0,0,0-1.57,1.57v34.75A1.57,1.57,0,0,0,223.46,204.71ZM225,170h6.52v31.61H225Z"/><path class="cls-4" d="M251.94,204.71a1.57,1.57,0,0,0,1.57-1.57V185.28a1.57,1.57,0,0,0-1.57-1.57h-9.65a1.57,1.57,0,0,0-1.57,1.57v17.86a1.57,1.57,0,0,0,1.57,1.57Zm-8.08-17.86h6.52v14.72h-6.52Z"/><path class="cls-5" d="M270.76,162h-9.65a1.57,1.57,0,0,0-1.57,1.57v39.58a1.57,1.57,0,0,0,1.57,1.57h9.65a1.57,1.57,0,0,0,1.57-1.57V163.56A1.57,1.57,0,0,0,270.76,162Zm-1.57,39.58h-6.52V165.13h6.52Z"/><path class="cls-6" d="M289.58,204.71a1.57,1.57,0,0,0,1.57-1.57V182.87a1.57,1.57,0,0,0-1.57-1.57h-9.65a1.57,1.57,0,0,0-1.57,1.57v20.27a1.57,1.57,0,0,0,1.57,1.57Zm-8.08-20.27H288v17.13H281.5Z"/><path class="cls-7" d="M308.4,204.71a1.57,1.57,0,0,0,1.57-1.57V173.21a1.57,1.57,0,0,0-1.57-1.57h-9.65a1.57,1.57,0,0,0-1.57,1.57v29.92a1.57,1.57,0,0,0,1.57,1.57Zm-8.08-29.92h6.52v26.79h-6.52Z"/><path class="cls-8" d="M317.57,162a1.57,1.57,0,0,0-1.57,1.57v39.58a1.57,1.57,0,0,0,1.57,1.57h9.65a1.57,1.57,0,0,0,1.57-1.57V163.56a1.57,1.57,0,0,0-1.57-1.57Zm8.08,39.58h-6.52V165.13h6.52Z"/><path class="cls-9" d="M255.92,220.51a1.57,1.57,0,0,0-1.57-1.57H223.46a1.57,1.57,0,0,0-1.57,1.57V251.4a1.57,1.57,0,0,0,1.57,1.57h30.89a1.57,1.57,0,0,0,1.57-1.57Zm-3.14,29.32H225V222.08h27.75Z"/><path class="cls-10" d="M254.35,261.9H223.46a1.57,1.57,0,0,0-1.57,1.57v30.89a1.57,1.57,0,0,0,1.57,1.57h30.89a1.57,1.57,0,0,0,1.57-1.57V263.47A1.57,1.57,0,0,0,254.35,261.9Zm-1.57,30.89H225V265h27.75Z"/><path class="cls-11" d="M265.38,227.39a1.57,1.57,0,0,0,1.57,1.57h26.79a1.57,1.57,0,1,0,0-3.14H266.95A1.57,1.57,0,0,0,265.38,227.39Z"/><path class="cls-12" d="M309.9,234.51h-43a1.57,1.57,0,0,0,0,3.14h43a1.57,1.57,0,0,0,0-3.14Z"/><path class="cls-13" d="M309.9,243h-43a1.57,1.57,0,1,0,0,3.14h43a1.57,1.57,0,1,0,0-3.14Z"/><path class="cls-14" d="M266.95,271.91h26.79a1.57,1.57,0,1,0,0-3.14H266.95a1.57,1.57,0,0,0,0,3.14Z"/><path class="cls-15" d="M309.9,277.46h-43a1.57,1.57,0,0,0,0,3.14h43a1.57,1.57,0,0,0,0-3.14Z"/><path class="cls-16" d="M309.9,285.91h-43a1.57,1.57,0,0,0,0,3.14h43a1.57,1.57,0,0,0,0-3.14Z"/><path class="cls-17" d="M229.39,81.38A57.64,57.64,0,0,0,131,122.18a1.57,1.57,0,0,0,1.57,1.57h54.55v54.47a1.57,1.57,0,0,0,1.57,1.57,57.57,57.57,0,0,0,15.87-2.22,1.57,1.57,0,0,0-.86-3,54.23,54.23,0,0,1-13.44,2.08V122.18a1.57,1.57,0,0,0-1.57-1.57H134.11a54.53,54.53,0,1,1,108.12,11.48,1.57,1.57,0,1,0,3.08.57,58,58,0,0,0,1-10.52A57.25,57.25,0,0,0,229.39,81.38Z"/><path class="cls-18" d="M174.16,135.09H118a1.57,1.57,0,0,0-1.57,1.57,57.34,57.34,0,0,0,15.3,39L122,185.41a1.57,1.57,0,0,0,2.22,2.22l9.71-9.71a57.52,57.52,0,0,0,40.2,16.35,1.57,1.57,0,0,0,1.57-1.57v-56A1.57,1.57,0,0,0,174.16,135.09Zm-1.57,56a54.43,54.43,0,0,1-36.39-15.43l11-11a1.57,1.57,0,0,0-2.22-2.22l-11,11a54.18,54.18,0,0,1-14.37-35.21h53Z"/><path class="cls-19" d="M79.21,191.8h31.85a1.57,1.57,0,0,0,0-3.14H79.21a1.57,1.57,0,0,0,0,3.14Z"/><path class="cls-20" d="M79.21,200.48h31.85a1.57,1.57,0,1,0,0-3.14H79.21a1.57,1.57,0,1,0,0,3.14Z"/><path class="cls-21" d="M79.21,209.17h31.85a1.57,1.57,0,1,0,0-3.14H79.21a1.57,1.57,0,1,0,0,3.14Z"/><path class="cls-22" d="M79.21,217.86h31.85a1.57,1.57,0,1,0,0-3.14H79.21a1.57,1.57,0,1,0,0,3.14Z"/><path class="cls-23" d="M112.52,227.21H77.95a1.57,1.57,0,0,0-1.57,1.57v34.57a1.57,1.57,0,0,0,1.57,1.57h34.57a1.57,1.57,0,0,0,1.57-1.57V228.78A1.57,1.57,0,0,0,112.52,227.21Zm-4.15,3.14L95.2,243.51,82,230.35Zm-28.85,1.92L93,245.73,79.52,259.2Zm1.86,29.51L95.2,247.95,109,261.78Zm29.57-2.52L97.42,245.73l13.53-13.53Z"/><path class="cls-24" d="M55.64,317.79a11.36,11.36,0,1,0-12.19,0,14.63,14.63,0,0,0-8.53,13.28,1.57,1.57,0,1,0,3.14,0,11.49,11.49,0,0,1,23,0,1.57,1.57,0,1,0,3.14,0A14.63,14.63,0,0,0,55.64,317.79Zm-14.32-9.58a8.23,8.23,0,1,1,8.23,8.23A8.24,8.24,0,0,1,41.32,308.22Z"/><path class="cls-25" d="M49.55,286.21a28.54,28.54,0,1,0,28.54,28.54A28.57,28.57,0,0,0,49.55,286.21Zm0,53.93a25.4,25.4,0,1,1,25.4-25.4A25.43,25.43,0,0,1,49.55,340.14Z"/><path class="cls-26" d="M92,312.45H89.1a1.57,1.57,0,0,0,0,3.14H92a1.57,1.57,0,0,0,0-3.14Z"/><path class="cls-27" d="M133.26,312.45h-5.79a1.57,1.57,0,0,0,0,3.14h5.79a1.57,1.57,0,0,0,0-3.14Z"/><path class="cls-28" d="M147,312.45h-5.79a1.57,1.57,0,0,0,0,3.14H147a1.57,1.57,0,0,0,0-3.14Z"/><path class="cls-29" d="M119.5,312.45h-5.79a1.57,1.57,0,0,0,0,3.14h5.79a1.57,1.57,0,0,0,0-3.14Z"/><path class="cls-30" d="M105.75,312.45H100a1.57,1.57,0,0,0,0,3.14h5.79a1.57,1.57,0,0,0,0-3.14Z"/><path class="cls-31" d="M157.51,309.44a1.57,1.57,0,0,0-1.57,1.57v1.45H154.5a1.57,1.57,0,0,0,0,3.14h3a1.57,1.57,0,0,0,1.57-1.57v-3A1.57,1.57,0,0,0,157.51,309.44Z"/><path class="cls-32" d="M157.51,295.44a1.57,1.57,0,0,0-1.57,1.57v5.79a1.57,1.57,0,1,0,3.14,0V297A1.57,1.57,0,0,0,157.51,295.44Z"/><path class="cls-33" d="M157.51,267.45a1.57,1.57,0,0,0-1.57,1.57v5.79a1.57,1.57,0,0,0,3.14,0V269A1.57,1.57,0,0,0,157.51,267.45Z"/><path class="cls-34" d="M157.51,239.45a1.57,1.57,0,0,0-1.57,1.57v5.79a1.57,1.57,0,0,0,3.14,0V241A1.57,1.57,0,0,0,157.51,239.45Z"/><path class="cls-35" d="M157.51,281.44a1.57,1.57,0,0,0-1.57,1.57v5.79a1.57,1.57,0,1,0,3.14,0V283A1.57,1.57,0,0,0,157.51,281.44Z"/><path class="cls-36" d="M157.51,253.45a1.57,1.57,0,0,0-1.57,1.57v5.79a1.57,1.57,0,0,0,3.14,0V255A1.57,1.57,0,0,0,157.51,253.45Z"/><path class="cls-37" d="M160.53,228.47h-3a1.57,1.57,0,0,0-1.57,1.57v3a1.57,1.57,0,0,0,3.14,0v-1.45h1.45a1.57,1.57,0,1,0,0-3.14Z"/><path class="cls-38" d="M191.9,228.47h-6.52a1.57,1.57,0,1,0,0,3.14h6.52a1.57,1.57,0,1,0,0-3.14Z"/><path class="cls-39" d="M176.21,228.47H169.7a1.57,1.57,0,1,0,0,3.14h6.52a1.57,1.57,0,1,0,0-3.14Z"/><path class="cls-40" d="M204.45,228.47h-3.14a1.57,1.57,0,1,0,0,3.14h3.14a1.57,1.57,0,1,0,0-3.14Z"/><path class="cls-41" d="M269.47,116.31a1.57,1.57,0,0,1,1.53-1.6h0a1.56,1.56,0,0,1,1.6,1.53h0a1.57,1.57,0,0,1-1.53,1.61h0A1.57,1.57,0,0,1,269.47,116.31Zm-7.4-2a1.57,1.57,0,0,1,0-2.22h0a1.57,1.57,0,0,1,2.22,0h0a1.57,1.57,0,0,1,0,2.22h0a1.56,1.56,0,0,1-1.13.48h0A1.56,1.56,0,0,1,262.06,114.34Zm15.62-.38a1.57,1.57,0,0,1-.07-2.22h0a1.57,1.57,0,0,1,2.22-.07h0a1.57,1.57,0,0,1,.07,2.22h0a1.56,1.56,0,0,1-1.14.49h0A1.57,1.57,0,0,1,277.68,114Zm-19.46-8.5h0a1.57,1.57,0,0,1,1.55-1.59h0a1.57,1.57,0,0,1,1.59,1.55h0a1.57,1.57,0,0,1-1.55,1.59h0A1.57,1.57,0,0,1,258.22,105.47Zm21.93-.51h0a1.57,1.57,0,0,1,1.51-1.62h0a1.57,1.57,0,0,1,1.63,1.51h0a1.57,1.57,0,0,1-1.51,1.62h-.06A1.57,1.57,0,0,1,280.15,105Zm-18.3-6.24a1.57,1.57,0,0,1,0-2.22h0a1.57,1.57,0,0,1,2.22,0h0a1.57,1.57,0,0,1,0,2.22h0a1.56,1.56,0,0,1-1.11.47h0A1.57,1.57,0,0,1,261.85,98.72Zm15.26-.34a1.57,1.57,0,0,1-.1-2.22h0a1.57,1.57,0,0,1,2.22-.1h0a1.57,1.57,0,0,1,.1,2.22h0a1.56,1.56,0,0,1-1.16.51h0A1.56,1.56,0,0,1,277.11,98.38Zm-7.92-4a1.57,1.57,0,0,1,1.57-1.57h0a1.57,1.57,0,0,1,1.57,1.57h0a1.57,1.57,0,0,1-1.57,1.57h0A1.57,1.57,0,0,1,269.19,94.34Z"/><path class="cls-42" d="M365.26,350.24a1.57,1.57,0,0,1,1.53-1.61h0a1.57,1.57,0,0,1,1.6,1.53h0a1.57,1.57,0,0,1-1.53,1.61h0A1.57,1.57,0,0,1,365.26,350.24Zm-7.41-2a1.57,1.57,0,0,1,0-2.22h0a1.57,1.57,0,0,1,2.22,0h0a1.57,1.57,0,0,1,0,2.22h0a1.55,1.55,0,0,1-1.13.48h0A1.56,1.56,0,0,1,357.85,348.27Zm15.62-.38a1.57,1.57,0,0,1-.07-2.22h0a1.57,1.57,0,0,1,2.22-.07h0a1.57,1.57,0,0,1,.07,2.22h0a1.56,1.56,0,0,1-1.14.49h0A1.56,1.56,0,0,1,373.47,347.89ZM354,339.39a1.57,1.57,0,0,1,1.55-1.59h0a1.57,1.57,0,0,1,1.59,1.55h0a1.57,1.57,0,0,1-1.55,1.59h0A1.57,1.57,0,0,1,354,339.39Zm21.93-.51h0a1.57,1.57,0,0,1,1.51-1.62h0a1.56,1.56,0,0,1,1.62,1.51h0a1.57,1.57,0,0,1-1.51,1.63h-.06A1.57,1.57,0,0,1,375.95,338.88Zm-18.3-6.24a1.57,1.57,0,0,1,0-2.22h0a1.57,1.57,0,0,1,2.22,0h0a1.57,1.57,0,0,1,0,2.22h0a1.58,1.58,0,0,1-1.12.47h0A1.57,1.57,0,0,1,357.64,332.64Zm15.26-.34a1.57,1.57,0,0,1-.1-2.22h0A1.57,1.57,0,0,1,375,330h0a1.57,1.57,0,0,1,.1,2.22h0a1.56,1.56,0,0,1-1.16.51h0A1.55,1.55,0,0,1,372.9,332.3Zm-7.92-4a1.57,1.57,0,0,1,1.57-1.57h0a1.57,1.57,0,0,1,1.57,1.57h0a1.57,1.57,0,0,1-1.57,1.57h0A1.57,1.57,0,0,1,365,328.27Z"/><path class="cls-43" d="M172.87,345.6A1.57,1.57,0,0,1,174.4,344h0a1.57,1.57,0,0,1,1.61,1.53h0a1.57,1.57,0,0,1-1.53,1.61h0A1.57,1.57,0,0,1,172.87,345.6Zm-7.4-2h0a1.57,1.57,0,0,1,0-2.22h0a1.57,1.57,0,0,1,2.22,0h0a1.57,1.57,0,0,1,0,2.22h0a1.57,1.57,0,0,1-1.13.48h0A1.56,1.56,0,0,1,165.46,343.62Zm15.62-.38A1.57,1.57,0,0,1,181,341h0a1.57,1.57,0,0,1,2.22-.07h0a1.57,1.57,0,0,1,.07,2.22h0a1.57,1.57,0,0,1-1.15.49h0A1.56,1.56,0,0,1,181.08,343.25Zm-19.46-8.5a1.57,1.57,0,0,1,1.55-1.59h0a1.57,1.57,0,0,1,1.59,1.55h0a1.57,1.57,0,0,1-1.55,1.59h0A1.57,1.57,0,0,1,161.63,334.75Zm21.93-.51a1.57,1.57,0,0,1,1.51-1.62h0a1.57,1.57,0,0,1,1.62,1.51h0a1.57,1.57,0,0,1-1.51,1.63h-.06A1.57,1.57,0,0,1,183.56,334.24ZM165.25,328a1.57,1.57,0,0,1,0-2.22h0a1.57,1.57,0,0,1,2.22,0h0a1.57,1.57,0,0,1,0,2.22h0a1.57,1.57,0,0,1-1.11.47h0A1.56,1.56,0,0,1,165.25,328Zm15.26-.34a1.57,1.57,0,0,1-.09-2.22h0a1.57,1.57,0,0,1,2.22-.1h0a1.57,1.57,0,0,1,.1,2.22h0a1.57,1.57,0,0,1-1.16.51h0A1.56,1.56,0,0,1,180.51,327.66Zm-7.92-4a1.57,1.57,0,0,1,1.57-1.57h0a1.57,1.57,0,0,1,1.57,1.57h0a1.57,1.57,0,0,1-1.57,1.57h0A1.57,1.57,0,0,1,172.59,323.62Z"/><path class="cls-44" d="M36.28,255.53a1.57,1.57,0,0,1,1.53-1.61h0a1.57,1.57,0,0,1,1.61,1.53h0a1.57,1.57,0,0,1-1.53,1.61h0A1.57,1.57,0,0,1,36.28,255.53Zm-7.4-2a1.57,1.57,0,0,1,0-2.22h0a1.57,1.57,0,0,1,2.22,0h0a1.57,1.57,0,0,1,0,2.22h0A1.57,1.57,0,0,1,30,254h0A1.56,1.56,0,0,1,28.88,253.55Zm15.62-.38a1.57,1.57,0,0,1-.07-2.22h0a1.57,1.57,0,0,1,2.22-.07h0a1.57,1.57,0,0,1,.07,2.22h0a1.56,1.56,0,0,1-1.14.49h0A1.56,1.56,0,0,1,44.5,253.18ZM25,244.68h0a1.57,1.57,0,0,1,1.55-1.59h0a1.57,1.57,0,0,1,1.59,1.55h0a1.57,1.57,0,0,1-1.55,1.59h0A1.57,1.57,0,0,1,25,244.68ZM47,244.17a1.57,1.57,0,0,1,1.51-1.62h0a1.56,1.56,0,0,1,1.62,1.51h0a1.57,1.57,0,0,1-1.51,1.63h-.06A1.57,1.57,0,0,1,47,244.17Zm-18.3-6.24a1.57,1.57,0,0,1,0-2.22h0a1.57,1.57,0,0,1,2.22,0h0a1.57,1.57,0,0,1,0,2.22h0a1.56,1.56,0,0,1-1.11.47h0A1.56,1.56,0,0,1,28.67,237.93Zm15.26-.34a1.57,1.57,0,0,1-.1-2.22h0a1.57,1.57,0,0,1,2.22-.1h0a1.57,1.57,0,0,1,.1,2.22h0A1.57,1.57,0,0,1,45,238h0A1.56,1.56,0,0,1,43.93,237.59Zm-7.92-4A1.57,1.57,0,0,1,37.58,232h0a1.57,1.57,0,0,1,1.57,1.57h0a1.57,1.57,0,0,1-1.57,1.57h0A1.57,1.57,0,0,1,36,233.55Z"/><path class="cls-45" d="M377.83,140.52a1.57,1.57,0,0,1-1.57-1.57V128.09a1.57,1.57,0,0,1,3.14,0v10.86A1.57,1.57,0,0,1,377.83,140.52Z"/><path class="cls-46" d="M383.26,135.09H372.4a1.57,1.57,0,1,1,0-3.14h10.86a1.57,1.57,0,1,1,0,3.14Z"/><path class="cls-47" d="M372.28,277.34a1.57,1.57,0,0,1-1.57-1.57V264.91a1.57,1.57,0,0,1,3.14,0v10.86A1.57,1.57,0,0,1,372.28,277.34Z"/><path class="cls-48" d="M377.71,271.91H366.85a1.57,1.57,0,1,1,0-3.14h10.86a1.57,1.57,0,0,1,0,3.14Z"/><path class="cls-49" d="M279.86,348.77a1.57,1.57,0,0,1-1.57-1.57V336.34a1.57,1.57,0,0,1,3.14,0V347.2A1.57,1.57,0,0,1,279.86,348.77Z"/><path class="cls-50" d="M285.29,343.34H274.43a1.57,1.57,0,1,1,0-3.14h10.86a1.57,1.57,0,1,1,0,3.14Z"/><path class="cls-51" d="M132.41,294.72a1.57,1.57,0,0,1-1.57-1.57V282.29a1.57,1.57,0,0,1,3.14,0v10.86A1.57,1.57,0,0,1,132.41,294.72Z"/><path class="cls-52" d="M137.84,289.29H127a1.57,1.57,0,1,1,0-3.14h10.86a1.57,1.57,0,1,1,0,3.14Z"/><path class="cls-53" d="M89,145.82a1.57,1.57,0,0,1-1.57-1.57V133.4a1.57,1.57,0,0,1,3.14,0v10.86A1.57,1.57,0,0,1,89,145.82Z"/><path class="cls-54" d="M94.41,140.4H83.55a1.57,1.57,0,1,1,0-3.14H94.41a1.57,1.57,0,0,1,0,3.14Z"/><path class="cls-55" d="M244.63,57.75a1.57,1.57,0,0,1-1.57-1.57V45.32a1.57,1.57,0,0,1,3.14,0V56.18A1.57,1.57,0,0,1,244.63,57.75Z"/><path class="cls-56" d="M250.06,52.32H239.2a1.57,1.57,0,1,1,0-3.14h10.86a1.57,1.57,0,0,1,0,3.14Z"/><path class="cls-57" d="M336.57,261.41a1.57,1.57,0,0,1-1.57-1.57v-8a1.57,1.57,0,0,1,3.14,0v8A1.57,1.57,0,0,1,336.57,261.41Z"/><path class="cls-58" d="M80.93,62.12A33.67,33.67,0,0,0,56,52.72,34.71,34.71,0,0,0,32.89,62.9,34.13,34.13,0,0,0,22.74,86c-.42,12.73,5.44,23.87,15.4,30.08v11.41c0,2.3,1.74,4.81,3.88,6.18v11.54a2.4,2.4,0,0,0,2.4,2.4H70.94a2.4,2.4,0,0,0,2.4-2.4V133.55a5.08,5.08,0,0,0,1.29-2.23,13.82,13.82,0,0,0,.41-3.83V116.11a33.28,33.28,0,0,0,16.47-29A34.37,34.37,0,0,0,80.93,62.12Zm-34.11,80.7v-8.11H68.54v8.11ZM71.5,112.6a2.4,2.4,0,0,0-1.26,2.11v12.78c0,.64,0,1.13-.05,1.51H65.37a2.38,2.38,0,0,0,.07-.57v-26.2a2.4,2.4,0,0,0-4.8,0v26.2a2.38,2.38,0,0,0,.07.57h-7.9a2.38,2.38,0,0,0,.07-.57v-26.2a2.4,2.4,0,0,0-4.8,0v26.2a2.38,2.38,0,0,0,.07.57H44.42a2.39,2.39,0,0,0-.55.07,3,3,0,0,1-.94-1.58V114.71a2.4,2.4,0,0,0-1.23-2.09c-9.38-5.23-14.55-14.87-14.17-26.45A29.88,29.88,0,0,1,56.22,57.51a28.91,28.91,0,0,1,21.39,8.06,29.62,29.62,0,0,1,9.1,21.57A28.57,28.57,0,0,1,71.5,112.6Z"/><path class="cls-59" d="M57.68,71.13a16.42,16.42,0,0,0-16.4,16.4,2.4,2.4,0,0,0,4.8,0,11.6,11.6,0,1,1,23.21,0,2.4,2.4,0,1,0,4.8,0A16.42,16.42,0,0,0,57.68,71.13Z"/></svg>