<svg id="Layer_1" data-name="Layer 1" xmlns="http://www.w3.org/2000/svg" xmlns:xlink="http://www.w3.org/1999/xlink" viewBox="0 0 400 400"><defs><style>.cls-1{fill:url(#linear-gradient);}.cls-2{fill:url(#linear-gradient-2);}.cls-3{fill:url(#linear-gradient-3);}.cls-4{fill:url(#linear-gradient-4);}.cls-5{fill:url(#linear-gradient-5);}.cls-6{fill:url(#linear-gradient-6);}.cls-7{fill:url(#linear-gradient-7);}.cls-8{fill:url(#linear-gradient-8);}.cls-9{fill:url(#linear-gradient-9);}.cls-10{fill:url(#linear-gradient-10);}.cls-11{fill:url(#linear-gradient-11);}.cls-12{fill:url(#linear-gradient-12);}.cls-13{fill:url(#linear-gradient-13);}.cls-14{fill:url(#linear-gradient-14);}.cls-15{fill:url(#linear-gradient-15);}.cls-16{fill:url(#linear-gradient-16);}.cls-17{fill:url(#linear-gradient-17);}.cls-18{fill:url(#linear-gradient-18);}.cls-19{fill:url(#linear-gradient-19);}.cls-20{fill:url(#linear-gradient-20);}.cls-21{fill:url(#linear-gradient-21);}.cls-22{fill:url(#linear-gradient-22);}.cls-23{fill:url(#linear-gradient-23);}.cls-24{fill:url(#linear-gradient-24);}.cls-25{fill:url(#linear-gradient-25);}.cls-26{fill:url(#linear-gradient-26);}.cls-27{fill:url(#linear-gradient-27);}.cls-28{fill:url(#linear-gradient-28);}.cls-29{fill:url(#linear-gradient-29);}.cls-30{fill:url(#linear-gradient-30);}.cls-31{fill:url(#linear-gradient-31);}.cls-32{fill:url(#linear-gradient-32);}.cls-33{fill:url(#linear-gradient-33);}.cls-34{fill:url(#linear-gradient-34);}.cls-35{fill:url(#linear-gradient-35);}.cls-36{fill:url(#linear-gradient-36);}.cls-37{fill:url(#linear-gradient-37);}.cls-38{fill:url(#linear-gradient-38);}.cls-39{fill:url(#linear-gradient-39);}.cls-40{fill:url(#linear-gradient-40);}.cls-41{fill:url(#linear-gradient-41);}.cls-42{fill:url(#linear-gradient-42);}.cls-43{fill:url(#linear-gradient-43);}</style><linearGradient id="linear-gradient" x1="224.11" y1="93.7" x2="386.32" y2="290.22" gradientTransform="matrix(1, 0, 0, -1, 0, 402)" gradientUnits="userSpaceOnUse"><stop offset="0" stop-color="#6896c5"/><stop offset="1" stop-color="#d13852"/></linearGradient><linearGradient id="linear-gradient-2" x1="232.98" y1="104.49" x2="377.47" y2="279.55" xlink:href="#linear-gradient"/><linearGradient id="linear-gradient-3" x1="239.16" y1="219.63" x2="265.09" y2="251.05" xlink:href="#linear-gradient"/><linearGradient id="linear-gradient-4" x1="264.98" y1="215.85" x2="281.55" y2="235.92" xlink:href="#linear-gradient"/><linearGradient id="linear-gradient-5" x1="280.32" y1="220.72" x2="308.93" y2="255.38" xlink:href="#linear-gradient"/><linearGradient id="linear-gradient-6" x1="306.85" y1="216.36" x2="324.76" y2="238.06" xlink:href="#linear-gradient"/><linearGradient id="linear-gradient-7" x1="325.43" y1="218.57" x2="348.68" y2="246.75" xlink:href="#linear-gradient"/><linearGradient id="linear-gradient-8" x1="344.1" y1="220.7" x2="372.7" y2="255.36" xlink:href="#linear-gradient"/><linearGradient id="linear-gradient-9" x1="247.31" y1="158.4" x2="280.82" y2="198.99" xlink:href="#linear-gradient"/><linearGradient id="linear-gradient-10" x1="247.37" y1="109.85" x2="280.88" y2="150.45" xlink:href="#linear-gradient"/><linearGradient id="linear-gradient-11" x1="303.63" y1="179.52" x2="318.14" y2="197.1" xlink:href="#linear-gradient"/><linearGradient id="linear-gradient-12" x1="309.02" y1="165.28" x2="330.93" y2="191.82" xlink:href="#linear-gradient"/><linearGradient id="linear-gradient-13" x1="309.05" y1="155.72" x2="330.96" y2="182.26" xlink:href="#linear-gradient"/><linearGradient id="linear-gradient-14" x1="303.54" y1="131.11" x2="318.05" y2="148.68" xlink:href="#linear-gradient"/><linearGradient id="linear-gradient-15" x1="309.05" y1="116.77" x2="330.96" y2="143.31" xlink:href="#linear-gradient"/><linearGradient id="linear-gradient-16" x1="309.02" y1="107.25" x2="330.93" y2="133.79" xlink:href="#linear-gradient"/><linearGradient id="linear-gradient-17" x1="171.99" y1="270.67" x2="245.66" y2="359.92" xlink:href="#linear-gradient"/><linearGradient id="linear-gradient-18" x1="135.62" y1="230.44" x2="188.8" y2="294.87" xlink:href="#linear-gradient"/><linearGradient id="linear-gradient-19" x1="93.33" y1="220.13" x2="110.16" y2="240.51" xlink:href="#linear-gradient"/><linearGradient id="linear-gradient-20" x1="93.34" y1="210.31" x2="110.17" y2="230.7" xlink:href="#linear-gradient"/><linearGradient id="linear-gradient-21" x1="93.35" y1="200.5" x2="110.17" y2="220.88" xlink:href="#linear-gradient"/><linearGradient id="linear-gradient-22" x1="93.35" y1="190.68" x2="110.18" y2="211.07" xlink:href="#linear-gradient"/><linearGradient id="linear-gradient-23" x1="83.25" y1="144.73" x2="120.48" y2="189.83" xlink:href="#linear-gradient"/><linearGradient id="linear-gradient-24" x1="36.99" y1="67.81" x2="64.92" y2="101.65" xlink:href="#linear-gradient"/><linearGradient id="linear-gradient-25" x1="29.76" y1="64.98" x2="70.73" y2="114.62" xlink:href="#linear-gradient"/><linearGradient id="linear-gradient-26" x1="94.83" y1="88.34" x2="98.41" y2="92.68" xlink:href="#linear-gradient"/><linearGradient id="linear-gradient-27" x1="139.14" y1="87.52" x2="144.05" y2="93.46" xlink:href="#linear-gradient"/><linearGradient id="linear-gradient-28" x1="154.63" y1="87.55" x2="159.54" y2="93.5" xlink:href="#linear-gradient"/><linearGradient id="linear-gradient-29" x1="123.58" y1="87.55" x2="128.49" y2="93.49" xlink:href="#linear-gradient"/><linearGradient id="linear-gradient-30" x1="108.09" y1="87.52" x2="112.99" y2="93.46" xlink:href="#linear-gradient"/><linearGradient id="linear-gradient-31" x1="168.64" y1="88.36" x2="173.95" y2="94.79" xlink:href="#linear-gradient"/><linearGradient id="linear-gradient-32" x1="169.43" y1="103.19" x2="174.9" y2="109.81" xlink:href="#linear-gradient"/><linearGradient id="linear-gradient-33" x1="169.43" y1="134.79" x2="174.89" y2="141.41" xlink:href="#linear-gradient"/><linearGradient id="linear-gradient-34" x1="169.48" y1="166.36" x2="174.95" y2="172.98" xlink:href="#linear-gradient"/><linearGradient id="linear-gradient-35" x1="169.43" y1="118.99" x2="174.9" y2="125.61" xlink:href="#linear-gradient"/><linearGradient id="linear-gradient-36" x1="169.48" y1="150.55" x2="174.95" y2="157.17" xlink:href="#linear-gradient"/><linearGradient id="linear-gradient-37" x1="170.41" y1="181.12" x2="175.71" y2="187.55" xlink:href="#linear-gradient"/><linearGradient id="linear-gradient-38" x1="204.74" y1="182.16" x2="209.98" y2="188.5" xlink:href="#linear-gradient"/><linearGradient id="linear-gradient-39" x1="187.02" y1="182.17" x2="192.26" y2="188.51" xlink:href="#linear-gradient"/><linearGradient id="linear-gradient-40" x1="221.56" y1="183.12" x2="225.25" y2="187.59" xlink:href="#linear-gradient"/><linearGradient id="linear-gradient-41" x1="370.96" y1="152.2" x2="377.63" y2="160.28" xlink:href="#linear-gradient"/><linearGradient id="linear-gradient-42" x1="25.94" y1="292.95" x2="90.48" y2="371.15" xlink:href="#linear-gradient"/><linearGradient id="linear-gradient-43" x1="49.94" y1="337.56" x2="69.86" y2="361.69" xlink:href="#linear-gradient"/></defs><title>business</title><g id="Layer_3" data-name="Layer 3"><path class="cls-1" d="M375.73,106.06h-141a10.31,10.31,0,0,0-10.27,10.27V303.75A10.31,10.31,0,0,0,234.71,314h141A10.31,10.31,0,0,0,386,303.75V116.33A10.31,10.31,0,0,0,375.73,106.06Zm6.77,197.69a6.79,6.79,0,0,1-6.77,6.77h-141a6.79,6.79,0,0,1-6.77-6.77V116.33a6.79,6.79,0,0,1,6.77-6.77h141a6.79,6.79,0,0,1,6.77,6.77Z"/><path class="cls-2" d="M369.63,117.91H240.81a6.43,6.43,0,0,0-6.44,6.44V295.62a6.43,6.43,0,0,0,6.44,6.44H369.63a6.43,6.43,0,0,0,6.44-6.44V273.49a1.81,1.81,0,1,0-3.61,0v22.13a3,3,0,0,1-2.94,2.94H240.81a3,3,0,0,1-2.94-2.94V124.46a3,3,0,0,1,2.94-2.94H369.63a3,3,0,0,1,2.94,2.94v98.9a1.81,1.81,0,1,0,3.61,0v-98.9A6.55,6.55,0,0,0,369.63,117.91Z"/><path class="cls-3" d="M246.68,188h11a1.78,1.78,0,0,0,1.81-1.81V147a1.78,1.78,0,0,0-1.81-1.81h-11a1.78,1.78,0,0,0-1.81,1.81v39.18A1.78,1.78,0,0,0,246.68,188Zm1.69-39.18h7.34v35.68h-7.34Z"/><path class="cls-4" d="M278.74,188a1.78,1.78,0,0,0,1.81-1.81V166a1.78,1.78,0,0,0-1.81-1.81h-11A1.78,1.78,0,0,0,266,166v20.21a1.78,1.78,0,0,0,1.81,1.81Zm-9-20.21H277v16.6h-7.34Z"/><path class="cls-5" d="M300.08,139.82h-11a1.78,1.78,0,0,0-1.81,1.81v44.71a1.78,1.78,0,0,0,1.81,1.81h11a1.78,1.78,0,0,0,1.81-1.81V141.62A1.94,1.94,0,0,0,300.08,139.82Zm-1.81,44.71h-7.34v-41.1h7.34Z"/><path class="cls-6" d="M321.31,188a1.78,1.78,0,0,0,1.81-1.81V163.3a1.78,1.78,0,0,0-1.81-1.81h-11a1.78,1.78,0,0,0-1.81,1.81v22.92a1.78,1.78,0,0,0,1.81,1.81Zm-9.15-22.92h7.34v19.31h-7.34Z"/><path class="cls-7" d="M342.53,188a1.78,1.78,0,0,0,1.81-1.81V152.46a1.78,1.78,0,0,0-1.81-1.81h-11a1.78,1.78,0,0,0-1.81,1.81v33.76a1.78,1.78,0,0,0,1.81,1.81Zm-9.15-33.76h7.34v30.26h-7.34Z"/><path class="cls-8" d="M352.92,139.82a1.78,1.78,0,0,0-1.81,1.81v44.71a1.78,1.78,0,0,0,1.81,1.81h11a1.78,1.78,0,0,0,1.81-1.81V141.62a1.78,1.78,0,0,0-1.81-1.81Zm9.15,44.71h-7.34v-41.1h7.34Z"/><path class="cls-9" d="M283.26,205.86a1.78,1.78,0,0,0-1.81-1.81H246.57a1.78,1.78,0,0,0-1.81,1.81v34.89a1.78,1.78,0,0,0,1.81,1.81h35a1.78,1.78,0,0,0,1.81-1.81V205.86Zm-3.5,33.08H248.37V207.56h31.39Z"/><path class="cls-10" d="M281.56,252.61H246.68a1.78,1.78,0,0,0-1.81,1.81V289.3a1.78,1.78,0,0,0,1.81,1.81h34.89a1.78,1.78,0,0,0,1.81-1.81V254.41A1.94,1.94,0,0,0,281.56,252.61Zm-1.81,34.89H248.37V256.11h31.39Z"/><path class="cls-11" d="M294,213.65a1.78,1.78,0,0,0,1.81,1.81H326a1.81,1.81,0,0,0,0-3.61H295.79A1.78,1.78,0,0,0,294,213.65Z"/><path class="cls-12" d="M344.23,221.67H295.68a1.81,1.81,0,0,0,0,3.61h48.55a1.81,1.81,0,0,0,0-3.61Z"/><path class="cls-13" d="M344.23,231.27H295.68a1.81,1.81,0,0,0,0,3.61h48.55a1.81,1.81,0,0,0,0-3.61Z"/><path class="cls-14" d="M295.68,263.9h30.26a1.81,1.81,0,0,0,0-3.61H295.68a1.78,1.78,0,0,0-1.81,1.81A1.86,1.86,0,0,0,295.68,263.9Z"/><path class="cls-15" d="M344.23,270.22H295.68a1.81,1.81,0,0,0,0,3.61h48.55a1.81,1.81,0,0,0,0-3.61Z"/><path class="cls-16" d="M344.23,279.7H295.68a1.81,1.81,0,0,0,0,3.61h48.55a1.81,1.81,0,0,0,0-3.61Z"/><path class="cls-17" d="M253.34,48.82a65.09,65.09,0,0,0-111.21,46,1.78,1.78,0,0,0,1.81,1.81h61.53v61.53a1.78,1.78,0,0,0,1.81,1.81,64.4,64.4,0,0,0,18-2.48,1.75,1.75,0,0,0-.9-3.39,63,63,0,0,1-15.13,2.37V95a1.78,1.78,0,0,0-1.81-1.81H145.86a61.54,61.54,0,1,1,122,12.87,1.65,1.65,0,0,0,1.47,2,1.7,1.7,0,0,0,2-1.47,69.13,69.13,0,0,0,1.13-11.85A65.05,65.05,0,0,0,253.34,48.82Z"/><path class="cls-18" d="M191,109.44H127.68a1.78,1.78,0,0,0-1.81,1.81,64.77,64.77,0,0,0,17.27,44l-11,11a1.77,1.77,0,0,0,0,2.48,1.65,1.65,0,0,0,2.48,0l11-11A65,65,0,0,0,191,176.17a1.78,1.78,0,0,0,1.81-1.81V111.14A1.93,1.93,0,0,0,191,109.44Zm-1.81,63.23a61.48,61.48,0,0,1-41.1-17.39l12.42-12.42a1.76,1.76,0,0,0-2.48-2.48L145.63,152.8a61.23,61.23,0,0,1-16.26-39.74h59.84v59.61Z"/><path class="cls-19" d="M83.76,173.46h36a1.81,1.81,0,0,0,0-3.61h-36a1.81,1.81,0,0,0,0,3.61Z"/><path class="cls-20" d="M83.76,183.28h36a1.81,1.81,0,0,0,0-3.61h-36a1.81,1.81,0,0,0,0,3.61Z"/><path class="cls-21" d="M83.76,193.11h36a1.81,1.81,0,0,0,0-3.61h-36a1.81,1.81,0,0,0,0,3.61Z"/><path class="cls-22" d="M83.76,202.93h36a1.81,1.81,0,0,0,0-3.61h-36a1.81,1.81,0,0,0,0,3.61Z"/><path class="cls-23" d="M121.36,213.43H82.29a1.78,1.78,0,0,0-1.81,1.81V254.3a1.78,1.78,0,0,0,1.81,1.81h39.06a1.78,1.78,0,0,0,1.81-1.81V215.23A1.78,1.78,0,0,0,121.36,213.43Zm-4.63,3.5-14.9,14.9-14.9-14.9ZM84.1,219.19l15.24,15.24L84.1,249.67Zm2.15,33.31,15.58-15.58,15.58,15.58Zm33.31-2.82-15.24-15.35,15.24-15.24Z"/><path class="cls-24" d="M57.11,315.72a12.87,12.87,0,1,0-13.77,0,16.54,16.54,0,0,0-9.6,15,1.81,1.81,0,0,0,3.61,0,13,13,0,1,1,26,0,1.81,1.81,0,1,0,3.61,0A16.74,16.74,0,0,0,57.11,315.72ZM41,304.88a9.26,9.26,0,1,1,9.26,9.26A9.3,9.3,0,0,1,41,304.88Z"/><path class="cls-25" d="M50.23,280A32.18,32.18,0,1,0,82.4,312.22,32.24,32.24,0,0,0,50.23,280Zm0,60.85A28.68,28.68,0,1,1,78.9,312.22,28.72,28.72,0,0,1,50.23,340.9Z"/><path class="cls-26" d="M98.21,309.73H94.94a1.81,1.81,0,0,0,0,3.61h3.27a1.81,1.81,0,0,0,0-3.61Z"/><path class="cls-27" d="M144.84,309.73h-6.55a1.81,1.81,0,0,0,0,3.61h6.55a1.78,1.78,0,0,0,1.81-1.81A1.86,1.86,0,0,0,144.84,309.73Z"/><path class="cls-28" d="M160.31,309.73h-6.55a1.81,1.81,0,0,0,0,3.61h6.55a1.81,1.81,0,0,0,0-3.61Z"/><path class="cls-29" d="M129.26,309.73h-6.55a1.81,1.81,0,0,0,0,3.61h6.55a1.81,1.81,0,0,0,0-3.61Z"/><path class="cls-30" d="M113.79,309.73h-6.55a1.81,1.81,0,0,0,0,3.61h6.55a1.78,1.78,0,0,0,1.81-1.81A1.86,1.86,0,0,0,113.79,309.73Z"/><path class="cls-31" d="M172.16,306.23a1.78,1.78,0,0,0-1.81,1.81v1.58h-1.58a1.81,1.81,0,0,0,0,3.61h3.39a1.78,1.78,0,0,0,1.81-1.81V308A1.78,1.78,0,0,0,172.16,306.23Z"/><path class="cls-32" d="M172.16,290.43a1.78,1.78,0,0,0-1.81,1.81v6.55a1.81,1.81,0,1,0,3.61,0v-6.55A1.78,1.78,0,0,0,172.16,290.43Z"/><path class="cls-33" d="M172.16,258.81a1.78,1.78,0,0,0-1.81,1.81v6.55a1.81,1.81,0,1,0,3.61,0v-6.55A1.78,1.78,0,0,0,172.16,258.81Z"/><path class="cls-34" d="M172.16,227.32a1.78,1.78,0,0,0-1.81,1.81v6.55a1.81,1.81,0,1,0,3.61,0V229A1.76,1.76,0,0,0,172.16,227.32Z"/><path class="cls-35" d="M172.16,274.62a1.78,1.78,0,0,0-1.81,1.81V283a1.81,1.81,0,1,0,3.61,0v-6.55A1.78,1.78,0,0,0,172.16,274.62Z"/><path class="cls-36" d="M172.16,243.12a1.78,1.78,0,0,0-1.81,1.81v6.55a1.81,1.81,0,1,0,3.61,0v-6.66A1.76,1.76,0,0,0,172.16,243.12Z"/><path class="cls-37" d="M175.55,214.9h-3.39a1.78,1.78,0,0,0-1.81,1.81v3.39a1.81,1.81,0,1,0,3.61,0v-1.58h1.58a1.81,1.81,0,0,0,0-3.61Z"/><path class="cls-38" d="M211,214.9h-7.34a1.81,1.81,0,0,0,0,3.61H211a1.81,1.81,0,0,0,0-3.61Z"/><path class="cls-39" d="M193.28,214.9h-7.34a1.81,1.81,0,0,0,0,3.61h7.34a1.81,1.81,0,0,0,0-3.61Z"/><path class="cls-40" d="M225.11,214.9h-3.5a1.81,1.81,0,0,0,0,3.61h3.5a1.81,1.81,0,0,0,0-3.61Z"/><path class="cls-41" d="M374.37,252a1.78,1.78,0,0,1-1.81-1.81v-9a1.81,1.81,0,1,1,3.61,0v9A1.94,1.94,0,0,1,374.37,252Z"/><path class="cls-42" d="M85.68,27A38,38,0,0,0,57.57,16.41,38.81,38.81,0,0,0,31.49,27.93,38.3,38.3,0,0,0,20,54c-.45,14.34,6.1,27,17.39,34v12.87c0,2.6,1.92,5.42,4.4,7v13a2.75,2.75,0,0,0,2.71,2.71H74.39a2.75,2.75,0,0,0,2.71-2.71V107.64a6.06,6.06,0,0,0,1.47-2.48,13.89,13.89,0,0,0,.45-4.29V88A37.67,37.67,0,0,0,97.65,55.25,38.66,38.66,0,0,0,85.68,27Zm-38.5,91.11V109h24.5v9.15ZM75.07,84a2.63,2.63,0,0,0-1.47,2.37v14.45a7.48,7.48,0,0,1-.11,1.69H68.18c0-.23.11-.45.11-.68V72.3a2.71,2.71,0,0,0-5.42,0v29.58a1.43,1.43,0,0,0,.11.68H54.07c0-.23.11-.45.11-.68V72.3a2.71,2.71,0,1,0-5.42,0v29.58a1.43,1.43,0,0,0,.11.68h-4.4a1.43,1.43,0,0,0-.68.11,3.3,3.3,0,0,1-1-1.81V86.41A2.75,2.75,0,0,0,41.42,84C30.81,78.17,25,67.22,25.39,54.12a33.7,33.7,0,0,1,32.4-32.29A32.63,32.63,0,0,1,82,31,33.25,33.25,0,0,1,92.23,55.36,32.37,32.37,0,0,1,75.07,84Z"/><path class="cls-43" d="M59.49,37.19A18.6,18.6,0,0,0,41,55.7a2.71,2.71,0,1,0,5.42,0,13.1,13.1,0,1,1,26.19,0,2.71,2.71,0,0,0,5.42,0A18.6,18.6,0,0,0,59.49,37.19Z"/></g></svg>