<svg id="Layer_3" data-name="Layer 3" xmlns="http://www.w3.org/2000/svg" xmlns:xlink="http://www.w3.org/1999/xlink" viewBox="0 0 400 400"><defs><style>.cls-1{fill:#fff;}.cls-2{fill:#f9f3a5;}.cls-3{fill:url(#linear-gradient);}.cls-4{fill:url(#linear-gradient-2);}.cls-5{fill:url(#linear-gradient-3);}.cls-6{fill:url(#linear-gradient-4);}.cls-7{fill:url(#linear-gradient-5);}.cls-8{fill:url(#linear-gradient-6);}.cls-9{fill:url(#linear-gradient-7);}.cls-10{fill:#7f7f7f;}.cls-11{fill:url(#linear-gradient-8);}.cls-12{fill:url(#linear-gradient-9);}.cls-13{fill:url(#linear-gradient-10);}.cls-14{fill:url(#linear-gradient-11);}.cls-15{fill:url(#linear-gradient-12);}.cls-16{fill:url(#linear-gradient-13);}.cls-17{fill:url(#linear-gradient-14);}.cls-18{fill:url(#linear-gradient-15);}.cls-19{fill:url(#linear-gradient-16);}.cls-20{fill:url(#linear-gradient-17);}.cls-21{fill:url(#linear-gradient-18);}.cls-22{fill:url(#linear-gradient-19);}.cls-23{fill:url(#linear-gradient-20);}.cls-24{fill:url(#linear-gradient-21);}.cls-25{fill:url(#linear-gradient-22);}.cls-26{fill:url(#linear-gradient-23);}.cls-27{fill:url(#linear-gradient-24);}.cls-28{fill:url(#linear-gradient-25);}.cls-29{fill:url(#linear-gradient-26);}.cls-30{fill:url(#linear-gradient-27);}.cls-31{fill:url(#linear-gradient-28);}.cls-32{fill:url(#linear-gradient-29);}.cls-33{fill:url(#linear-gradient-30);}.cls-34{fill:url(#linear-gradient-31);}.cls-35{fill:url(#linear-gradient-32);}.cls-36{fill:url(#linear-gradient-33);}.cls-37{fill:url(#linear-gradient-34);}.cls-38{fill:url(#linear-gradient-35);}.cls-39{fill:url(#linear-gradient-36);}.cls-40{fill:url(#linear-gradient-37);}.cls-41{fill:url(#linear-gradient-38);}.cls-42{fill:url(#linear-gradient-39);}.cls-43{fill:url(#linear-gradient-40);}.cls-44{fill:url(#linear-gradient-41);}.cls-45{fill:url(#linear-gradient-42);}.cls-46{fill:url(#linear-gradient-43);}.cls-47{fill:url(#linear-gradient-44);}.cls-48{fill:url(#linear-gradient-45);}.cls-49{fill:url(#linear-gradient-46);}.cls-50{fill:url(#linear-gradient-47);}.cls-51{fill:url(#linear-gradient-48);}.cls-52{fill:url(#linear-gradient-49);}.cls-53{fill:url(#linear-gradient-50);}.cls-54{fill:url(#linear-gradient-51);}</style><linearGradient id="linear-gradient" x1="142.51" y1="248.07" x2="239.18" y2="240.07" gradientUnits="userSpaceOnUse"><stop offset="0" stop-color="#6896c5"/><stop offset="1" stop-color="#d13852"/></linearGradient><linearGradient id="linear-gradient-2" x1="123.92" y1="79.06" x2="208.58" y2="257.72" xlink:href="#linear-gradient"/><linearGradient id="linear-gradient-3" x1="166.16" y1="59.04" x2="250.83" y2="237.7" xlink:href="#linear-gradient"/><linearGradient id="linear-gradient-4" x1="168.33" y1="58.01" x2="253" y2="236.68" xlink:href="#linear-gradient"/><linearGradient id="linear-gradient-5" x1="219.09" y1="33.95" x2="303.76" y2="212.62" xlink:href="#linear-gradient"/><linearGradient id="linear-gradient-6" x1="206.68" y1="309.43" x2="206.17" y2="258.45" xlink:href="#linear-gradient"/><linearGradient id="linear-gradient-7" x1="206.63" y1="227.11" x2="206.09" y2="173.13" xlink:href="#linear-gradient"/><linearGradient id="linear-gradient-8" x1="299.99" y1="242.78" x2="366.04" y2="242.78" xlink:href="#linear-gradient"/><linearGradient id="linear-gradient-9" x1="314.5" y1="242.78" x2="351.55" y2="242.78" xlink:href="#linear-gradient"/><linearGradient id="linear-gradient-10" x1="373.22" y1="236.69" x2="377.26" y2="231.77" xlink:href="#linear-gradient"/><linearGradient id="linear-gradient-11" x1="354.63" y1="230.37" x2="366.1" y2="216.4" xlink:href="#linear-gradient"/><linearGradient id="linear-gradient-12" x1="43.83" y1="304" x2="147.83" y2="178" xlink:href="#linear-gradient"/><linearGradient id="linear-gradient-13" x1="30.87" y1="293.3" x2="134.87" y2="167.3" xlink:href="#linear-gradient"/><linearGradient id="linear-gradient-14" x1="7.72" y1="274.19" x2="111.72" y2="148.19" xlink:href="#linear-gradient"/><linearGradient id="linear-gradient-15" x1="16.91" y1="281.77" x2="120.91" y2="155.77" xlink:href="#linear-gradient"/><linearGradient id="linear-gradient-16" x1="81.33" y1="212.09" x2="322.66" y2="203.42" xlink:href="#linear-gradient"/><linearGradient id="linear-gradient-17" x1="81.35" y1="212.62" x2="322.68" y2="203.96" xlink:href="#linear-gradient"/><linearGradient id="linear-gradient-18" x1="81.37" y1="213.15" x2="322.7" y2="204.49" xlink:href="#linear-gradient"/><linearGradient id="linear-gradient-19" x1="82.54" y1="245.78" x2="323.87" y2="237.12" xlink:href="#linear-gradient"/><linearGradient id="linear-gradient-20" x1="82.54" y1="245.78" x2="323.87" y2="237.11" xlink:href="#linear-gradient"/><linearGradient id="linear-gradient-21" x1="83.38" y1="269.34" x2="324.72" y2="260.67" xlink:href="#linear-gradient"/><linearGradient id="linear-gradient-22" x1="83.75" y1="279.55" x2="325.08" y2="270.88" xlink:href="#linear-gradient"/><linearGradient id="linear-gradient-23" x1="84.1" y1="289.34" x2="325.44" y2="280.67" xlink:href="#linear-gradient"/><linearGradient id="linear-gradient-24" x1="84.47" y1="299.55" x2="325.8" y2="290.89" xlink:href="#linear-gradient"/><linearGradient id="linear-gradient-25" x1="82.64" y1="248.68" x2="323.98" y2="240.02" xlink:href="#linear-gradient"/><linearGradient id="linear-gradient-26" x1="82.64" y1="248.68" x2="323.97" y2="240.01" xlink:href="#linear-gradient"/><linearGradient id="linear-gradient-27" x1="83.49" y1="272.23" x2="324.82" y2="263.56" xlink:href="#linear-gradient"/><linearGradient id="linear-gradient-28" x1="83.85" y1="282.44" x2="325.19" y2="273.78" xlink:href="#linear-gradient"/><linearGradient id="linear-gradient-29" x1="84.21" y1="292.24" x2="325.54" y2="283.57" xlink:href="#linear-gradient"/><linearGradient id="linear-gradient-30" x1="84.57" y1="302.45" x2="325.91" y2="293.78" xlink:href="#linear-gradient"/><linearGradient id="linear-gradient-31" x1="82.59" y1="247.23" x2="323.92" y2="238.56" xlink:href="#linear-gradient"/><linearGradient id="linear-gradient-32" x1="83.44" y1="270.78" x2="324.77" y2="262.11" xlink:href="#linear-gradient"/><linearGradient id="linear-gradient-33" x1="83.8" y1="280.99" x2="325.14" y2="272.32" xlink:href="#linear-gradient"/><linearGradient id="linear-gradient-34" x1="84.15" y1="290.79" x2="325.49" y2="282.12" xlink:href="#linear-gradient"/><linearGradient id="linear-gradient-35" x1="84.52" y1="301" x2="325.85" y2="292.33" xlink:href="#linear-gradient"/><linearGradient id="linear-gradient-36" x1="83.29" y1="266.65" x2="324.62" y2="257.99" xlink:href="#linear-gradient"/><linearGradient id="linear-gradient-37" x1="26.54" y1="220.55" x2="185.88" y2="26.55" xlink:href="#linear-gradient"/><linearGradient id="linear-gradient-38" x1="195.62" y1="359.41" x2="354.95" y2="165.41" xlink:href="#linear-gradient"/><linearGradient id="linear-gradient-39" x1="104.2" y1="284.33" x2="263.54" y2="90.33" xlink:href="#linear-gradient"/><linearGradient id="linear-gradient-40" x1="-11.31" y1="189.46" x2="148.02" y2="-4.54" xlink:href="#linear-gradient"/><linearGradient id="linear-gradient-41" x1="-11.37" y1="189.41" x2="147.96" y2="-4.59" xlink:href="#linear-gradient"/><linearGradient id="linear-gradient-42" x1="179.07" y1="345.82" x2="338.4" y2="151.82" xlink:href="#linear-gradient"/><linearGradient id="linear-gradient-43" x1="179.01" y1="345.77" x2="338.34" y2="151.77" xlink:href="#linear-gradient"/><linearGradient id="linear-gradient-44" x1="153.75" y1="325.03" x2="313.09" y2="131.03" xlink:href="#linear-gradient"/><linearGradient id="linear-gradient-45" x1="153.69" y1="324.98" x2="313.03" y2="130.98" xlink:href="#linear-gradient"/><linearGradient id="linear-gradient-46" x1="87.41" y1="270.54" x2="246.75" y2="76.54" xlink:href="#linear-gradient"/><linearGradient id="linear-gradient-47" x1="87.36" y1="270.5" x2="246.69" y2="76.5" xlink:href="#linear-gradient"/><linearGradient id="linear-gradient-48" x1="263.19" y1="414.91" x2="422.52" y2="220.91" xlink:href="#linear-gradient"/><linearGradient id="linear-gradient-49" x1="263.13" y1="414.86" x2="422.46" y2="220.86" xlink:href="#linear-gradient"/><linearGradient id="linear-gradient-50" x1="11.96" y1="208.58" x2="171.3" y2="14.58" xlink:href="#linear-gradient"/><linearGradient id="linear-gradient-51" x1="11.91" y1="208.53" x2="171.24" y2="14.53" xlink:href="#linear-gradient"/></defs><title>enterprise software</title><path class="cls-1" d="M220.32,127.42a10.9,10.9,0,0,0-2.24.23l-.53,0,.16.5a14.72,14.72,0,0,0-28.27-.05v.68l.29-.07a10.32,10.32,0,0,0,2.33,20.37h28.26a10.85,10.85,0,0,0,0-21.71Z"/><path class="cls-2" d="M77.56,263.65h.07l0,0Z"/><path class="cls-1" d="M77.51,224.84h0c-5.6,3.34-11.07,3.49-16.29.08v8.63c-.21,13,.08,19.87,16.4,30.08,16.36-9.8,16.57-17.12,16.57-30.08v-8.63C88.74,228.33,83.11,228.18,77.51,224.84Z"/><path class="cls-1" d="M316.33,228.64v28.11q16.51,7.94,33.44,0V228.64Q332.88,221,316.33,228.64Z"/><path class="cls-3" d="M220.67,227.34H192.24a1.79,1.79,0,0,0-1.79,1.79v27.3a1.79,1.79,0,0,0,1.79,1.79h28.42a1.79,1.79,0,0,0,1.79-1.79v-27.3A1.79,1.79,0,0,0,220.67,227.34Zm-1.79,27.3H194V230.92h24.84Z"/><path class="cls-4" d="M168.75,133.3a1.79,1.79,0,0,0-3.59,0c0,.84,0,1.68.09,2.52H134.33a1.79,1.79,0,1,0,0,3.59h31.3a41.39,41.39,0,0,0,1.45,6.22H151.65a1.79,1.79,0,1,0,0,3.59h18a1.79,1.79,0,0,0,1.67-2.44A37.51,37.51,0,0,1,168.75,133.3Z"/><path class="cls-5" d="M206.45,100.31a33,33,0,0,0-1.82,66v61.34a1.79,1.79,0,1,0,3.59,0V166.32a33,33,0,0,0-1.76-66Zm0,62.47a29.44,29.44,0,1,1,29.44-29.44A29.48,29.48,0,0,1,206.45,162.78Z"/><path class="cls-6" d="M218.71,125.73a16.5,16.5,0,0,0-30.94,1.76,12.08,12.08,0,0,0,4.28,23.39h28.26a12.64,12.64,0,1,0-1.6-25.15Zm10.67,12.52a9.06,9.06,0,0,1-9.06,9H192.05a8.51,8.51,0,1,1,8.52-8.49,1.79,1.79,0,1,0,3.59,0,12.12,12.12,0,0,0-12.11-12.11h-.15a12.92,12.92,0,0,1,24.58,5.56,1.79,1.79,0,1,0,3.59,0,16.49,16.49,0,0,0-.29-3l.54,0A9.07,9.07,0,0,1,229.38,138.25Z"/><path class="cls-7" d="M307.32,131.65H247.65a41.17,41.17,0,0,0-.54-5.18h32.66a1.79,1.79,0,0,0,0-3.59H246.35A41.34,41.34,0,0,0,206.42,92.1a1.79,1.79,0,1,0,0,3.59A37.69,37.69,0,0,1,243.11,142a1.79,1.79,0,0,0,1.75,2.2h22.6a1.79,1.79,0,0,0,0-3.59H247.05a41.62,41.62,0,0,0,.6-5.39h59.66a1.79,1.79,0,0,0,0-3.59Z"/><path class="cls-8" d="M307,258.83a1.79,1.79,0,0,0-1.79,1.79v44.22H107.64V261.25a1.79,1.79,0,1,0-3.59,0v45.38a1.79,1.79,0,0,0,1.79,1.79H307a1.79,1.79,0,0,0,1.79-1.79v-46A1.79,1.79,0,0,0,307,258.83Z"/><path class="cls-9" d="M294.47,174h-176a14.37,14.37,0,0,0-14.38,14.32v36a1.79,1.79,0,0,0,3.59,0v-36a10.78,10.78,0,0,1,10.8-10.74h176a10.75,10.75,0,0,1,10.74,10.74v36a1.79,1.79,0,0,0,3.59,0v-36A14.34,14.34,0,0,0,294.47,174Z"/><path class="cls-10" d="M301.68,241H261.41a1.79,1.79,0,0,0,0,3.59h40.27a1.79,1.79,0,1,0,0-3.59Z"/><path class="cls-11" d="M333,209.75a33,33,0,1,0,33,33A33.07,33.07,0,0,0,333,209.75Zm0,62.47a29.44,29.44,0,1,1,29.44-29.44A29.48,29.48,0,0,1,333,272.22Z"/><path class="cls-12" d="M351.55,228.81c0-5.49-15.46-5.77-18.56-5.77-2.8,0-15.79.23-18,4.46a1.73,1.73,0,0,0-.45,1.16v9.25a3.07,3.07,0,0,0,.08.66v8.3a1.77,1.77,0,0,0-.1.56v9.31c0,5.49,15.34,5.77,18.42,5.77s18.63-.28,18.63-5.77V228.81Zm-33.37,13.05a19.24,19.24,0,0,0,2.52.79,52.84,52.84,0,0,0,12.21,1.25c2.16,0,10.27-.13,15-2v5.3c-1,.89-6.21,2.46-15,2.46-8.49,0-13.58-1.48-14.74-2.37Zm29.78-4c-1,.89-6.21,2.47-15,2.47s-14-1.65-14.81-2.57v-5.25c4.7,1.93,12.75,2.07,14.88,2.07s10.21-.13,15-2Zm-15-11.22c8,0,13,1.28,14.58,2.18C346,229.71,341,231,333,231s-12.85-1.29-14.4-2.18C320.14,227.91,325.09,226.63,333,226.63Zm15,29.85c-1,.89-6.22,2.46-15,2.46s-13.87-1.56-14.84-2.44v-5.31c4.73,1.89,12.71,2,14.84,2s10.26-.13,15-2Z"/><path class="cls-13" d="M377.43,232.44H373a1.79,1.79,0,1,0,0,3.59h4.38a1.79,1.79,0,1,0,0-3.59Z"/><path class="cls-14" d="M388.28,241h-14a41.26,41.26,0,0,0-41.26-39.56,1.79,1.79,0,1,0,0,3.59,37.78,37.78,0,0,1,37.72,37.76,1.79,1.79,0,0,0,1.79,1.79h15.71a1.79,1.79,0,0,0,0-3.59Z"/><path class="cls-15" d="M151.65,241H112.86a34.1,34.1,0,1,0,0,3.59h38.77a1.79,1.79,0,1,0,0-3.59ZM78.81,273.47a30.52,30.52,0,1,1,30.52-30.52A30.56,30.56,0,0,1,78.81,273.47Z"/><path class="cls-16" d="M95,223.35a1.79,1.79,0,0,0-1.82.05c-4.79,3-9.62,3-14.78-.1a1.79,1.79,0,0,0-.92-.25h0a1.79,1.79,0,0,0-.92.25c-5.13,3.06-9.83,3.1-14.39.12a1.79,1.79,0,0,0-2.77,1.5v8.61c-.11,7,0,12,2.16,16.84,2.3,5.08,6.85,9.59,14.74,14.57a1.79,1.79,0,0,0,1.25.5h.07a1.79,1.79,0,0,0,1.22-.48C96,254.61,96,246.21,96,233.54v-8.63A1.79,1.79,0,0,0,95,223.35Zm-2.66,10.2c0,12.09,0,18.87-14.76,28-14.92-9.58-14.82-15.8-14.62-27.95v-5.65c4.64,2,9.51,1.68,14.51-1a16.64,16.64,0,0,0,14.87,1Z"/><path class="cls-17" d="M22.91,244H38.48a1.79,1.79,0,0,0,1.79-1.79A37.82,37.82,0,0,1,78.05,204.4a1.79,1.79,0,1,0,0-3.59,41.34,41.34,0,0,0-40.06,31H33.55a1.79,1.79,0,1,0,0,3.59h3.69a41.79,41.79,0,0,0-.52,5H22.91a1.79,1.79,0,0,0,0,3.59Z"/><path class="cls-18" d="M56.68,274.71a38.82,38.82,0,0,1-16.14-26.14A1.79,1.79,0,0,0,38.77,247H10a1.79,1.79,0,1,0,0,3.59H37.24a42.44,42.44,0,0,0,17.38,27,1.79,1.79,0,0,0,2.05-2.94Z"/><path class="cls-19" d="M148.45,214.76a5.08,5.08,0,1,0-5.08-5.08A5.08,5.08,0,0,0,148.45,214.76Zm0-6.57a1.49,1.49,0,1,1-1.49,1.49A1.49,1.49,0,0,1,148.45,208.19Z"/><path class="cls-20" d="M163.28,214.76a5.08,5.08,0,1,0-5.08-5.08A5.08,5.08,0,0,0,163.28,214.76Zm0-6.57a1.49,1.49,0,1,1-1.49,1.49A1.49,1.49,0,0,1,163.28,208.19Z"/><path class="cls-21" d="M178.11,214.76a5.08,5.08,0,1,0-5.08-5.08A5.08,5.08,0,0,0,178.11,214.76Zm0-6.57a1.49,1.49,0,1,1-1.49,1.49A1.49,1.49,0,0,1,178.11,208.19Z"/><path class="cls-22" d="M151.76,258.14h28.59a1.79,1.79,0,0,0,1.79-1.79V229.22a1.79,1.79,0,0,0-1.79-1.79H151.76a1.79,1.79,0,0,0-1.79,1.79v27.13A1.79,1.79,0,0,0,151.76,258.14ZM153.55,231h25v23.54h-25Z"/><path class="cls-23" d="M166.06,235.79a7,7,0,1,0,7,7A7,7,0,0,0,166.06,235.79Zm0,10.39a3.4,3.4,0,1,1,3.4-3.4A3.4,3.4,0,0,1,166.06,246.18Z"/><path class="cls-24" d="M180.45,264.57H151.86a1.79,1.79,0,1,0,0,3.59h28.59a1.79,1.79,0,1,0,0-3.59Z"/><path class="cls-25" d="M180.45,274.79H151.86a1.79,1.79,0,1,0,0,3.59h28.59a1.79,1.79,0,1,0,0-3.59Z"/><path class="cls-26" d="M180.45,284.6H151.86a1.79,1.79,0,1,0,0,3.59h28.59a1.79,1.79,0,1,0,0-3.59Z"/><path class="cls-27" d="M180.45,294.83H151.86a1.79,1.79,0,1,0,0,3.59h28.59a1.79,1.79,0,1,0,0-3.59Z"/><path class="cls-28" d="M232.72,258.14H261.1a1.79,1.79,0,0,0,1.79-1.79V229.22a1.79,1.79,0,0,0-1.79-1.79H232.72a1.79,1.79,0,0,0-1.79,1.79v27.13A1.79,1.79,0,0,0,232.72,258.14ZM234.51,231H259.3v23.54H234.51Z"/><path class="cls-29" d="M246.85,235.79a7,7,0,1,0,7,7A7,7,0,0,0,246.85,235.79Zm0,10.39a3.4,3.4,0,1,1,3.4-3.4A3.4,3.4,0,0,1,246.85,246.18Z"/><path class="cls-30" d="M232.61,268.16H261.2a1.79,1.79,0,0,0,0-3.59H232.61a1.79,1.79,0,0,0,0,3.59Z"/><path class="cls-31" d="M261.2,274.79H232.61a1.79,1.79,0,0,0,0,3.59H261.2a1.79,1.79,0,0,0,0-3.59Z"/><path class="cls-32" d="M261.2,284.6H232.61a1.79,1.79,0,0,0,0,3.59H261.2a1.79,1.79,0,0,0,0-3.59Z"/><path class="cls-33" d="M261.2,294.83H232.61a1.79,1.79,0,0,0,0,3.59H261.2a1.79,1.79,0,0,0,0-3.59Z"/><path class="cls-34" d="M206.45,249.77a7,7,0,1,0-7-7A7,7,0,0,0,206.45,249.77Zm0-10.39a3.4,3.4,0,1,1-3.4,3.4A3.4,3.4,0,0,1,206.45,239.38Z"/><path class="cls-35" d="M220.72,264.57H192.13a1.79,1.79,0,0,0,0,3.59h28.59a1.79,1.79,0,1,0,0-3.59Z"/><path class="cls-36" d="M220.72,274.79H192.13a1.79,1.79,0,0,0,0,3.59h28.59a1.79,1.79,0,1,0,0-3.59Z"/><path class="cls-37" d="M220.72,284.6H192.13a1.79,1.79,0,0,0,0,3.59h28.59a1.79,1.79,0,1,0,0-3.59Z"/><path class="cls-38" d="M220.72,294.83H192.13a1.79,1.79,0,0,0,0,3.59h28.59a1.79,1.79,0,1,0,0-3.59Z"/><path class="cls-39" d="M325.25,304.81a1.8,1.8,0,0,0-.35,0H277.08v-86.1a1.67,1.67,0,0,0,0-1.16v-2.7a15.42,15.42,0,0,0-15.39-15.41H151.22a15.44,15.44,0,0,0-15.44,15.41v90H88a1.79,1.79,0,0,0-2.14,1.76v.05a16.68,16.68,0,0,0,16.68,16.59H310.37A16.68,16.68,0,0,0,327,306.65v-.05A1.79,1.79,0,0,0,325.25,304.81Zm-51.76-89.93v1.49H189V203.05h72.67A11.83,11.83,0,0,1,273.49,214.88ZM151.22,203.05h34.22v13.32H139.36v-1.49A11.85,11.85,0,0,1,151.22,203.05ZM139.36,220H273.49v84.89H139.36Zm171,99.7H102.54a13.1,13.1,0,0,1-13-11.23H137a1.66,1.66,0,0,0,1.16,0H274.71a1.67,1.67,0,0,0,1.16,0h47.47A13.1,13.1,0,0,1,310.37,319.66Z"/><path class="cls-40" d="M121,99.29a6.21,6.21,0,1,0,6.21,6.21A6.22,6.22,0,0,0,121,99.29Zm0,8.84a2.62,2.62,0,1,1,2.62-2.62A2.63,2.63,0,0,1,121,108.12Z"/><path class="cls-41" d="M349.76,165.52a6.21,6.21,0,1,0,6.21,6.21A6.22,6.22,0,0,0,349.76,165.52Zm0,8.84a2.62,2.62,0,1,1,2.62-2.62A2.63,2.63,0,0,1,349.76,174.36Z"/><path class="cls-42" d="M264.89,82.47a6.21,6.21,0,1,0,6.21,6.21A6.22,6.22,0,0,0,264.89,82.47Zm0,8.84a2.62,2.62,0,1,1,2.62-2.62A2.63,2.63,0,0,1,264.89,91.31Z"/><path class="cls-43" d="M56.69,104.33l-4.39,4.39a1.79,1.79,0,1,0,2.54,2.54l4.39-4.39a1.79,1.79,0,1,0-2.54-2.54Z"/><path class="cls-44" d="M54.74,104.33a1.79,1.79,0,1,0-2.54,2.54l4.39,4.39a1.79,1.79,0,0,0,2.54-2.54Z"/><path class="cls-45" d="M367.6,113.93l-4.39,4.39a1.79,1.79,0,0,0,2.54,2.54l4.39-4.39a1.79,1.79,0,0,0-2.54-2.54Z"/><path class="cls-46" d="M365.65,113.93a1.79,1.79,0,0,0-2.54,2.54l4.39,4.39a1.79,1.79,0,0,0,2.54-2.54Z"/><path class="cls-47" d="M328,110.59,323.56,115a1.79,1.79,0,0,0,2.54,2.54l4.39-4.39a1.79,1.79,0,1,0-2.54-2.54Z"/><path class="cls-48" d="M326,110.59a1.79,1.79,0,1,0-2.54,2.54l4.39,4.39a1.79,1.79,0,0,0,2.54-2.54Z"/><path class="cls-49" d="M62.11,299l-4.39,4.39a1.79,1.79,0,1,0,2.54,2.54l4.39-4.39A1.79,1.79,0,0,0,62.11,299Z"/><path class="cls-50" d="M60.16,299a1.79,1.79,0,0,0-2.54,2.54L62,305.94a1.79,1.79,0,1,0,2.54-2.54Z"/><path class="cls-51" d="M367.6,285.45l-4.39,4.39a1.79,1.79,0,0,0,2.54,2.54l4.39-4.39a1.79,1.79,0,0,0-2.54-2.54Z"/><path class="cls-52" d="M365.65,285.45a1.79,1.79,0,0,0-2.54,2.54l4.39,4.39a1.79,1.79,0,0,0,2.54-2.54Z"/><path class="cls-53" d="M47.51,163l-4.39,4.39a1.79,1.79,0,1,0,2.54,2.54L50,165.5A1.79,1.79,0,0,0,47.51,163Z"/><path class="cls-54" d="M45.56,163A1.79,1.79,0,0,0,43,165.5l4.39,4.39a1.79,1.79,0,1,0,2.54-2.54Z"/></svg>