<svg id="Layer_3" data-name="Layer 3" xmlns="http://www.w3.org/2000/svg" xmlns:xlink="http://www.w3.org/1999/xlink" viewBox="0 0 400 298.41"><defs><style>.cls-1{fill:none;}.cls-2{fill:url(#linear-gradient);}.cls-3{fill:url(#linear-gradient-2);}.cls-4{fill:url(#linear-gradient-3);}.cls-5{fill:url(#linear-gradient-4);}.cls-6{fill:url(#linear-gradient-5);}.cls-7{fill:url(#linear-gradient-6);}.cls-8{fill:url(#linear-gradient-7);}.cls-9{fill:url(#linear-gradient-8);}.cls-10{fill:url(#linear-gradient-9);}.cls-11{fill:url(#linear-gradient-10);}.cls-12{fill:url(#linear-gradient-11);}.cls-13{fill:url(#linear-gradient-12);}.cls-14{fill:url(#linear-gradient-13);}.cls-15{fill:url(#linear-gradient-14);}.cls-16{fill:url(#linear-gradient-15);}.cls-17{fill:url(#linear-gradient-16);}.cls-18{fill:url(#linear-gradient-17);}.cls-19{fill:url(#linear-gradient-18);}.cls-20{fill:url(#linear-gradient-19);}.cls-21{fill:url(#linear-gradient-20);}.cls-22{fill:url(#linear-gradient-21);}.cls-23{fill:url(#linear-gradient-22);}.cls-24{fill:url(#linear-gradient-23);}.cls-25{fill:url(#linear-gradient-24);}.cls-26{fill:url(#linear-gradient-25);}.cls-27{fill:url(#linear-gradient-26);}.cls-28{fill:url(#linear-gradient-27);}.cls-29{fill:url(#linear-gradient-28);}.cls-30{fill:url(#linear-gradient-29);}.cls-31{fill:url(#linear-gradient-30);}.cls-32{fill:url(#linear-gradient-31);}.cls-33{fill:url(#linear-gradient-32);}.cls-34{fill:url(#linear-gradient-33);}.cls-35{fill:url(#linear-gradient-34);}.cls-36{fill:url(#linear-gradient-35);}.cls-37{fill:url(#linear-gradient-36);}.cls-38{fill:url(#linear-gradient-37);}.cls-39{fill:url(#linear-gradient-38);}.cls-40{fill:url(#linear-gradient-39);}.cls-41{fill:url(#linear-gradient-40);}.cls-42{fill:url(#linear-gradient-41);}.cls-43{fill:url(#linear-gradient-42);}.cls-44{fill:url(#linear-gradient-43);}.cls-45{fill:url(#linear-gradient-44);}.cls-46{fill:url(#linear-gradient-45);}.cls-47{fill:url(#linear-gradient-46);}.cls-48{fill:url(#linear-gradient-47);}.cls-49{fill:url(#linear-gradient-48);}.cls-50{fill:url(#linear-gradient-49);}.cls-51{fill:url(#linear-gradient-50);}.cls-52{fill:url(#linear-gradient-51);}.cls-53{fill:url(#linear-gradient-52);}.cls-54{fill:url(#linear-gradient-53);}.cls-55{fill:url(#linear-gradient-54);}.cls-56{fill:url(#linear-gradient-55);}.cls-57{fill:url(#linear-gradient-56);}.cls-58{fill:url(#linear-gradient-57);}.cls-59{fill:url(#linear-gradient-58);}.cls-60{fill:url(#linear-gradient-59);}.cls-61{fill:url(#linear-gradient-60);}.cls-62{fill:url(#linear-gradient-61);}.cls-63{fill:url(#linear-gradient-62);}.cls-64{fill:url(#linear-gradient-63);}.cls-65{fill:url(#linear-gradient-64);}.cls-66{fill:url(#linear-gradient-65);}.cls-67{fill:url(#linear-gradient-66);}.cls-68{fill:url(#linear-gradient-67);}.cls-69{fill:url(#linear-gradient-68);}.cls-70{fill:url(#linear-gradient-69);}.cls-71{fill:url(#linear-gradient-70);}.cls-72{fill:url(#linear-gradient-71);}.cls-73{fill:url(#linear-gradient-72);}.cls-74{fill:url(#linear-gradient-73);}.cls-75{fill:url(#linear-gradient-74);}</style><linearGradient id="linear-gradient" x1="91.14" y1="225.51" x2="94.18" y2="225.51" gradientUnits="userSpaceOnUse"><stop offset="0" stop-color="#6896c5"/><stop offset="1" stop-color="#d13852"/></linearGradient><linearGradient id="linear-gradient-2" x1="80.87" y1="230.66" x2="83.91" y2="230.66" xlink:href="#linear-gradient"/><linearGradient id="linear-gradient-3" x1="84.12" y1="234.65" x2="87.16" y2="234.65" xlink:href="#linear-gradient"/><linearGradient id="linear-gradient-4" x1="81.98" y1="225.64" x2="85.03" y2="225.64" xlink:href="#linear-gradient"/><linearGradient id="linear-gradient-5" x1="92.4" y1="230.49" x2="95.44" y2="230.49" xlink:href="#linear-gradient"/><linearGradient id="linear-gradient-6" x1="86.61" y1="223.4" x2="89.66" y2="223.4" xlink:href="#linear-gradient"/><linearGradient id="linear-gradient-7" x1="89.26" y1="234.58" x2="92.31" y2="234.58" xlink:href="#linear-gradient"/><linearGradient id="linear-gradient-8" x1="308.93" y1="42.49" x2="311.97" y2="42.49" xlink:href="#linear-gradient"/><linearGradient id="linear-gradient-9" x1="307.81" y1="47.51" x2="310.85" y2="47.51" xlink:href="#linear-gradient"/><linearGradient id="linear-gradient-10" x1="318.08" y1="42.35" x2="321.12" y2="42.35" xlink:href="#linear-gradient"/><linearGradient id="linear-gradient-11" x1="319.34" y1="47.34" x2="322.38" y2="47.34" xlink:href="#linear-gradient"/><linearGradient id="linear-gradient-12" x1="311.06" y1="51.5" x2="314.1" y2="51.5" xlink:href="#linear-gradient"/><linearGradient id="linear-gradient-13" x1="316.21" y1="51.42" x2="319.25" y2="51.42" xlink:href="#linear-gradient"/><linearGradient id="linear-gradient-14" x1="313.56" y1="40.24" x2="316.6" y2="40.24" xlink:href="#linear-gradient"/><linearGradient id="linear-gradient-15" x1="197.22" y1="57.06" x2="200.27" y2="57.06" xlink:href="#linear-gradient"/><linearGradient id="linear-gradient-16" x1="198.34" y1="52.03" x2="201.38" y2="52.03" xlink:href="#linear-gradient"/><linearGradient id="linear-gradient-17" x1="207.49" y1="51.9" x2="210.54" y2="51.9" xlink:href="#linear-gradient"/><linearGradient id="linear-gradient-18" x1="208.75" y1="56.89" x2="211.8" y2="56.89" xlink:href="#linear-gradient"/><linearGradient id="linear-gradient-19" x1="205.62" y1="60.97" x2="208.66" y2="60.97" xlink:href="#linear-gradient"/><linearGradient id="linear-gradient-20" x1="202.97" y1="49.79" x2="206.01" y2="49.79" xlink:href="#linear-gradient"/><linearGradient id="linear-gradient-21" x1="200.47" y1="61.05" x2="203.52" y2="61.05" xlink:href="#linear-gradient"/><linearGradient id="linear-gradient-22" x1="101.33" y1="185.21" x2="103.62" y2="185.21" xlink:href="#linear-gradient"/><linearGradient id="linear-gradient-23" x1="97.45" y1="185.21" x2="107.5" y2="185.21" xlink:href="#linear-gradient"/><linearGradient id="linear-gradient-24" x1="142.41" y1="206.96" x2="144.7" y2="206.96" xlink:href="#linear-gradient"/><linearGradient id="linear-gradient-25" x1="138.53" y1="206.96" x2="148.58" y2="206.96" xlink:href="#linear-gradient"/><linearGradient id="linear-gradient-26" x1="281.63" y1="69.88" x2="283.92" y2="69.88" xlink:href="#linear-gradient"/><linearGradient id="linear-gradient-27" x1="277.75" y1="69.88" x2="287.8" y2="69.88" xlink:href="#linear-gradient"/><linearGradient id="linear-gradient-28" x1="228.08" y1="106.7" x2="230.36" y2="106.7" xlink:href="#linear-gradient"/><linearGradient id="linear-gradient-29" x1="224.2" y1="106.7" x2="234.24" y2="106.7" xlink:href="#linear-gradient"/><linearGradient id="linear-gradient-30" x1="81.09" y1="106.5" x2="157.33" y2="106.5" xlink:href="#linear-gradient"/><linearGradient id="linear-gradient-31" x1="81.17" y1="59.07" x2="157.4" y2="59.07" xlink:href="#linear-gradient"/><linearGradient id="linear-gradient-32" x1="81.17" y1="154.17" x2="157.4" y2="154.17" xlink:href="#linear-gradient"/><linearGradient id="linear-gradient-33" x1="111.6" y1="49.79" x2="127.12" y2="49.79" xlink:href="#linear-gradient"/><linearGradient id="linear-gradient-34" x1="112.69" y1="163.42" x2="125.9" y2="163.42" xlink:href="#linear-gradient"/><linearGradient id="linear-gradient-35" x1="97.51" y1="87.64" x2="215.01" y2="87.64" xlink:href="#linear-gradient"/><linearGradient id="linear-gradient-36" x1="162.28" y1="159" x2="288.31" y2="159" xlink:href="#linear-gradient"/><linearGradient id="linear-gradient-37" x1="246.23" y1="141.01" x2="280" y2="141.01" xlink:href="#linear-gradient"/><linearGradient id="linear-gradient-38" x1="181.59" y1="184.75" x2="198.94" y2="184.75" xlink:href="#linear-gradient"/><linearGradient id="linear-gradient-39" x1="176.57" y1="130.58" x2="226.48" y2="130.58" xlink:href="#linear-gradient"/><linearGradient id="linear-gradient-40" x1="176.57" y1="138.34" x2="205.63" y2="138.34" xlink:href="#linear-gradient"/><linearGradient id="linear-gradient-41" x1="197.31" y1="196.55" x2="323.34" y2="196.55" xlink:href="#linear-gradient"/><linearGradient id="linear-gradient-42" x1="261.57" y1="206.09" x2="273.32" y2="206.09" xlink:href="#linear-gradient"/><linearGradient id="linear-gradient-43" x1="283.02" y1="206.09" x2="294.77" y2="206.09" xlink:href="#linear-gradient"/><linearGradient id="linear-gradient-44" x1="304.47" y1="206.09" x2="316.22" y2="206.09" xlink:href="#linear-gradient"/><linearGradient id="linear-gradient-45" x1="205.79" y1="213.96" x2="232.56" y2="213.96" xlink:href="#linear-gradient"/><linearGradient id="linear-gradient-46" x1="205.79" y1="224.01" x2="245.04" y2="224.01" xlink:href="#linear-gradient"/><linearGradient id="linear-gradient-47" x1="104.4" y1="179.35" x2="162.59" y2="175.5" xlink:href="#linear-gradient"/><linearGradient id="linear-gradient-48" x1="106.66" y1="213.51" x2="164.85" y2="209.66" xlink:href="#linear-gradient"/><linearGradient id="linear-gradient-49" x1="105.09" y1="189.88" x2="163.29" y2="186.03" xlink:href="#linear-gradient"/><linearGradient id="linear-gradient-50" x1="105.87" y1="201.7" x2="164.07" y2="197.84" xlink:href="#linear-gradient"/><linearGradient id="linear-gradient-51" x1="107.34" y1="223.91" x2="165.54" y2="220.06" xlink:href="#linear-gradient"/><linearGradient id="linear-gradient-52" x1="107.54" y1="226.93" x2="165.74" y2="223.08" xlink:href="#linear-gradient"/><linearGradient id="linear-gradient-53" x1="107.5" y1="226.22" x2="165.69" y2="222.37" xlink:href="#linear-gradient"/><linearGradient id="linear-gradient-54" x1="107.45" y1="225.51" x2="165.64" y2="221.66" xlink:href="#linear-gradient"/><linearGradient id="linear-gradient-55" x1="107.69" y1="229.07" x2="165.88" y2="225.22" xlink:href="#linear-gradient"/><linearGradient id="linear-gradient-56" x1="107.59" y1="227.64" x2="165.78" y2="223.79" xlink:href="#linear-gradient"/><linearGradient id="linear-gradient-57" x1="107.64" y1="228.36" x2="165.83" y2="224.5" xlink:href="#linear-gradient"/><linearGradient id="linear-gradient-58" x1="107.73" y1="229.72" x2="165.92" y2="225.87" xlink:href="#linear-gradient"/><linearGradient id="linear-gradient-59" x1="283.35" y1="69.46" x2="329.13" y2="54.05" xlink:href="#linear-gradient"/><linearGradient id="linear-gradient-60" x1="284.3" y1="72.31" x2="330.09" y2="56.9" xlink:href="#linear-gradient"/><linearGradient id="linear-gradient-61" x1="287.46" y1="81.69" x2="333.25" y2="66.29" xlink:href="#linear-gradient"/><linearGradient id="linear-gradient-62" x1="285.36" y1="75.44" x2="331.14" y2="60.03" xlink:href="#linear-gradient"/><linearGradient id="linear-gradient-63" x1="286.41" y1="78.56" x2="332.19" y2="63.16" xlink:href="#linear-gradient"/><linearGradient id="linear-gradient-64" x1="291.67" y1="94.2" x2="337.45" y2="78.79" xlink:href="#linear-gradient"/><linearGradient id="linear-gradient-65" x1="290.62" y1="91.07" x2="336.4" y2="75.67" xlink:href="#linear-gradient"/><linearGradient id="linear-gradient-66" x1="288.51" y1="84.82" x2="334.3" y2="69.41" xlink:href="#linear-gradient"/><linearGradient id="linear-gradient-67" x1="289.57" y1="87.94" x2="335.35" y2="72.54" xlink:href="#linear-gradient"/><linearGradient id="linear-gradient-68" x1="292.89" y1="97.82" x2="338.67" y2="82.42" xlink:href="#linear-gradient"/><linearGradient id="linear-gradient-69" x1="305.39" y1="134.98" x2="351.18" y2="119.58" xlink:href="#linear-gradient"/><linearGradient id="linear-gradient-70" x1="308.56" y1="144.41" x2="354.35" y2="129.01" xlink:href="#linear-gradient"/><linearGradient id="linear-gradient-71" x1="302.22" y1="125.55" x2="348" y2="110.14" xlink:href="#linear-gradient"/><linearGradient id="linear-gradient-72" x1="295.87" y1="106.69" x2="341.66" y2="91.28" xlink:href="#linear-gradient"/><linearGradient id="linear-gradient-73" x1="299.04" y1="116.12" x2="344.83" y2="100.71" xlink:href="#linear-gradient"/><linearGradient id="linear-gradient-74" x1="311.44" y1="152.95" x2="357.22" y2="137.55" xlink:href="#linear-gradient"/></defs><title>mobile financial-05</title><circle class="cls-1" cx="257.87" cy="141.01" r="10.5"/><polygon class="cls-1" points="130.85 64.69 98.58 83.92 130.85 103.16 130.85 92.01 168.89 92.01 168.89 76.19 130.85 76.19 130.85 64.69"/><rect class="cls-1" x="262.71" y="201.35" width="9.47" height="9.47"/><rect class="cls-1" x="284.16" y="201.35" width="9.47" height="9.47"/><rect class="cls-1" x="305.61" y="201.35" width="9.47" height="9.47"/><path class="cls-1" d="M268.36,130.51a10.45,10.45,0,0,0-5.25,1.41,10.5,10.5,0,0,1,0,18.18,10.5,10.5,0,1,0,5.25-19.59Z"/><path class="cls-2" d="M92.66,227a1.52,1.52,0,1,0-1.17-.54A1.51,1.51,0,0,0,92.66,227Z"/><path class="cls-3" d="M82,229.18a1.52,1.52,0,1,0,1.83,1.13A1.52,1.52,0,0,0,82,229.18Z"/><path class="cls-4" d="M86.28,233.27a1.52,1.52,0,1,0,.73,2A1.52,1.52,0,0,0,86.28,233.27Z"/><path class="cls-5" d="M82.56,226.83a1.52,1.52,0,0,0,2.14-.25,1.52,1.52,0,1,0-2.14.25Z"/><path class="cls-6" d="M94.22,229a1.52,1.52,0,1,0,1.19,1.8A1.52,1.52,0,0,0,94.22,229Z"/><circle class="cls-7" cx="88.13" cy="223.4" r="1.52"/><path class="cls-8" d="M90.1,233.22a1.52,1.52,0,1,0,2,.68A1.52,1.52,0,0,0,90.1,233.22Z"/><path class="cls-9" d="M309.5,43.68a1.52,1.52,0,1,0-.25-2.14A1.52,1.52,0,0,0,309.5,43.68Z"/><path class="cls-10" d="M309,46a1.52,1.52,0,1,0,1.83,1.13A1.52,1.52,0,0,0,309,46Z"/><path class="cls-11" d="M319.6,43.87a1.52,1.52,0,1,0-1.17-.54A1.51,1.51,0,0,0,319.6,43.87Z"/><path class="cls-12" d="M321.17,45.85a1.52,1.52,0,1,0,1.18,1.8A1.52,1.52,0,0,0,321.17,45.85Z"/><path class="cls-13" d="M313.23,50.12a1.52,1.52,0,1,0,.73,2A1.52,1.52,0,0,0,313.23,50.12Z"/><path class="cls-14" d="M317,50.06a1.52,1.52,0,1,0,2,.68A1.52,1.52,0,0,0,317,50.06Z"/><circle class="cls-15" cx="315.08" cy="40.24" r="1.52"/><path class="cls-16" d="M198.4,55.58a1.52,1.52,0,0,0,.35,3,1.55,1.55,0,0,0,.35,0,1.52,1.52,0,0,0-.7-3Z"/><path class="cls-17" d="M198.92,53.23a1.52,1.52,0,1,0-.25-2.14A1.51,1.51,0,0,0,198.92,53.23Z"/><path class="cls-18" d="M209,53.42a1.52,1.52,0,1,0-1.17-.54A1.52,1.52,0,0,0,209,53.42Z"/><path class="cls-19" d="M210.58,55.4a1.52,1.52,0,1,0,1.18,1.8A1.52,1.52,0,0,0,210.58,55.4Z"/><path class="cls-20" d="M206.46,59.61a1.52,1.52,0,0,0,.69,2.88,1.5,1.5,0,0,0,.68-.16,1.52,1.52,0,1,0-1.37-2.72Z"/><circle class="cls-21" cx="204.49" cy="49.79" r="1.52"/><path class="cls-22" d="M202.64,59.67a1.52,1.52,0,1,0,.73,2A1.52,1.52,0,0,0,202.64,59.67Z"/><path class="cls-23" d="M102.47,180.19a1.14,1.14,0,0,0-1.14,1.14v7.76a1.14,1.14,0,0,0,2.28,0v-7.76A1.14,1.14,0,0,0,102.47,180.19Z"/><path class="cls-24" d="M106.35,184.07H98.59a1.14,1.14,0,1,0,0,2.28h7.76a1.14,1.14,0,0,0,0-2.28Z"/><path class="cls-25" d="M143.56,201.94a1.14,1.14,0,0,0-1.14,1.14v7.76a1.14,1.14,0,0,0,2.28,0v-7.76A1.14,1.14,0,0,0,143.56,201.94Z"/><path class="cls-26" d="M147.44,205.82h-7.76a1.14,1.14,0,1,0,0,2.28h7.76a1.14,1.14,0,0,0,0-2.28Z"/><path class="cls-27" d="M282.77,64.85A1.14,1.14,0,0,0,281.63,66v7.76a1.14,1.14,0,1,0,2.28,0V66A1.14,1.14,0,0,0,282.77,64.85Z"/><path class="cls-28" d="M286.65,68.73h-7.76a1.14,1.14,0,0,0,0,2.28h7.76a1.14,1.14,0,0,0,0-2.28Z"/><path class="cls-29" d="M229.22,101.68a1.14,1.14,0,0,0-1.14,1.14v7.76a1.14,1.14,0,0,0,2.28,0v-7.76A1.14,1.14,0,0,0,229.22,101.68Z"/><path class="cls-30" d="M233.1,105.56h-7.76a1.14,1.14,0,1,0,0,2.28h7.76a1.14,1.14,0,0,0,0-2.28Z"/><path class="cls-31" d="M152.07,39.11H86.35a5.26,5.26,0,0,0-5.26,5.26V168.64a5.26,5.26,0,0,0,5.26,5.26h65.72a5.26,5.26,0,0,0,5.26-5.26V100.86a1.14,1.14,0,0,0-2.28,0v67.78a3,3,0,0,1-3,3H86.35a3,3,0,0,1-3-3V44.37a3,3,0,0,1,3-3h65.72a3,3,0,0,1,3,3V76.11a1.14,1.14,0,0,0,2.28,0V44.37A5.26,5.26,0,0,0,152.07,39.11Z"/><path class="cls-32" d="M156.26,57.93H82.31a1.14,1.14,0,1,0,0,2.28h73.95a1.14,1.14,0,0,0,0-2.28Z"/><path class="cls-33" d="M156.26,153H82.31a1.14,1.14,0,1,0,0,2.28h73.95a1.14,1.14,0,0,0,0-2.28Z"/><path class="cls-34" d="M126,48.65H112.74a1.14,1.14,0,0,0,0,2.28H126a1.14,1.14,0,0,0,0-2.28Z"/><path class="cls-35" d="M119.29,156.82a6.61,6.61,0,1,0,6.61,6.61A6.61,6.61,0,0,0,119.29,156.82Zm0,10.93a4.32,4.32,0,1,1,4.32-4.32A4.33,4.33,0,0,1,119.29,167.75Z"/><path class="cls-36" d="M214.45,90.37,182.18,71.14a1.14,1.14,0,0,0-1.73,1V82.28H170.11V76.11A1.14,1.14,0,0,0,169,75h-36.9V64.69a1.14,1.14,0,0,0-1.73-1L98.07,82.94a1.14,1.14,0,0,0,0,2l32.27,19.23a1.14,1.14,0,0,0,1.73-1V93.08h10.35v6.16a1.14,1.14,0,0,0,1.14,1.14h36.9v10.2a1.14,1.14,0,0,0,1.73,1l32.27-19.23a1.14,1.14,0,0,0,0-2Zm-83.52.43a1.14,1.14,0,0,0-1.14,1.14v9.21l-28.9-17.22,28.9-17.22v9.41a1.14,1.14,0,0,0,1.14,1.14h36.9V90.8Zm51.81,17.78V99.24a1.14,1.14,0,0,0-1.14-1.14H144.7v-5H169a1.14,1.14,0,0,0,1.14-1.14V84.56h11.49a1.14,1.14,0,0,0,1.14-1.14V74.13l28.9,17.22Z"/><path class="cls-37" d="M280.92,118.34H169.68a7.4,7.4,0,0,0-7.39,7.39v66.53a7.4,7.4,0,0,0,7.39,7.39h28.2a1.14,1.14,0,0,0,0-2.28h-28.2a5.12,5.12,0,0,1-5.11-5.11V125.73a5.12,5.12,0,0,1,5.11-5.11H280.92a5.12,5.12,0,0,1,5.11,5.11V157a1.14,1.14,0,0,0,2.28,0v-31.3A7.4,7.4,0,0,0,280.92,118.34Z"/><path class="cls-38" d="M268.36,129.37a11.64,11.64,0,0,0-5.26,1.26,11.64,11.64,0,1,0,0,20.76,11.64,11.64,0,1,0,5.26-22ZM265,147c-.16.19-.33.38-.51.56l0,0c-.18.18-.37.35-.56.51l-.14.12c-.21.17-.42.33-.65.48h0a9.36,9.36,0,1,1,0-15.51h0c.22.15.44.31.65.48l.14.12c.19.16.38.33.56.51l0,0c.18.18.35.37.51.56l.18.22.32.42.23.33q.15.23.28.46l.18.34.17.35q.12.26.22.53c.06.15.11.29.16.44s.07.24.11.36.09.33.13.5,0,.19.07.29.08.48.11.72c0,.08,0,.16,0,.24,0,.28,0,.55,0,.83s0,.56,0,.83c0,.08,0,.16,0,.24,0,.24-.06.48-.11.72s0,.2-.07.29-.08.33-.13.5-.07.24-.11.36-.11.3-.16.44-.14.35-.22.52l-.17.35-.18.34q-.13.24-.28.46l-.23.33-.32.42Zm3.36,3.32a9.36,9.36,0,0,1-3-.48l.27-.25c.19-.17.37-.34.55-.52l.3-.33c.17-.19.34-.39.51-.6l.24-.32q.25-.34.48-.7l.17-.28c.16-.27.3-.54.43-.81l.12-.25c.14-.3.26-.6.37-.91l.08-.22c.11-.32.2-.64.27-1,0-.07,0-.15.06-.22.07-.33.12-.67.17-1,0-.08,0-.15,0-.23a11.26,11.26,0,0,0,0-2.5c0-.08,0-.15,0-.23,0-.34-.1-.68-.17-1,0-.07,0-.15-.06-.22-.08-.33-.17-.65-.27-1l-.08-.22c-.11-.31-.23-.61-.37-.91l-.12-.25c-.13-.28-.28-.55-.43-.81l-.17-.28q-.23-.36-.48-.7l-.24-.32c-.16-.21-.33-.4-.51-.6l-.3-.33c-.17-.18-.36-.35-.55-.52l-.27-.25a9.36,9.36,0,1,1,3,18.23Z"/><path class="cls-39" d="M182.73,183.61a1.14,1.14,0,1,0,0,2.28H197.8a1.14,1.14,0,1,0,0-2.28Z"/><path class="cls-40" d="M225.34,129.44H177.71a1.14,1.14,0,1,0,0,2.28h47.62a1.14,1.14,0,1,0,0-2.28Z"/><path class="cls-41" d="M204.49,137.2H177.71a1.14,1.14,0,1,0,0,2.28h26.78a1.14,1.14,0,1,0,0-2.28Z"/><path class="cls-42" d="M315.94,155.89H204.7a7.4,7.4,0,0,0-7.39,7.39v66.53a7.4,7.4,0,0,0,7.39,7.39H315.94a7.4,7.4,0,0,0,7.39-7.39V163.29A7.4,7.4,0,0,0,315.94,155.89ZM199.59,176.23H321.05v15.06H199.59Zm5.11-18.06H315.94a5.12,5.12,0,0,1,5.11,5.11v10.66H199.59V163.29A5.12,5.12,0,0,1,204.7,158.17Zm111.24,76.76H204.7a5.12,5.12,0,0,1-5.11-5.11V193.58H321.05v36.24A5.12,5.12,0,0,1,315.94,234.93Z"/><path class="cls-43" d="M272.18,200.21h-9.47a1.14,1.14,0,0,0-1.14,1.14v9.47a1.14,1.14,0,0,0,1.14,1.14h9.47a1.14,1.14,0,0,0,1.14-1.14v-9.47A1.14,1.14,0,0,0,272.18,200.21ZM271,209.68h-7.19v-7.19H271Z"/><path class="cls-44" d="M293.63,200.21h-9.47a1.14,1.14,0,0,0-1.14,1.14v9.47a1.14,1.14,0,0,0,1.14,1.14h9.47a1.14,1.14,0,0,0,1.14-1.14v-9.47A1.14,1.14,0,0,0,293.63,200.21Zm-1.14,9.47H285.3v-7.19h7.19Z"/><path class="cls-45" d="M315.08,200.21h-9.47a1.14,1.14,0,0,0-1.14,1.14v9.47a1.14,1.14,0,0,0,1.14,1.14h9.47a1.14,1.14,0,0,0,1.14-1.14v-9.47A1.14,1.14,0,0,0,315.08,200.21Zm-1.14,9.47h-7.19v-7.19h7.19Z"/><path class="cls-46" d="M206.93,215.1h24.5a1.14,1.14,0,1,0,0-2.28h-24.5a1.14,1.14,0,0,0,0,2.28Z"/><path class="cls-47" d="M243.9,222.86h-37a1.14,1.14,0,0,0,0,2.28h37a1.14,1.14,0,0,0,0-2.28Z"/><path class="cls-48" d="M119.36,176.23a1.14,1.14,0,0,0-1.14,1.14v2a1.14,1.14,0,0,0,2.28,0v-2A1.14,1.14,0,0,0,119.36,176.23Z"/><path class="cls-49" d="M119.36,209.4a1.14,1.14,0,0,0-1.14,1.14v4.26a1.14,1.14,0,0,0,2.28,0v-4.26A1.14,1.14,0,0,0,119.36,209.4Z"/><path class="cls-50" d="M119.36,185.66a1.14,1.14,0,0,0-1.14,1.14v4.26a1.14,1.14,0,1,0,2.28,0V186.8A1.14,1.14,0,0,0,119.36,185.66Z"/><path class="cls-51" d="M119.36,197.53a1.14,1.14,0,0,0-1.14,1.14v4.26a1.14,1.14,0,1,0,2.28,0v-4.26A1.14,1.14,0,0,0,119.36,197.53Z"/><path class="cls-52" d="M121.26,222.86h-.76v-.76a1.14,1.14,0,1,0-2.28,0V224a1.14,1.14,0,0,0,1.14,1.14h1.9a1.14,1.14,0,0,0,0-2.28Z"/><path class="cls-53" d="M153.67,222.86h-3.8a1.14,1.14,0,1,0,0,2.28h3.8a1.14,1.14,0,0,0,0-2.28Z"/><path class="cls-54" d="M142.87,222.86h-3.8a1.14,1.14,0,1,0,0,2.28h3.8a1.14,1.14,0,0,0,0-2.28Z"/><path class="cls-55" d="M132.07,222.86h-3.8a1.14,1.14,0,1,0,0,2.28h3.8a1.14,1.14,0,1,0,0-2.28Z"/><path class="cls-56" d="M186.08,222.86h-3.8a1.14,1.14,0,1,0,0,2.28h3.8a1.14,1.14,0,1,0,0-2.28Z"/><path class="cls-57" d="M164.48,222.86h-3.8a1.14,1.14,0,0,0,0,2.28h3.8a1.14,1.14,0,1,0,0-2.28Z"/><path class="cls-58" d="M175.28,222.86h-3.8a1.14,1.14,0,1,0,0,2.28h3.8a1.14,1.14,0,0,0,0-2.28Z"/><path class="cls-59" d="M195.06,222.86h-2a1.14,1.14,0,1,0,0,2.28h2a1.14,1.14,0,0,0,0-2.28Z"/><path class="cls-60" d="M219.25,90.19h-1.83a1.14,1.14,0,0,0,0,2.28h1.83a1.14,1.14,0,1,0,0-2.28Z"/><path class="cls-61" d="M229.6,90.19h-3.65a1.14,1.14,0,0,0,0,2.28h3.65a1.14,1.14,0,0,0,0-2.28Z"/><path class="cls-62" d="M260.64,90.19H257a1.14,1.14,0,0,0,0,2.28h3.65a1.14,1.14,0,1,0,0-2.28Z"/><path class="cls-63" d="M239.94,90.19h-3.65a1.14,1.14,0,0,0,0,2.28h3.65a1.14,1.14,0,0,0,0-2.28Z"/><path class="cls-64" d="M250.29,90.19h-3.65a1.14,1.14,0,0,0,0,2.28h3.65a1.14,1.14,0,0,0,0-2.28Z"/><path class="cls-65" d="M302,90.19h-3.65a1.14,1.14,0,0,0,0,2.28H302a1.14,1.14,0,1,0,0-2.28Z"/><path class="cls-66" d="M291.67,90.19H288a1.14,1.14,0,0,0,0,2.28h3.65a1.14,1.14,0,0,0,0-2.28Z"/><path class="cls-67" d="M271,90.19h-3.65a1.14,1.14,0,0,0,0,2.28H271a1.14,1.14,0,0,0,0-2.28Z"/><path class="cls-68" d="M281.33,90.19h-3.65a1.14,1.14,0,0,0,0,2.28h3.65a1.14,1.14,0,0,0,0-2.28Z"/><path class="cls-69" d="M310.31,90.19h-1.9a1.14,1.14,0,0,0,0,2.28h.76v.76a1.14,1.14,0,1,0,2.28,0v-1.9A1.14,1.14,0,0,0,310.31,90.19Z"/><path class="cls-70" d="M310.31,130.28a1.14,1.14,0,0,0-1.14,1.14v3.8a1.14,1.14,0,0,0,2.28,0v-3.8A1.14,1.14,0,0,0,310.31,130.28Z"/><path class="cls-71" d="M310.31,140.78a1.14,1.14,0,0,0-1.14,1.14v3.8a1.14,1.14,0,1,0,2.28,0v-3.8A1.14,1.14,0,0,0,310.31,140.78Z"/><path class="cls-72" d="M310.31,119.78a1.14,1.14,0,0,0-1.14,1.14v3.8a1.14,1.14,0,1,0,2.28,0v-3.8A1.14,1.14,0,0,0,310.31,119.78Z"/><path class="cls-73" d="M310.31,98.78a1.14,1.14,0,0,0-1.14,1.14v3.8a1.14,1.14,0,0,0,2.28,0v-3.8A1.14,1.14,0,0,0,310.31,98.78Z"/><path class="cls-74" d="M310.31,109.28a1.14,1.14,0,0,0-1.14,1.14v3.8a1.14,1.14,0,0,0,2.28,0v-3.8A1.14,1.14,0,0,0,310.31,109.28Z"/><path class="cls-75" d="M310.31,151.28a1.14,1.14,0,0,0-1.14,1.14v1.83a1.14,1.14,0,0,0,2.28,0v-1.83A1.14,1.14,0,0,0,310.31,151.28Z"/></svg>