<svg id="Layer_3" data-name="Layer 3" xmlns="http://www.w3.org/2000/svg" xmlns:xlink="http://www.w3.org/1999/xlink" viewBox="0 0 400 400"><defs><style>.cls-1{fill:none;}.cls-2{fill:#fff;}.cls-3{fill:url(#linear-gradient);}.cls-4{fill:url(#linear-gradient-2);}.cls-5{fill:url(#linear-gradient-3);}.cls-6{fill:url(#linear-gradient-4);}.cls-7{fill:url(#linear-gradient-5);}.cls-8{fill:url(#linear-gradient-6);}.cls-9{fill:url(#linear-gradient-7);}.cls-10{fill:url(#linear-gradient-8);}.cls-11{fill:url(#linear-gradient-9);}.cls-12{fill:url(#linear-gradient-10);}.cls-13{fill:url(#linear-gradient-11);}.cls-14{fill:url(#linear-gradient-12);}.cls-15{fill:url(#linear-gradient-13);}.cls-16{fill:url(#linear-gradient-14);}.cls-17{fill:url(#linear-gradient-15);}.cls-18{fill:url(#linear-gradient-16);}.cls-19{fill:url(#linear-gradient-17);}.cls-20{fill:url(#linear-gradient-18);}.cls-21{fill:url(#linear-gradient-19);}.cls-22{fill:url(#linear-gradient-20);}.cls-23{fill:url(#linear-gradient-21);}.cls-24{fill:url(#linear-gradient-22);}.cls-25{fill:url(#linear-gradient-23);}.cls-26{fill:url(#linear-gradient-24);}.cls-27{fill:url(#linear-gradient-25);}.cls-28{fill:url(#linear-gradient-26);}.cls-29{fill:url(#linear-gradient-27);}.cls-30{fill:url(#linear-gradient-28);}.cls-31{fill:url(#linear-gradient-29);}.cls-32{fill:url(#linear-gradient-30);}.cls-33{fill:url(#linear-gradient-31);}.cls-34{fill:url(#linear-gradient-32);}.cls-35{fill:url(#linear-gradient-33);}.cls-36{fill:url(#linear-gradient-34);}.cls-37{fill:url(#linear-gradient-35);}.cls-38{fill:url(#linear-gradient-36);}.cls-39{fill:url(#linear-gradient-37);}.cls-40{fill:url(#linear-gradient-38);}.cls-41{fill:url(#linear-gradient-39);}.cls-42{fill:url(#linear-gradient-40);}.cls-43{fill:url(#linear-gradient-41);}.cls-44{fill:url(#linear-gradient-42);}.cls-45{fill:url(#linear-gradient-43);}.cls-46{fill:url(#linear-gradient-44);}.cls-47{fill:url(#linear-gradient-45);}.cls-48{fill:url(#linear-gradient-46);}.cls-49{fill:url(#linear-gradient-47);}.cls-50{fill:url(#linear-gradient-48);}.cls-51{fill:url(#linear-gradient-49);}.cls-52{fill:url(#linear-gradient-50);}.cls-53{fill:url(#linear-gradient-51);}.cls-54{fill:url(#linear-gradient-52);}.cls-55{fill:url(#linear-gradient-53);}.cls-56{fill:url(#linear-gradient-54);}.cls-57{fill:url(#linear-gradient-55);}.cls-58{fill:url(#linear-gradient-56);}.cls-59{fill:url(#linear-gradient-57);}.cls-60{fill:url(#linear-gradient-58);}.cls-61{fill:url(#linear-gradient-59);}.cls-62{fill:url(#linear-gradient-60);}.cls-63{fill:url(#linear-gradient-61);}.cls-64{fill:url(#linear-gradient-62);}.cls-65{fill:url(#linear-gradient-63);}.cls-66{fill:url(#linear-gradient-64);}.cls-67{fill:#426b80;}.cls-68{fill:url(#linear-gradient-65);}.cls-69{fill:url(#linear-gradient-66);}.cls-70{fill:url(#linear-gradient-67);}.cls-71{fill:url(#linear-gradient-68);}</style><linearGradient id="linear-gradient" x1="113.49" y1="169.66" x2="319.57" y2="169.66" gradientUnits="userSpaceOnUse"><stop offset="0" stop-color="#6896c5"/><stop offset="1" stop-color="#d13852"/></linearGradient><linearGradient id="linear-gradient-2" x1="81.67" y1="221.52" x2="222.13" y2="221.52" xlink:href="#linear-gradient"/><linearGradient id="linear-gradient-3" x1="95.47" y1="133.04" x2="318.49" y2="133.04" xlink:href="#linear-gradient"/><linearGradient id="linear-gradient-4" x1="147.42" y1="121.65" x2="151.22" y2="121.65" xlink:href="#linear-gradient"/><linearGradient id="linear-gradient-5" x1="106.65" y1="121.64" x2="117.96" y2="121.64" xlink:href="#linear-gradient"/><linearGradient id="linear-gradient-6" x1="129.98" y1="121.64" x2="141.29" y2="121.64" xlink:href="#linear-gradient"/><linearGradient id="linear-gradient-7" x1="164.3" y1="118.52" x2="251.9" y2="118.52" xlink:href="#linear-gradient"/><linearGradient id="linear-gradient-8" x1="164.3" y1="125.89" x2="220.61" y2="125.89" xlink:href="#linear-gradient"/><linearGradient id="linear-gradient-9" x1="95.12" y1="161.42" x2="117.41" y2="161.42" xlink:href="#linear-gradient"/><linearGradient id="linear-gradient-10" x1="95.12" y1="198.99" x2="117.41" y2="198.99" xlink:href="#linear-gradient"/><linearGradient id="linear-gradient-11" x1="95.12" y1="236.56" x2="117.41" y2="236.56" xlink:href="#linear-gradient"/><linearGradient id="linear-gradient-12" x1="95.12" y1="274.13" x2="117.41" y2="274.13" xlink:href="#linear-gradient"/><linearGradient id="linear-gradient-13" x1="133.68" y1="156.73" x2="263.07" y2="156.73" xlink:href="#linear-gradient"/><linearGradient id="linear-gradient-14" x1="279.83" y1="156.73" x2="306.2" y2="156.73" xlink:href="#linear-gradient"/><linearGradient id="linear-gradient-15" x1="133.68" y1="166.12" x2="263.07" y2="166.12" xlink:href="#linear-gradient"/><linearGradient id="linear-gradient-16" x1="279.83" y1="166.12" x2="306.2" y2="166.12" xlink:href="#linear-gradient"/><linearGradient id="linear-gradient-17" x1="133.68" y1="194.28" x2="263.07" y2="194.28" xlink:href="#linear-gradient"/><linearGradient id="linear-gradient-18" x1="279.83" y1="194.28" x2="306.2" y2="194.28" xlink:href="#linear-gradient"/><linearGradient id="linear-gradient-19" x1="133.68" y1="203.66" x2="263.07" y2="203.66" xlink:href="#linear-gradient"/><linearGradient id="linear-gradient-20" x1="279.83" y1="203.66" x2="306.2" y2="203.66" xlink:href="#linear-gradient"/><linearGradient id="linear-gradient-21" x1="133.68" y1="232.04" x2="225.08" y2="232.04" xlink:href="#linear-gradient"/><linearGradient id="linear-gradient-22" x1="133.68" y1="241.21" x2="224.63" y2="241.21" xlink:href="#linear-gradient"/><linearGradient id="linear-gradient-23" x1="133.68" y1="269.59" x2="224.19" y2="269.59" xlink:href="#linear-gradient"/><linearGradient id="linear-gradient-24" x1="133.68" y1="278.75" x2="224.19" y2="278.75" xlink:href="#linear-gradient"/><linearGradient id="linear-gradient-25" x1="100.61" y1="161.42" x2="111.92" y2="161.42" xlink:href="#linear-gradient"/><linearGradient id="linear-gradient-26" x1="6.15" y1="137.18" x2="143.48" y2="47.84" xlink:href="#linear-gradient"/><linearGradient id="linear-gradient-27" x1="-10.04" y1="112.29" x2="127.29" y2="22.95" xlink:href="#linear-gradient"/><linearGradient id="linear-gradient-28" x1="22.44" y1="162.22" x2="159.77" y2="72.89" xlink:href="#linear-gradient"/><linearGradient id="linear-gradient-29" x1="-12.79" y1="108.07" x2="124.55" y2="18.74" xlink:href="#linear-gradient"/><linearGradient id="linear-gradient-30" x1="25.06" y1="166.25" x2="162.4" y2="76.92" xlink:href="#linear-gradient"/><linearGradient id="linear-gradient-31" x1="-4.28" y1="121.15" x2="133.05" y2="31.81" xlink:href="#linear-gradient"/><linearGradient id="linear-gradient-32" x1="16.81" y1="153.58" x2="154.15" y2="64.24" xlink:href="#linear-gradient"/><linearGradient id="linear-gradient-33" x1="10.17" y1="143.36" x2="147.5" y2="54.02" xlink:href="#linear-gradient"/><linearGradient id="linear-gradient-34" x1="2.15" y1="131.04" x2="139.49" y2="41.7" xlink:href="#linear-gradient"/><linearGradient id="linear-gradient-35" x1="6.15" y1="137.18" x2="143.48" y2="47.84" xlink:href="#linear-gradient"/><linearGradient id="linear-gradient-36" x1="0.48" y1="128.46" x2="137.81" y2="39.13" xlink:href="#linear-gradient"/><linearGradient id="linear-gradient-37" x1="-3.62" y1="122.16" x2="133.71" y2="32.83" xlink:href="#linear-gradient"/><linearGradient id="linear-gradient-38" x1="8.24" y1="140.4" x2="145.58" y2="51.07" xlink:href="#linear-gradient"/><linearGradient id="linear-gradient-39" x1="9.24" y1="141.93" x2="146.57" y2="52.59" xlink:href="#linear-gradient"/><linearGradient id="linear-gradient-40" x1="20.34" y1="159" x2="157.67" y2="69.66" xlink:href="#linear-gradient"/><linearGradient id="linear-gradient-41" x1="-7.73" y1="115.84" x2="129.6" y2="26.51" xlink:href="#linear-gradient"/><linearGradient id="linear-gradient-42" x1="10.3" y1="143.56" x2="147.63" y2="54.23" xlink:href="#linear-gradient"/><linearGradient id="linear-gradient-43" x1="3.55" y1="133.19" x2="140.89" y2="43.86" xlink:href="#linear-gradient"/><linearGradient id="linear-gradient-44" x1="221.01" y1="276.96" x2="378.15" y2="276.96" xlink:href="#linear-gradient"/><linearGradient id="linear-gradient-45" x1="273.43" y1="288.97" x2="325.75" y2="288.97" xlink:href="#linear-gradient"/><linearGradient id="linear-gradient-46" x1="289.91" y1="288.97" x2="304.79" y2="288.97" xlink:href="#linear-gradient"/><linearGradient id="linear-gradient-47" x1="332.57" y1="289.03" x2="353.36" y2="289.03" xlink:href="#linear-gradient"/><linearGradient id="linear-gradient-48" x1="245.64" y1="289.03" x2="266.42" y2="289.03" xlink:href="#linear-gradient"/><linearGradient id="linear-gradient-49" x1="358.94" y1="322.77" x2="377.71" y2="322.77" xlink:href="#linear-gradient"/><linearGradient id="linear-gradient-50" x1="350.11" y1="204.33" x2="353.91" y2="204.33" xlink:href="#linear-gradient"/><linearGradient id="linear-gradient-51" x1="350.11" y1="145.67" x2="353.91" y2="145.67" xlink:href="#linear-gradient"/><linearGradient id="linear-gradient-52" x1="346.65" y1="86.51" x2="353.91" y2="86.51" xlink:href="#linear-gradient"/><linearGradient id="linear-gradient-53" x1="187.76" y1="84.77" x2="339.5" y2="84.77" xlink:href="#linear-gradient"/><linearGradient id="linear-gradient-54" x1="174.02" y1="86.51" x2="181.06" y2="86.51" xlink:href="#linear-gradient"/><linearGradient id="linear-gradient-55" x1="174.02" y1="102.87" x2="177.82" y2="102.87" xlink:href="#linear-gradient"/><linearGradient id="linear-gradient-56" x1="68.09" y1="159.41" x2="71.89" y2="159.41" xlink:href="#linear-gradient"/><linearGradient id="linear-gradient-57" x1="68.09" y1="246.01" x2="71.89" y2="246.01" xlink:href="#linear-gradient"/><linearGradient id="linear-gradient-58" x1="68.09" y1="332.77" x2="75.13" y2="332.77" xlink:href="#linear-gradient"/><linearGradient id="linear-gradient-59" x1="82.28" y1="334.39" x2="161.39" y2="334.39" xlink:href="#linear-gradient"/><linearGradient id="linear-gradient-60" x1="168.76" y1="332.77" x2="176.03" y2="332.77" xlink:href="#linear-gradient"/><linearGradient id="linear-gradient-61" x1="172.23" y1="314.95" x2="176.03" y2="314.95" xlink:href="#linear-gradient"/><linearGradient id="linear-gradient-62" x1="25.21" y1="322.41" x2="49.23" y2="322.41" xlink:href="#linear-gradient"/><linearGradient id="linear-gradient-63" x1="31.02" y1="165.77" x2="55.11" y2="165.77" xlink:href="#linear-gradient"/><linearGradient id="linear-gradient-64" x1="139.63" y1="59.84" x2="163.72" y2="59.84" xlink:href="#linear-gradient"/><linearGradient id="linear-gradient-65" x1="41.27" y1="257.18" x2="45.07" y2="257.18" xlink:href="#linear-gradient"/><linearGradient id="linear-gradient-66" x1="37.36" y1="257.3" x2="49.21" y2="257.3" xlink:href="#linear-gradient"/><linearGradient id="linear-gradient-67" x1="366.43" y1="57.84" x2="370.23" y2="57.84" xlink:href="#linear-gradient"/><linearGradient id="linear-gradient-68" x1="362.52" y1="57.96" x2="374.36" y2="57.96" xlink:href="#linear-gradient"/></defs><title>project</title><circle class="cls-1" cx="70.05" cy="95.61" r="37.7"/><circle class="cls-2" cx="106.26" cy="161.42" r="9.25"/><path class="cls-3" d="M317.67,230a1.9,1.9,0,0,1-1.9-1.9V117.39a4.32,4.32,0,0,0-4.31-4.31H115.39a1.9,1.9,0,1,1,0-3.8H311.45a8.12,8.12,0,0,1,8.11,8.11V228.13A1.9,1.9,0,0,1,317.67,230Z"/><path class="cls-4" d="M220.23,304.4H89.78a8.12,8.12,0,0,1-8.11-8.11V140.53a1.9,1.9,0,1,1,3.8,0V296.29a4.32,4.32,0,0,0,4.31,4.31H220.23a1.9,1.9,0,0,1,0,3.8Z"/><path class="cls-5" d="M316.59,134.94H97.36a1.9,1.9,0,0,1,0-3.8H316.59a1.9,1.9,0,0,1,0,3.8Z"/><path class="cls-6" d="M149.32,133.49a1.9,1.9,0,0,1-1.9-1.9V111.7a1.9,1.9,0,1,1,3.8,0v19.89A1.9,1.9,0,0,1,149.32,133.49Z"/><path class="cls-7" d="M112.3,127.3a5.66,5.66,0,1,1,5.66-5.66A5.66,5.66,0,0,1,112.3,127.3Zm0-7.51a1.86,1.86,0,1,0,1.86,1.86A1.86,1.86,0,0,0,112.3,119.78Z"/><path class="cls-8" d="M135.63,127.3a5.66,5.66,0,1,1,5.66-5.66A5.66,5.66,0,0,1,135.63,127.3Zm0-7.51a1.86,1.86,0,1,0,1.86,1.86A1.86,1.86,0,0,0,135.63,119.78Z"/><path class="cls-9" d="M250,120.42h-83.8a1.9,1.9,0,0,1,0-3.8H250a1.9,1.9,0,0,1,0,3.8Z"/><path class="cls-10" d="M218.71,127.79H166.19a1.9,1.9,0,0,1,0-3.8h52.52a1.9,1.9,0,1,1,0,3.8Z"/><path class="cls-11" d="M106.26,172.57a11.15,11.15,0,1,1,11.15-11.15A11.16,11.16,0,0,1,106.26,172.57Zm0-18.49a7.35,7.35,0,1,0,7.35,7.35A7.36,7.36,0,0,0,106.26,154.08Z"/><path class="cls-12" d="M106.26,210.14A11.15,11.15,0,1,1,117.41,199,11.16,11.16,0,0,1,106.26,210.14Zm0-18.49a7.35,7.35,0,1,0,7.35,7.35A7.36,7.36,0,0,0,106.26,191.64Z"/><path class="cls-13" d="M106.26,247.71a11.15,11.15,0,1,1,11.15-11.15A11.16,11.16,0,0,1,106.26,247.71Zm0-18.49a7.35,7.35,0,1,0,7.35,7.35A7.36,7.36,0,0,0,106.26,229.21Z"/><path class="cls-14" d="M106.26,285.27a11.15,11.15,0,1,1,11.15-11.15A11.16,11.16,0,0,1,106.26,285.27Zm0-18.49a7.35,7.35,0,1,0,7.35,7.35A7.36,7.36,0,0,0,106.26,266.78Z"/><path class="cls-15" d="M261.17,158.63H135.58a1.9,1.9,0,0,1,0-3.8H261.17a1.9,1.9,0,1,1,0,3.8Z"/><path class="cls-16" d="M304.3,158.63H281.73a1.9,1.9,0,0,1,0-3.8H304.3a1.9,1.9,0,0,1,0,3.8Z"/><path class="cls-17" d="M261.17,168H135.58a1.9,1.9,0,0,1,0-3.8H261.17a1.9,1.9,0,1,1,0,3.8Z"/><path class="cls-18" d="M304.3,168H281.73a1.9,1.9,0,0,1,0-3.8H304.3a1.9,1.9,0,0,1,0,3.8Z"/><path class="cls-19" d="M261.17,196.18H135.58a1.9,1.9,0,0,1,0-3.8H261.17a1.9,1.9,0,1,1,0,3.8Z"/><path class="cls-20" d="M304.3,196.18H281.73a1.9,1.9,0,0,1,0-3.8H304.3a1.9,1.9,0,0,1,0,3.8Z"/><path class="cls-21" d="M261.17,205.56H135.58a1.9,1.9,0,0,1,0-3.8H261.17a1.9,1.9,0,1,1,0,3.8Z"/><path class="cls-22" d="M304.3,205.56H281.73a1.9,1.9,0,0,1,0-3.8H304.3a1.9,1.9,0,0,1,0,3.8Z"/><path class="cls-23" d="M223.18,233.94h-87.6a1.9,1.9,0,0,1,0-3.8h87.6a1.9,1.9,0,0,1,0,3.8Z"/><path class="cls-24" d="M222.73,243.1H135.58a1.9,1.9,0,0,1,0-3.8h87.16a1.9,1.9,0,1,1,0,3.8Z"/><path class="cls-25" d="M222.29,271.49H135.58a1.9,1.9,0,0,1,0-3.8h86.71a1.9,1.9,0,1,1,0,3.8Z"/><path class="cls-26" d="M222.29,280.65H135.58a1.9,1.9,0,0,1,0-3.8h86.71a1.9,1.9,0,1,1,0,3.8Z"/><path class="cls-27" d="M106.26,167.08a5.66,5.66,0,1,1,5.66-5.66A5.66,5.66,0,0,1,106.26,167.08Zm0-7.51a1.86,1.86,0,1,0,1.86,1.86A1.86,1.86,0,0,0,106.26,159.57Z"/><path class="cls-28" d="M70,135.21a39.6,39.6,0,1,1,39.6-39.6A39.64,39.64,0,0,1,70,135.21Zm0-75.4a35.8,35.8,0,1,0,35.8,35.8A35.84,35.84,0,0,0,70,59.81Z"/><path class="cls-29" d="M70.21,64.21a1.9,1.9,0,0,1-1.9-1.9V57.84a1.9,1.9,0,1,1,3.8,0v4.47A1.9,1.9,0,0,1,70.21,64.21Z"/><path class="cls-30" d="M70.21,135.28a1.9,1.9,0,0,1-1.9-1.9v-4.47a1.9,1.9,0,0,1,3.8,0v4.47A1.9,1.9,0,0,1,70.21,135.28Z"/><path class="cls-31" d="M46.51,74a1.89,1.89,0,0,1-1.34-.56L42,70.3a1.9,1.9,0,0,1,2.69-2.69l3.14,3.14A1.9,1.9,0,0,1,46.51,74Z"/><path class="cls-32" d="M96.68,124.16a1.89,1.89,0,0,1-1.34-.56l-3.14-3.14a1.9,1.9,0,1,1,2.69-2.69L98,120.92a1.9,1.9,0,0,1-1.34,3.24Z"/><path class="cls-33" d="M36.8,97.85H32.11a1.9,1.9,0,1,1,0-3.8H36.8a1.9,1.9,0,0,1,0,3.8Z"/><path class="cls-34" d="M107.64,97.85h-4.47a1.9,1.9,0,0,1,0-3.8h4.47a1.9,1.9,0,0,1,0,3.8Z"/><path class="cls-35" d="M43.33,124.25A1.9,1.9,0,0,1,42,121l3.21-3.21a1.9,1.9,0,1,1,2.69,2.69l-3.21,3.21A1.89,1.89,0,0,1,43.33,124.25Z"/><path class="cls-36" d="M93.5,74.08a1.9,1.9,0,0,1-1.34-3.24l3.21-3.21a1.9,1.9,0,1,1,2.69,2.69l-3.21,3.21A1.89,1.89,0,0,1,93.5,74.08Z"/><path class="cls-37" d="M70,99.05a3.45,3.45,0,1,1,3.45-3.45A3.45,3.45,0,0,1,70,99.05Zm0-3.8a.35.35,0,1,0,.35.35A.35.35,0,0,0,70,95.26Z"/><path class="cls-38" d="M70.21,95.95a1.9,1.9,0,0,1-1.9-1.9V72.15a1.9,1.9,0,1,1,3.8,0V94A1.9,1.9,0,0,1,70.21,95.95Z"/><path class="cls-39" d="M67.42,76.62a1.9,1.9,0,0,1-1.34-3.24l2.6-2.6A1.9,1.9,0,0,1,70,70.22h0a1.9,1.9,0,0,1,1.34.56l2.6,2.6a1.9,1.9,0,0,1-2.69,2.69L70,74.81l-1.25,1.25A1.89,1.89,0,0,1,67.42,76.62Z"/><path class="cls-40" d="M81.72,97.85H71.44a1.9,1.9,0,0,1,0-3.8H81.72a1.9,1.9,0,0,1,0,3.8Z"/><path class="cls-41" d="M80.37,100.15A1.9,1.9,0,0,1,79,96.91l1.25-1.25L79,94.4a1.9,1.9,0,1,1,2.69-2.69l2.6,2.6a1.9,1.9,0,0,1,0,2.69l-2.6,2.6A1.89,1.89,0,0,1,80.37,100.15Z"/><path class="cls-42" d="M70,143.34a47.58,47.58,0,0,1-33.87-14,1.9,1.9,0,1,1,2.69-2.69,44.1,44.1,0,0,0,71.13-49.87,1.9,1.9,0,0,1,3.44-1.61A47.91,47.91,0,0,1,70,143.34Z"/><path class="cls-43" d="M29.12,118.49a1.9,1.9,0,0,1-1.69-1,47.9,47.9,0,0,1,76.42-55.88,1.9,1.9,0,0,1-2.69,2.69,44.1,44.1,0,0,0-70.36,51.45,1.9,1.9,0,0,1-1.69,2.77Z"/><path class="cls-44" d="M110.16,82.1a1.9,1.9,0,0,1-1.84-2.38l1.12-4.28a1.9,1.9,0,0,1,2.32-1.36L116,75.21a1.9,1.9,0,0,1-1,3.67l-2.44-.64L112,80.69A1.9,1.9,0,0,1,110.16,82.1Z"/><path class="cls-45" d="M30,119.77a1.9,1.9,0,0,1-.43-.05l-4.31-1a1.9,1.9,0,1,1,.87-3.7l2.46.57.57-2.46a1.9,1.9,0,0,1,3.7.87l-1,4.31A1.9,1.9,0,0,1,30,119.77Z"/><path class="cls-46" d="M378,236.45a8.35,8.35,0,0,0-8.33-8.32h-9.26v-8.31a6.22,6.22,0,0,0-6.22-6.22h-4.1a6.22,6.22,0,0,0-6.22,6.22v8.54a1.88,1.88,0,0,0-.89-.23H256.48l-.22,0v-8.33a6.22,6.22,0,0,0-6.22-6.22h-4.1a6.22,6.22,0,0,0-6.22,6.22v8.78a1.88,1.88,0,0,0-.85-.21h-9.52a8.34,8.34,0,0,0-8.33,8.33V332a8.34,8.34,0,0,0,8.33,8.33H369.82a8.33,8.33,0,0,0,8.33-8.35Zm-17.55-4.52h9.22a4.54,4.54,0,0,1,4.53,4.53l0,16.48H353.69V242.66h.49a6.22,6.22,0,0,0,6.22-6.22v-4.52Zm-12.78-12.11a2.42,2.42,0,0,1,2.42-2.42h4.1a2.42,2.42,0,0,1,2.42,2.42v16.62a2.42,2.42,0,0,1-2.42,2.42h-4.1a2.42,2.42,0,0,1-2.42-2.42Zm-91.4,16.62v-4.53l.22,0h17.88v8.27a1.9,1.9,0,1,0,3.8,0v-8.27h8v8.27a1.9,1.9,0,1,0,3.8,0v-8.27h7.6v8.27a1.9,1.9,0,1,0,3.8,0v-8.27h7.37v8.27a1.9,1.9,0,1,0,3.8,0v-8.27h7.6v8.27a1.9,1.9,0,1,0,3.8,0v-8.27h19a1.88,1.88,0,0,0,.89-.23v4.74a6.21,6.21,0,0,0,6,6.21v10.29H249.55V242.66H250A6.22,6.22,0,0,0,256.26,236.44Zm-12.74-16.62a2.42,2.42,0,0,1,2.42-2.42H250a2.42,2.42,0,0,1,2.42,2.42v16.62a2.42,2.42,0,0,1-2.42,2.42h-4.1a2.42,2.42,0,0,1-2.42-2.42Zm-14.17,12.37h9.52a1.88,1.88,0,0,0,.85-.21v4.46a6.21,6.21,0,0,0,6,6.21v10.29H224.81V236.73A4.54,4.54,0,0,1,229.35,232.19ZM373,335.19a4.5,4.5,0,0,1-3.21,1.33H229.35a4.54,4.54,0,0,1-4.53-4.53v-7.51a1.88,1.88,0,0,0,.83.2H331.12a1.9,1.9,0,1,0,0-3.8H225.64a1.88,1.88,0,0,0-.83.2V256.74H374.23l.12,75.24A4.5,4.5,0,0,1,373,335.19Z"/><path class="cls-47" d="M299.59,262.81A26.16,26.16,0,1,0,325.75,289,26.19,26.19,0,0,0,299.59,262.81Zm0,48.52A22.36,22.36,0,1,1,321.95,289,22.39,22.39,0,0,1,299.59,311.33Z"/><path class="cls-48" d="M295.48,274.33a31.52,31.52,0,0,1-5.57,2.21v6.39a14.52,14.52,0,0,0,2-.4,16.16,16.16,0,0,0,2-.67,15.25,15.25,0,0,0,1.81-.89,9.05,9.05,0,0,0,1.48-1v26.65h7.56V271.37h-4.59A31.69,31.69,0,0,1,295.48,274.33Z"/><path class="cls-49" d="M351.46,287.13h-17a1.9,1.9,0,0,0,0,3.8h17a1.9,1.9,0,0,0,0-3.8Z"/><path class="cls-50" d="M264.52,287.13h-17a1.9,1.9,0,0,0,0,3.8h17a1.9,1.9,0,0,0,0-3.8Z"/><path class="cls-51" d="M375.81,324.67h-15a1.9,1.9,0,0,1,0-3.8h15a1.9,1.9,0,0,1,0,3.8Z"/><path class="cls-52" d="M352,207.91a1.9,1.9,0,0,1-1.9-1.9v-3.35a1.9,1.9,0,1,1,3.8,0V206A1.9,1.9,0,0,1,352,207.91Z"/><path class="cls-53" d="M352,193.83a1.9,1.9,0,0,1-1.9-1.9v-6.48a1.9,1.9,0,0,1,3.8,0v6.48A1.9,1.9,0,0,1,352,193.83Zm0-17.21a1.9,1.9,0,0,1-1.9-1.9v-6.48a1.9,1.9,0,1,1,3.8,0v6.48A1.9,1.9,0,0,1,352,176.62Zm0-17.21a1.9,1.9,0,0,1-1.9-1.9V151a1.9,1.9,0,0,1,3.8,0v6.48A1.9,1.9,0,0,1,352,159.41Zm0-17.21a1.9,1.9,0,0,1-1.9-1.9v-6.48a1.9,1.9,0,1,1,3.8,0v6.48A1.9,1.9,0,0,1,352,142.21ZM352,125a1.9,1.9,0,0,1-1.9-1.9v-6.48a1.9,1.9,0,0,1,3.8,0v6.48A1.9,1.9,0,0,1,352,125Zm0-17.21a1.9,1.9,0,0,1-1.9-1.9V99.41a1.9,1.9,0,0,1,3.8,0v6.48A1.9,1.9,0,0,1,352,107.79Z"/><path class="cls-54" d="M352,90.14a1.9,1.9,0,0,1-1.9-1.9V86.67h-1.56a1.9,1.9,0,0,1,0-3.8H352a1.9,1.9,0,0,1,1.9,1.9v3.46A1.9,1.9,0,0,1,352,90.14Z"/><path class="cls-55" d="M337.6,86.67h-6.7a1.9,1.9,0,0,1,0-3.8h6.7a1.9,1.9,0,0,1,0,3.8Zm-17.65,0h-6.7a1.9,1.9,0,0,1,0-3.8h6.7a1.9,1.9,0,0,1,0,3.8Zm-17.65,0h-6.7a1.9,1.9,0,0,1,0-3.8h6.7a1.9,1.9,0,1,1,0,3.8Zm-17.65,0h-6.7a1.9,1.9,0,0,1,0-3.8h6.7a1.9,1.9,0,1,1,0,3.8Zm-17.65,0h-6.7a1.9,1.9,0,1,1,0-3.8H267a1.9,1.9,0,0,1,0,3.8Zm-17.65,0h-6.7a1.9,1.9,0,1,1,0-3.8h6.7a1.9,1.9,0,1,1,0,3.8Zm-17.65,0H225a1.9,1.9,0,0,1,0-3.8h6.7a1.9,1.9,0,1,1,0,3.8Zm-17.65,0h-6.7a1.9,1.9,0,0,1,0-3.8H214a1.9,1.9,0,0,1,0,3.8Zm-17.65,0h-6.7a1.9,1.9,0,1,1,0-3.8h6.7a1.9,1.9,0,0,1,0,3.8Z"/><path class="cls-56" d="M175.92,90.14a1.9,1.9,0,0,1-1.9-1.9V84.77a1.9,1.9,0,0,1,1.9-1.9h3.24a1.9,1.9,0,1,1,0,3.8h-1.34v1.56A1.9,1.9,0,0,1,175.92,90.14Z"/><path class="cls-57" d="M175.92,106.45a1.9,1.9,0,0,1-1.9-1.9V101.2a1.9,1.9,0,0,1,3.8,0v3.35A1.9,1.9,0,0,1,175.92,106.45Z"/><path class="cls-58" d="M70,163a1.9,1.9,0,0,1-1.9-1.9v-3.35a1.9,1.9,0,1,1,3.8,0v3.35A1.9,1.9,0,0,1,70,163Z"/><path class="cls-59" d="M70,321.88a1.9,1.9,0,0,1-1.9-1.9v-6.7a1.9,1.9,0,1,1,3.8,0V320A1.9,1.9,0,0,1,70,321.88Zm0-17.65a1.9,1.9,0,0,1-1.9-1.9v-6.7a1.9,1.9,0,0,1,3.8,0v6.7A1.9,1.9,0,0,1,70,304.23Zm0-17.65a1.9,1.9,0,0,1-1.9-1.9V278a1.9,1.9,0,0,1,3.8,0v6.7A1.9,1.9,0,0,1,70,286.57Zm0-17.65a1.9,1.9,0,0,1-1.9-1.9v-6.7a1.9,1.9,0,1,1,3.8,0V267A1.9,1.9,0,0,1,70,268.92Zm0-17.65a1.9,1.9,0,0,1-1.9-1.9v-6.7a1.9,1.9,0,1,1,3.8,0v6.7A1.9,1.9,0,0,1,70,251.26Zm0-17.65a1.9,1.9,0,0,1-1.9-1.9V225a1.9,1.9,0,0,1,3.8,0v6.7A1.9,1.9,0,0,1,70,233.61ZM70,216a1.9,1.9,0,0,1-1.9-1.9v-6.7a1.9,1.9,0,0,1,3.8,0v6.7A1.9,1.9,0,0,1,70,216Zm0-17.65a1.9,1.9,0,0,1-1.9-1.9v-6.7a1.9,1.9,0,0,1,3.8,0v6.7A1.9,1.9,0,0,1,70,198.3Zm0-17.65a1.9,1.9,0,0,1-1.9-1.9V172a1.9,1.9,0,1,1,3.8,0v6.7A1.9,1.9,0,0,1,70,180.64Z"/><path class="cls-60" d="M73.23,336.29H70a1.9,1.9,0,0,1-1.9-1.9v-3.24a1.9,1.9,0,1,1,3.8,0v1.34h1.34a1.9,1.9,0,0,1,0,3.8Z"/><path class="cls-61" d="M159.49,336.29H153a1.9,1.9,0,0,1,0-3.8h6.48a1.9,1.9,0,1,1,0,3.8Zm-17.21,0H135.8a1.9,1.9,0,1,1,0-3.8h6.48a1.9,1.9,0,0,1,0,3.8Zm-17.21,0h-6.48a1.9,1.9,0,0,1,0-3.8h6.48a1.9,1.9,0,1,1,0,3.8Zm-17.21,0h-6.48a1.9,1.9,0,1,1,0-3.8h6.48a1.9,1.9,0,0,1,0,3.8Zm-17.21,0H84.18a1.9,1.9,0,1,1,0-3.8h6.48a1.9,1.9,0,1,1,0,3.8Z"/><path class="cls-62" d="M174.13,336.29h-3.46a1.9,1.9,0,1,1,0-3.8h1.56v-1.34a1.9,1.9,0,1,1,3.8,0v3.24A1.9,1.9,0,0,1,174.13,336.29Z"/><path class="cls-63" d="M174.13,318.53a1.9,1.9,0,0,1-1.9-1.9v-3.35a1.9,1.9,0,1,1,3.8,0v3.35A1.9,1.9,0,0,1,174.13,318.53Z"/><path class="cls-64" d="M38.1,332.67a2.7,2.7,0,0,1,1.61-3.41h0c0-.48,3,.25,3.46,1.65h0a2.67,2.67,0,0,1-1.63,3.41h0a2.72,2.72,0,0,1-.89.15h0A2.7,2.7,0,0,1,38.1,332.67Zm-7.18.44a2.68,2.68,0,0,1-.84-3.7h0a2.68,2.68,0,0,1,3.7-.84h0a2.68,2.68,0,0,1,.84,3.7h0a2.68,2.68,0,0,1-2.27,1.25h0A2.65,2.65,0,0,1,30.92,333.11Zm14.81-4.71A2.68,2.68,0,0,1,44.09,325h0a2.65,2.65,0,0,1,3.39-1.64h0a2.7,2.7,0,0,1,1.62,3.42h0a2.71,2.71,0,0,1-2.5,1.79h0A2.5,2.5,0,0,1,45.73,328.4ZM25.23,324a2.68,2.68,0,0,1,2.37-3h0a2.68,2.68,0,0,1,3,2.37h0a2.68,2.68,0,0,1-2.37,3h0l-.3,0h0A2.68,2.68,0,0,1,25.23,324ZM43.42,319a2.68,2.68,0,0,1,.85-3.7h0a2.68,2.68,0,0,1,3.7.85h0a2.68,2.68,0,0,1-.85,3.7h0a2.67,2.67,0,0,1-1.42.41h0A2.68,2.68,0,0,1,43.42,319Zm-14.65-1.24a2.68,2.68,0,0,1,0-3.79h0l0,0h0a2.68,2.68,0,0,1,3.79,0h0a2.68,2.68,0,0,1,0,3.79h0v0h0a2.67,2.67,0,0,1-1.9.78h0A2.67,2.67,0,0,1,28.77,317.73Zm9.53-2a2.69,2.69,0,0,1-2.36-3h0a2.65,2.65,0,0,1,3-2.37h0a2.73,2.73,0,0,1,2.36,3h0a2.69,2.69,0,0,1-2.66,2.38H38.3Z"/><path class="cls-65" d="M44,176a2.68,2.68,0,0,1,1.65-3.41h0A2.68,2.68,0,0,1,49,174.25h0a2.68,2.68,0,0,1-1.65,3.41h0a2.65,2.65,0,0,1-.88.15h0A2.68,2.68,0,0,1,44,176Zm-7.23.44a2.68,2.68,0,0,1-.84-3.7h0a2.68,2.68,0,0,1,3.7-.84h0a2.68,2.68,0,0,1,.84,3.7h0a2.68,2.68,0,0,1-2.27,1.25h0A2.65,2.65,0,0,1,36.73,176.46Zm14.81-4.71a2.68,2.68,0,0,1-1.64-3.42h0a2.68,2.68,0,0,1,3.42-1.64h0A2.68,2.68,0,0,1,55,170.1h0a2.68,2.68,0,0,1-2.53,1.79h0A2.7,2.7,0,0,1,51.54,171.74ZM31,167.38a2.68,2.68,0,0,1,2.37-3h0a2.68,2.68,0,0,1,3,2.37h0a2.68,2.68,0,0,1-2.37,3h0l-.3,0h0A2.68,2.68,0,0,1,31,167.38Zm18.19-5.08a2.68,2.68,0,0,1,.85-3.7h0a2.68,2.68,0,0,1,3.7.85h0a2.68,2.68,0,0,1-.85,3.7h0a2.65,2.65,0,0,1-1.42.41h0A2.68,2.68,0,0,1,49.23,162.31Zm-14.65-1.24a2.68,2.68,0,0,1,0-3.79h0l0,0h0a2.68,2.68,0,0,1,3.79,0h0a2.68,2.68,0,0,1,0,3.79h0a2.68,2.68,0,0,1-1.9.78h0A2.67,2.67,0,0,1,34.58,161.07Zm9.53-2a2.68,2.68,0,0,1-2.36-3h0a2.68,2.68,0,0,1,3-2.36h0a2.68,2.68,0,0,1,2.36,3h0a2.68,2.68,0,0,1-2.66,2.38h0Z"/><path class="cls-66" d="M152.56,70.09a2.68,2.68,0,0,1,1.65-3.41h0a2.69,2.69,0,0,1,3.41,1.65h0A2.68,2.68,0,0,1,156,71.74h0a2.65,2.65,0,0,1-.88.15h0A2.68,2.68,0,0,1,152.56,70.09Zm-7.23.44a2.68,2.68,0,0,1-.84-3.7h0a2.68,2.68,0,0,1,3.7-.84h0a2.68,2.68,0,0,1,.84,3.7h0a2.68,2.68,0,0,1-2.27,1.25h0A2.65,2.65,0,0,1,145.34,70.53Zm14.81-4.71a2.68,2.68,0,0,1-1.64-3.42h0a2.68,2.68,0,0,1,3.42-1.64h0a2.68,2.68,0,0,1,1.64,3.42h0A2.68,2.68,0,0,1,161,66h0A2.64,2.64,0,0,1,160.14,65.82Zm-20.5-4.36a2.68,2.68,0,0,1,2.37-3h0a2.68,2.68,0,0,1,3,2.37h0a2.68,2.68,0,0,1-2.37,3h0l-.3,0h0A2.68,2.68,0,0,1,139.65,61.46Zm18.19-5.08a2.68,2.68,0,0,1,.85-3.7h0a2.68,2.68,0,0,1,3.7.85h0a2.68,2.68,0,0,1-.85,3.7h0a2.67,2.67,0,0,1-1.42.41h0A2.68,2.68,0,0,1,157.84,56.38Zm-14.65-1.24a2.68,2.68,0,0,1,0-3.79h0l0,0h0a2.68,2.68,0,0,1,3.79,0h0a2.68,2.68,0,0,1,0,3.79h0a2.68,2.68,0,0,1-1.9.78h0A2.67,2.67,0,0,1,143.19,55.14Zm9.53-2h0a2.68,2.68,0,0,1-2.36-3h0a2.68,2.68,0,0,1,3-2.36h0a2.68,2.68,0,0,1,2.36,3h0A2.68,2.68,0,0,1,153,53.16h0Z"/><path class="cls-67" d="M205,328.58a1.9,1.9,0,0,1-1.9-1.9v-8a1.9,1.9,0,0,1,3.8,0v8A1.9,1.9,0,0,1,205,328.58Z"/><path class="cls-67" d="M209.1,324.67h-8a1.9,1.9,0,1,1,0-3.8h8a1.9,1.9,0,0,1,0,3.8Z"/><path class="cls-68" d="M43.17,263.11a1.9,1.9,0,0,1-1.9-1.9v-8a1.9,1.9,0,1,1,3.8,0v8A1.9,1.9,0,0,1,43.17,263.11Z"/><path class="cls-69" d="M47.31,259.2h-8a1.9,1.9,0,1,1,0-3.8h8a1.9,1.9,0,1,1,0,3.8Z"/><path class="cls-70" d="M368.33,63.77a1.9,1.9,0,0,1-1.9-1.9v-8a1.9,1.9,0,1,1,3.8,0v8A1.9,1.9,0,0,1,368.33,63.77Z"/><path class="cls-71" d="M372.46,59.86h-8a1.9,1.9,0,0,1,0-3.8h8a1.9,1.9,0,0,1,0,3.8Z"/></svg>